M48
;Layer_Color=9474304
;FILE_FORMAT=2:5
INCH
;TYPE=PLATED
T1F00S00C0.01181
T2F00S00C0.03543
;TYPE=NON_PLATED
T3F00S00C0.03902
%
T01
X0782693Y0612241
X0785740Y0612557
X0791843Y0611449
X0801583Y0612433
X0805425Y0612728
X0807787
X0810543
X0810150Y0616272
Y0619815
X0819598Y0619421
Y0622177
Y0616272
Y0613122
Y0609972
Y0607217
Y0604461
X0822354
X0810937Y0604067
X0808181
X0805425
Y0606429
Y0609972
Y0601311
Y0598555
Y0595405
Y0592256
X0772157Y0597079
X0765465Y0599244
X0762315Y0597374
X0761528Y0607118
X0762217Y0612335
X0756606Y0612532
X0753949Y0616961
X0751374Y0619520
X0755526Y0622179
X0747157Y0622669
X0741547Y0621788
X0743910Y0618929
X0741843Y0614992
X0733968
X0723437Y0614500
X0722847Y0619913
X0726784Y0620012
X0730031Y0607118
X0737906
X0745780
X0754441Y0604067
X0738693Y0596390
X0732197Y0593142
X0720583Y0593732
X0710248Y0606429
X0777276Y0607118
X0776094Y0612039
X0781180Y0639598
X0779248Y0644129
X0779539Y0654658
X0767728Y0656035
X0768910Y0645799
X0767925Y0641567
X0755440Y0638516
X0755370Y0635366
Y0632020
X0755379Y0628870
X0755429Y0625819
X0747157Y0629362
X0742927Y0625624
X0739777Y0631333
X0733968Y0630740
X0730409Y0630445
X0730524Y0625524
X0730721Y0636154
Y0641173
X0735817Y0641468
X0737906Y0638614
X0741941Y0641272
X0755524Y0651454
X0757591Y0662236
X0760150Y0667354
X0757000Y0671291
X0754441Y0676803
X0765465Y0677984
X0768024Y0679067
Y0682020
Y0684972
Y0687925
Y0690878
Y0693831
X0765071
X0762118
Y0696783
Y0699736
Y0702689
X0753653Y0701606
X0745780
X0742236Y0699854
X0737906Y0701606
X0730031
X0733181Y0693043
X0732492Y0689943
X0728457Y0683988
X0732000Y0679658
X0734165Y0672571
X0741350Y0671095
X0744500Y0669520
X0740646Y0675524
X0740957Y0687138
X0754723Y0692945
X0776882Y0693831
X0779835
X0776882Y0682020
Y0679067
Y0676114
X0768024
X0718221Y0672582
X0715169Y0679264
X0710347Y0678673
X0714087Y0685957
X0716252Y0689106
Y0697571
X0709756Y0697669
X0719894Y0682905
X0790760Y0681724
X0790858Y0686842
X0795976Y0686476
X0800012Y0692846
X0789087Y0693732
X0782787Y0693831
Y0696783
Y0699854
Y0702689
X0785150Y0701606
X0793024
X0809898Y0699854
X0809953Y0696291
X0810051Y0689894
X0810136Y0676409
X0813595Y0669421
X0819500Y0669028
X0810543Y0662532
X0807984Y0660760
X0803953Y0664307
X0798331Y0657315
X0800898Y0654362
X0793417Y0654165
X0788988Y0658890
X0785740
X0790563Y0676705
X0795091Y0675573
X0798343Y0674248
X0800898Y0638614
X0790858Y0639801
X0789579Y0625819
X0819598Y0625327
Y0628476
Y0631823
X0811134Y0645110
X0814283Y0648949
X0821961Y0695209
T02
X0712917Y0702098
X0722917
T03
X0715228Y0593378
X0719228Y0613378
X0711228
M30
