G04*
G04 #@! TF.GenerationSoftware,Altium Limited,Altium Designer,19.0.14 (431)*
G04*
G04 Layer_Color=16711935*
%FSAX25Y25*%
%MOIN*%
G70*
G01*
G75*
%ADD10C,0.01000*%
%ADD90C,0.00600*%
D10*
X0822173Y0589500D02*
X0843138D01*
X0822173Y0707610D02*
X0843138D01*
X0842138Y0589500D02*
Y0627361D01*
Y0666549D02*
Y0707610D01*
Y0589500D02*
X0844138Y0595500D01*
X0840138D02*
X0842138Y0589500D01*
X0840138Y0701610D02*
X0842138Y0707610D01*
X0844138Y0701610D01*
X0825110Y0573539D02*
Y0592437D01*
X0707000Y0573539D02*
Y0592437D01*
X0780051Y0574539D02*
X0825110D01*
X0707000D02*
X0748860D01*
X0819110Y0576539D02*
X0825110Y0574539D01*
X0819110Y0572539D02*
X0825110Y0574539D01*
X0707000D02*
X0713000Y0572539D01*
X0707000Y0574539D02*
X0713000Y0576539D01*
D90*
X0846737Y0628961D02*
Y0630960D01*
Y0629961D01*
X0840738D01*
X0841738Y0628961D01*
X0846737Y0633959D02*
Y0635959D01*
Y0634959D01*
X0840738D01*
X0841738Y0633959D01*
Y0638958D02*
X0840738Y0639957D01*
Y0641957D01*
X0841738Y0642956D01*
X0842738D01*
X0843738Y0641957D01*
X0844737Y0642956D01*
X0845737D01*
X0846737Y0641957D01*
Y0639957D01*
X0845737Y0638958D01*
X0844737D01*
X0843738Y0639957D01*
X0842738Y0638958D01*
X0841738D01*
X0843738Y0639957D02*
Y0641957D01*
X0846737Y0644956D02*
Y0646955D01*
Y0645955D01*
X0840738D01*
X0841738Y0644956D01*
X0847736Y0650954D02*
X0846737Y0651954D01*
X0845737D01*
Y0650954D01*
X0846737D01*
Y0651954D01*
X0847736Y0650954D01*
X0848736Y0649954D01*
X0846737Y0655952D02*
Y0657952D01*
Y0656952D01*
X0840738D01*
X0841738Y0655952D01*
Y0660951D02*
X0840738Y0661950D01*
Y0663950D01*
X0841738Y0664949D01*
X0845737D01*
X0846737Y0663950D01*
Y0661950D01*
X0845737Y0660951D01*
X0841738D01*
X0750460Y0574939D02*
X0751459Y0575939D01*
X0753459D01*
X0754458Y0574939D01*
Y0573939D01*
X0753459Y0572940D01*
X0752459D01*
X0753459D01*
X0754458Y0571940D01*
Y0570940D01*
X0753459Y0569941D01*
X0751459D01*
X0750460Y0570940D01*
X0756458Y0574939D02*
X0757457Y0575939D01*
X0759457D01*
X0760456Y0574939D01*
Y0570940D01*
X0759457Y0569941D01*
X0757457D01*
X0756458Y0570940D01*
Y0574939D01*
X0763455Y0568941D02*
X0764455Y0569941D01*
Y0570940D01*
X0763455D01*
Y0569941D01*
X0764455D01*
X0763455Y0568941D01*
X0762456Y0567941D01*
X0768454Y0574939D02*
X0769453Y0575939D01*
X0771453D01*
X0772452Y0574939D01*
Y0570940D01*
X0771453Y0569941D01*
X0769453D01*
X0768454Y0570940D01*
Y0574939D01*
X0774452D02*
X0775452Y0575939D01*
X0777451D01*
X0778451Y0574939D01*
Y0570940D01*
X0777451Y0569941D01*
X0775452D01*
X0774452Y0570940D01*
Y0574939D01*
M02*
