G04*
G04 #@! TF.GenerationSoftware,Altium Limited,Altium Designer,19.0.14 (431)*
G04*
G04 Layer_Physical_Order=1*
G04 Layer_Color=255*
%FSAX25Y25*%
%MOIN*%
G70*
G01*
G75*
%ADD11C,0.00787*%
%ADD13C,0.01181*%
%ADD21R,0.04724X0.02362*%
%ADD22R,0.07480X0.09055*%
%ADD23R,0.05512X0.06299*%
%ADD24R,0.05512X0.01575*%
%ADD25R,0.01378X0.04724*%
%ADD26R,0.01929X0.01772*%
%ADD27R,0.02362X0.03543*%
%ADD28R,0.03543X0.02362*%
%ADD29R,0.00984X0.02756*%
%ADD30R,0.07874X0.03110*%
%ADD31R,0.03583X0.04803*%
%ADD32R,0.03150X0.03543*%
%ADD33R,0.03150X0.03150*%
G04:AMPARAMS|DCode=34|XSize=59.06mil|YSize=59.06mil|CornerRadius=5.91mil|HoleSize=0mil|Usage=FLASHONLY|Rotation=0.000|XOffset=0mil|YOffset=0mil|HoleType=Round|Shape=RoundedRectangle|*
%AMROUNDEDRECTD34*
21,1,0.05906,0.04724,0,0,0.0*
21,1,0.04724,0.05906,0,0,0.0*
1,1,0.01181,0.02362,-0.02362*
1,1,0.01181,-0.02362,-0.02362*
1,1,0.01181,-0.02362,0.02362*
1,1,0.01181,0.02362,0.02362*
%
%ADD34ROUNDEDRECTD34*%
%ADD35R,0.05906X0.05906*%
%ADD36R,0.03937X0.03937*%
%ADD37R,0.04134X0.08661*%
%ADD38C,0.03098*%
%ADD39R,0.03543X0.03937*%
%ADD66C,0.03937*%
%ADD67R,0.07480X0.06102*%
%ADD68R,0.06693X0.01968*%
%ADD69R,0.01968X0.06693*%
%ADD70C,0.01575*%
%ADD71C,0.02756*%
%ADD72C,0.01968*%
%ADD73C,0.00984*%
%ADD74C,0.04000*%
%ADD75C,0.05906*%
%ADD76C,0.03902*%
%ADD77C,0.01968*%
G36*
X0807684Y0703071D02*
X0807514Y0702894D01*
X0807241Y0702566D01*
X0807137Y0702414D01*
X0807055Y0702271D01*
X0806995Y0702136D01*
X0806958Y0702009D01*
X0806942Y0701891D01*
X0806948Y0701781D01*
X0806976Y0701679D01*
X0806187Y0703649D01*
X0806236Y0703568D01*
X0806305Y0703521D01*
X0806394Y0703508D01*
X0806503Y0703528D01*
X0806632Y0703582D01*
X0806782Y0703670D01*
X0806951Y0703791D01*
X0807140Y0703946D01*
X0807578Y0704357D01*
X0807684Y0703071D01*
D02*
G37*
G36*
X0814603Y0700216D02*
X0814596Y0700256D01*
X0814574Y0700291D01*
X0814539Y0700323D01*
X0814489Y0700350D01*
X0814425Y0700373D01*
X0814346Y0700392D01*
X0814253Y0700406D01*
X0814146Y0700417D01*
X0813890Y0700425D01*
Y0701409D01*
X0814025Y0701411D01*
X0814253Y0701428D01*
X0814346Y0701443D01*
X0814425Y0701462D01*
X0814489Y0701485D01*
X0814539Y0701512D01*
X0814574Y0701543D01*
X0814596Y0701579D01*
X0814603Y0701618D01*
Y0700216D01*
D02*
G37*
G36*
X0806710Y0700132D02*
X0806626Y0700103D01*
X0806552Y0700053D01*
X0806488Y0699984D01*
X0806434Y0699896D01*
X0806390Y0699788D01*
X0806355Y0699660D01*
X0806331Y0699512D01*
X0806316Y0699345D01*
X0806311Y0699158D01*
X0805327D01*
X0805322Y0699345D01*
X0805307Y0699512D01*
X0805282Y0699660D01*
X0805248Y0699788D01*
X0805204Y0699896D01*
X0805150Y0699984D01*
X0805086Y0700053D01*
X0805012Y0700103D01*
X0804928Y0700132D01*
X0804835Y0700142D01*
X0806803D01*
X0806710Y0700132D01*
D02*
G37*
G36*
X0806316Y0698455D02*
X0806331Y0698287D01*
X0806355Y0698140D01*
X0806390Y0698012D01*
X0806434Y0697903D01*
X0806488Y0697815D01*
X0806552Y0697746D01*
X0806626Y0697697D01*
X0806710Y0697667D01*
X0806803Y0697657D01*
X0804835D01*
X0804928Y0697667D01*
X0805012Y0697697D01*
X0805086Y0697746D01*
X0805150Y0697815D01*
X0805204Y0697903D01*
X0805248Y0698012D01*
X0805282Y0698140D01*
X0805307Y0698287D01*
X0805322Y0698455D01*
X0805327Y0698641D01*
X0806311D01*
X0806316Y0698455D01*
D02*
G37*
G36*
X0729839Y0696078D02*
X0729896Y0695370D01*
X0729930Y0695197D01*
X0729972Y0695055D01*
X0730022Y0694945D01*
X0730079Y0694866D01*
X0730144Y0694819D01*
X0730216Y0694803D01*
X0727878D01*
X0727951Y0694819D01*
X0728016Y0694866D01*
X0728073Y0694945D01*
X0728122Y0695055D01*
X0728164Y0695197D01*
X0728199Y0695370D01*
X0728226Y0695575D01*
X0728256Y0696078D01*
X0728260Y0696378D01*
X0729835D01*
X0729839Y0696078D01*
D02*
G37*
G36*
X0822105Y0705922D02*
X0822894Y0705394D01*
X0823422Y0704605D01*
X0823594Y0703739D01*
X0823581Y0703673D01*
Y0692011D01*
X0823119Y0691820D01*
X0822761Y0692178D01*
X0822300Y0692486D01*
X0821756Y0692594D01*
X0819516D01*
Y0697457D01*
X0822075D01*
Y0704181D01*
X0819216D01*
X0818902Y0704651D01*
X0818017Y0705536D01*
X0817950Y0705581D01*
X0818102Y0706081D01*
X0821173D01*
X0821239Y0706094D01*
X0822105Y0705922D01*
D02*
G37*
G36*
X0723086Y0691284D02*
X0723025Y0691328D01*
X0722953Y0691351D01*
X0722869D01*
X0722774Y0691328D01*
X0722669Y0691284D01*
X0722552Y0691217D01*
X0722424Y0691128D01*
X0722284Y0691016D01*
X0721973Y0690727D01*
X0721416Y0691284D01*
X0721572Y0691445D01*
X0721817Y0691735D01*
X0721906Y0691863D01*
X0721973Y0691980D01*
X0722017Y0692085D01*
X0722039Y0692180D01*
Y0692264D01*
X0722017Y0692336D01*
X0721973Y0692397D01*
X0723086Y0691284D01*
D02*
G37*
G36*
X0711732Y0691276D02*
X0711665Y0691252D01*
X0711606Y0691213D01*
X0711555Y0691158D01*
X0711512Y0691087D01*
X0711476Y0691000D01*
X0711449Y0690898D01*
X0711429Y0690780D01*
X0711417Y0690646D01*
X0711413Y0690496D01*
X0710626D01*
X0710622Y0690646D01*
X0710610Y0690780D01*
X0710591Y0690898D01*
X0710563Y0691000D01*
X0710528Y0691087D01*
X0710484Y0691158D01*
X0710433Y0691213D01*
X0710374Y0691252D01*
X0710307Y0691276D01*
X0710232Y0691284D01*
X0711807D01*
X0711732Y0691276D01*
D02*
G37*
G36*
X0711417Y0689378D02*
X0711429Y0689244D01*
X0711449Y0689126D01*
X0711476Y0689023D01*
X0711512Y0688937D01*
X0711555Y0688866D01*
X0711606Y0688811D01*
X0711665Y0688771D01*
X0711732Y0688748D01*
X0711807Y0688740D01*
X0710232D01*
X0710307Y0688748D01*
X0710374Y0688771D01*
X0710433Y0688811D01*
X0710484Y0688866D01*
X0710528Y0688937D01*
X0710563Y0689023D01*
X0710591Y0689126D01*
X0710610Y0689244D01*
X0710622Y0689378D01*
X0710626Y0689527D01*
X0711413D01*
X0711417Y0689378D01*
D02*
G37*
G36*
X0806710Y0688136D02*
X0806626Y0688106D01*
X0806552Y0688056D01*
X0806488Y0687987D01*
X0806434Y0687897D01*
X0806390Y0687787D01*
X0806355Y0687658D01*
X0806331Y0687508D01*
X0806316Y0687339D01*
X0806311Y0687150D01*
X0805327D01*
X0805322Y0687339D01*
X0805307Y0687508D01*
X0805282Y0687658D01*
X0805248Y0687787D01*
X0805204Y0687897D01*
X0805150Y0687987D01*
X0805086Y0688056D01*
X0805012Y0688106D01*
X0804928Y0688136D01*
X0804835Y0688146D01*
X0806803D01*
X0806710Y0688136D01*
D02*
G37*
G36*
X0742290Y0687915D02*
X0742223Y0687844D01*
X0742163Y0687771D01*
X0742110Y0687697D01*
X0742065Y0687622D01*
X0742026Y0687546D01*
X0741995Y0687469D01*
X0741971Y0687390D01*
X0741954Y0687311D01*
X0741944Y0687230D01*
X0741941Y0687148D01*
X0740967Y0688122D01*
X0741049Y0688125D01*
X0741129Y0688135D01*
X0741209Y0688152D01*
X0741288Y0688176D01*
X0741365Y0688207D01*
X0741441Y0688246D01*
X0741516Y0688292D01*
X0741590Y0688344D01*
X0741662Y0688405D01*
X0741734Y0688472D01*
X0742290Y0687915D01*
D02*
G37*
G36*
X0740254Y0686449D02*
X0740194Y0686505D01*
X0740130Y0686555D01*
X0740061Y0686599D01*
X0739989Y0686638D01*
X0739912Y0686670D01*
X0739831Y0686697D01*
X0739745Y0686718D01*
X0739656Y0686732D01*
X0739562Y0686741D01*
X0739464Y0686744D01*
Y0687532D01*
X0739562Y0687535D01*
X0739656Y0687543D01*
X0739745Y0687558D01*
X0739831Y0687579D01*
X0739912Y0687605D01*
X0739989Y0687638D01*
X0740061Y0687676D01*
X0740130Y0687720D01*
X0740194Y0687771D01*
X0740254Y0687827D01*
Y0686449D01*
D02*
G37*
G36*
X0738283Y0687850D02*
X0738307Y0687783D01*
X0738347Y0687724D01*
X0738403Y0687673D01*
X0738475Y0687630D01*
X0738563Y0687595D01*
X0738667Y0687567D01*
X0738787Y0687547D01*
X0738923Y0687535D01*
X0739075Y0687532D01*
Y0686744D01*
X0738923Y0686740D01*
X0738787Y0686728D01*
X0738667Y0686709D01*
X0738563Y0686681D01*
X0738475Y0686646D01*
X0738403Y0686602D01*
X0738347Y0686551D01*
X0738307Y0686492D01*
X0738283Y0686425D01*
X0738275Y0686350D01*
Y0687925D01*
X0738283Y0687850D01*
D02*
G37*
G36*
X0734768Y0686350D02*
X0734760Y0686425D01*
X0734736Y0686492D01*
X0734697Y0686551D01*
X0734642Y0686602D01*
X0734571Y0686646D01*
X0734484Y0686681D01*
X0734382Y0686709D01*
X0734264Y0686728D01*
X0734130Y0686740D01*
X0733981Y0686744D01*
Y0687532D01*
X0734130Y0687535D01*
X0734264Y0687547D01*
X0734382Y0687567D01*
X0734484Y0687595D01*
X0734571Y0687630D01*
X0734642Y0687673D01*
X0734697Y0687724D01*
X0734736Y0687783D01*
X0734760Y0687850D01*
X0734768Y0687925D01*
Y0686350D01*
D02*
G37*
G36*
X0725669Y0687850D02*
X0725693Y0687783D01*
X0725733Y0687724D01*
X0725789Y0687673D01*
X0725861Y0687630D01*
X0725949Y0687595D01*
X0726053Y0687567D01*
X0726173Y0687547D01*
X0726308Y0687535D01*
X0726460Y0687532D01*
Y0686744D01*
X0726308Y0686740D01*
X0726173Y0686728D01*
X0726053Y0686709D01*
X0725949Y0686681D01*
X0725861Y0686646D01*
X0725789Y0686602D01*
X0725733Y0686551D01*
X0725693Y0686492D01*
X0725669Y0686425D01*
X0725661Y0686350D01*
Y0687925D01*
X0725669Y0687850D01*
D02*
G37*
G36*
X0806316Y0686543D02*
X0806331Y0686373D01*
X0806355Y0686224D01*
X0806390Y0686095D01*
X0806434Y0685985D01*
X0806488Y0685895D01*
X0806552Y0685825D01*
X0806626Y0685776D01*
X0806710Y0685746D01*
X0806803Y0685736D01*
X0804835D01*
X0804928Y0685746D01*
X0805012Y0685776D01*
X0805086Y0685825D01*
X0805150Y0685895D01*
X0805204Y0685985D01*
X0805248Y0686095D01*
X0805282Y0686224D01*
X0805307Y0686373D01*
X0805322Y0686543D01*
X0805327Y0686732D01*
X0806311D01*
X0806316Y0686543D01*
D02*
G37*
G36*
X0741590Y0686375D02*
X0741539Y0686311D01*
X0741495Y0686242D01*
X0741457Y0686170D01*
X0741424Y0686093D01*
X0741398Y0686012D01*
X0741377Y0685926D01*
X0741362Y0685837D01*
X0741353Y0685743D01*
X0741350Y0685645D01*
X0740563D01*
X0740560Y0685743D01*
X0740551Y0685837D01*
X0740536Y0685926D01*
X0740516Y0686012D01*
X0740489Y0686093D01*
X0740457Y0686170D01*
X0740418Y0686242D01*
X0740374Y0686311D01*
X0740324Y0686375D01*
X0740268Y0686435D01*
X0741646D01*
X0741590Y0686375D01*
D02*
G37*
G36*
X0813579Y0702377D02*
X0813308Y0702323D01*
X0812814Y0701993D01*
X0812027Y0701206D01*
X0811697Y0700712D01*
X0811581Y0700130D01*
Y0692453D01*
X0811697Y0691871D01*
X0812027Y0691377D01*
X0814979Y0688424D01*
X0814979Y0688424D01*
X0815473Y0688095D01*
X0816055Y0687979D01*
X0819371D01*
X0820035Y0687315D01*
Y0685677D01*
X0817535D01*
Y0685313D01*
X0817039D01*
X0817039Y0685313D01*
X0816457Y0685197D01*
X0815964Y0684867D01*
X0814294Y0683197D01*
X0813827Y0683118D01*
Y0683118D01*
X0809898D01*
Y0682754D01*
X0808000D01*
Y0684829D01*
X0809898D01*
Y0684465D01*
X0813827D01*
Y0688236D01*
X0809898D01*
Y0687872D01*
X0808000D01*
Y0692665D01*
X0808000D01*
Y0693126D01*
X0808000D01*
Y0698669D01*
X0808000D01*
Y0699130D01*
X0808000D01*
Y0701869D01*
X0808002Y0701873D01*
X0808055Y0701950D01*
X0808234Y0702165D01*
X0809008Y0702939D01*
X0813579D01*
Y0702377D01*
D02*
G37*
G36*
X0712795Y0686669D02*
X0712819Y0686602D01*
X0712859Y0686543D01*
X0712915Y0686492D01*
X0712987Y0686449D01*
X0713045Y0686425D01*
X0713118Y0686457D01*
X0713191Y0686495D01*
X0713260Y0686539D01*
X0713324Y0686590D01*
X0713384Y0686646D01*
Y0686359D01*
X0713435Y0686354D01*
X0713586Y0686350D01*
Y0685563D01*
X0713435Y0685559D01*
X0713384Y0685555D01*
Y0685268D01*
X0713324Y0685324D01*
X0713260Y0685374D01*
X0713191Y0685418D01*
X0713118Y0685457D01*
X0713045Y0685488D01*
X0712987Y0685465D01*
X0712915Y0685421D01*
X0712859Y0685370D01*
X0712819Y0685311D01*
X0712795Y0685244D01*
X0712787Y0685169D01*
Y0685551D01*
X0712786Y0685551D01*
X0712692Y0685560D01*
X0712594Y0685563D01*
Y0686350D01*
X0712692Y0686353D01*
X0712786Y0686362D01*
X0712787Y0686362D01*
Y0686744D01*
X0712795Y0686669D01*
D02*
G37*
G36*
X0744602Y0685596D02*
X0744614Y0685460D01*
X0744634Y0685340D01*
X0744661Y0685236D01*
X0744697Y0685148D01*
X0744740Y0685076D01*
X0744791Y0685020D01*
X0744850Y0684980D01*
X0744917Y0684956D01*
X0744992Y0684948D01*
X0743417D01*
X0743492Y0684956D01*
X0743559Y0684980D01*
X0743618Y0685020D01*
X0743669Y0685076D01*
X0743713Y0685148D01*
X0743748Y0685236D01*
X0743776Y0685340D01*
X0743795Y0685460D01*
X0743807Y0685596D01*
X0743811Y0685748D01*
X0744598D01*
X0744602Y0685596D01*
D02*
G37*
G36*
X0724606Y0683965D02*
X0724539Y0683941D01*
X0724480Y0683901D01*
X0724429Y0683845D01*
X0724386Y0683773D01*
X0724350Y0683685D01*
X0724323Y0683581D01*
X0724303Y0683461D01*
X0724291Y0683325D01*
X0724287Y0683173D01*
X0723500D01*
X0723496Y0683325D01*
X0723484Y0683461D01*
X0723465Y0683581D01*
X0723437Y0683685D01*
X0723402Y0683773D01*
X0723358Y0683845D01*
X0723307Y0683901D01*
X0723248Y0683941D01*
X0723181Y0683965D01*
X0723106Y0683973D01*
X0724681D01*
X0724606Y0683965D01*
D02*
G37*
G36*
X0806710Y0682219D02*
X0806626Y0682189D01*
X0806552Y0682140D01*
X0806488Y0682071D01*
X0806434Y0681983D01*
X0806390Y0681874D01*
X0806355Y0681746D01*
X0806331Y0681599D01*
X0806316Y0681431D01*
X0806311Y0681244D01*
X0805327D01*
X0805322Y0681431D01*
X0805307Y0681599D01*
X0805282Y0681746D01*
X0805248Y0681874D01*
X0805204Y0681983D01*
X0805150Y0682071D01*
X0805086Y0682140D01*
X0805012Y0682189D01*
X0804928Y0682219D01*
X0804835Y0682229D01*
X0806803D01*
X0806710Y0682219D01*
D02*
G37*
G36*
X0720378Y0684353D02*
X0720381Y0684255D01*
X0720389Y0684162D01*
X0720402Y0684071D01*
X0720421Y0683985D01*
X0720445Y0683902D01*
X0720474Y0683823D01*
X0720508Y0683747D01*
X0720548Y0683675D01*
X0720594Y0683607D01*
X0720644Y0683542D01*
X0720020Y0682905D01*
X0720644Y0682269D01*
X0720594Y0682204D01*
X0720548Y0682136D01*
X0720508Y0682064D01*
X0720474Y0681988D01*
X0720445Y0681909D01*
X0720421Y0681826D01*
X0720402Y0681740D01*
X0720389Y0681649D01*
X0720386Y0681617D01*
X0720394Y0681527D01*
X0720413Y0681409D01*
X0720441Y0681307D01*
X0720476Y0681220D01*
X0720520Y0681149D01*
X0720571Y0681094D01*
X0720630Y0681055D01*
X0720697Y0681031D01*
X0720772Y0681023D01*
X0719197D01*
X0719272Y0681031D01*
X0719339Y0681055D01*
X0719398Y0681094D01*
X0719449Y0681149D01*
X0719492Y0681220D01*
X0719528Y0681307D01*
X0719555Y0681409D01*
X0719575Y0681527D01*
X0719578Y0681566D01*
X0719578Y0681571D01*
X0719562Y0681659D01*
X0719540Y0681743D01*
X0719511Y0681822D01*
X0719476Y0681896D01*
X0719435Y0681965D01*
X0719387Y0682029D01*
X0719333Y0682088D01*
X0719272Y0682142D01*
X0720020Y0682905D01*
X0719272Y0683669D01*
X0719333Y0683723D01*
X0719387Y0683782D01*
X0719435Y0683846D01*
X0719476Y0683915D01*
X0719511Y0683989D01*
X0719540Y0684068D01*
X0719562Y0684152D01*
X0719578Y0684240D01*
X0719587Y0684334D01*
X0719591Y0684433D01*
X0720378Y0684353D01*
D02*
G37*
G36*
X0806316Y0680637D02*
X0806331Y0680468D01*
X0806355Y0680318D01*
X0806390Y0680189D01*
X0806434Y0680079D01*
X0806488Y0679990D01*
X0806552Y0679920D01*
X0806626Y0679870D01*
X0806710Y0679840D01*
X0806803Y0679830D01*
X0804835D01*
X0804928Y0679840D01*
X0805012Y0679870D01*
X0805086Y0679920D01*
X0805150Y0679990D01*
X0805204Y0680079D01*
X0805248Y0680189D01*
X0805282Y0680318D01*
X0805307Y0680468D01*
X0805322Y0680637D01*
X0805327Y0680827D01*
X0806311D01*
X0806316Y0680637D01*
D02*
G37*
G36*
X0814927Y0679406D02*
Y0671447D01*
X0814487Y0671212D01*
X0814369Y0671290D01*
X0813755Y0671413D01*
X0809843Y0675324D01*
X0809350Y0675654D01*
X0808768Y0675770D01*
X0808000D01*
Y0679711D01*
X0809898D01*
Y0679347D01*
X0813827D01*
Y0679711D01*
X0814480D01*
X0814541Y0679723D01*
X0814927Y0679406D01*
D02*
G37*
G36*
X0743535Y0678684D02*
X0743804Y0678461D01*
X0743926Y0678377D01*
X0744041Y0678312D01*
X0744149Y0678265D01*
X0744249Y0678238D01*
X0744341Y0678229D01*
X0744426Y0678239D01*
X0744503Y0678267D01*
X0743036Y0677508D01*
X0743096Y0677553D01*
X0743131Y0677613D01*
X0743140Y0677688D01*
X0743123Y0677777D01*
X0743080Y0677881D01*
X0743011Y0678000D01*
X0742917Y0678133D01*
X0742797Y0678281D01*
X0742479Y0678622D01*
X0743390Y0678824D01*
X0743535Y0678684D01*
D02*
G37*
G36*
X0820213Y0677792D02*
X0820146Y0677768D01*
X0820087Y0677729D01*
X0820035Y0677673D01*
X0819992Y0677603D01*
X0819957Y0677516D01*
X0819929Y0677414D01*
X0819909Y0677295D01*
X0819898Y0677162D01*
X0819894Y0677012D01*
X0819106D01*
X0819102Y0677162D01*
X0819090Y0677295D01*
X0819071Y0677414D01*
X0819043Y0677516D01*
X0819008Y0677603D01*
X0818965Y0677673D01*
X0818913Y0677729D01*
X0818854Y0677768D01*
X0818787Y0677792D01*
X0818713Y0677799D01*
X0820287D01*
X0820213Y0677792D01*
D02*
G37*
G36*
X0728981Y0678753D02*
X0728967Y0678675D01*
X0728973Y0678586D01*
X0729000Y0678489D01*
X0729047Y0678382D01*
X0729114Y0678266D01*
X0729201Y0678141D01*
X0729308Y0678006D01*
X0729584Y0677709D01*
X0729232Y0676947D01*
X0729060Y0677114D01*
X0728757Y0677373D01*
X0728626Y0677466D01*
X0728508Y0677535D01*
X0728403Y0677580D01*
X0728312Y0677601D01*
X0728234Y0677597D01*
X0728170Y0677569D01*
X0728119Y0677516D01*
X0729015Y0678822D01*
X0728981Y0678753D01*
D02*
G37*
G36*
X0795877Y0674973D02*
X0795854Y0674924D01*
X0795835Y0674868D01*
X0795818Y0674805D01*
X0795804Y0674734D01*
X0795783Y0674571D01*
X0795776Y0674478D01*
X0795771Y0674271D01*
X0794787Y0674046D01*
X0794784Y0674152D01*
X0794765Y0674340D01*
X0794749Y0674422D01*
X0794727Y0674496D01*
X0794701Y0674563D01*
X0794670Y0674622D01*
X0794634Y0674673D01*
X0794594Y0674716D01*
X0794549Y0674751D01*
X0795901Y0675015D01*
X0795877Y0674973D01*
D02*
G37*
G36*
X0710937Y0706081D02*
X0718477D01*
X0718964Y0706051D01*
X0718964Y0705581D01*
Y0698146D01*
X0726092D01*
X0727225Y0697013D01*
Y0695918D01*
X0727219Y0695815D01*
X0726866D01*
Y0694841D01*
X0726859Y0694803D01*
X0726866Y0694765D01*
Y0690272D01*
X0731228D01*
Y0694765D01*
X0731236Y0694803D01*
X0731228Y0694841D01*
Y0695815D01*
X0730883D01*
X0730870Y0695976D01*
Y0697768D01*
X0730870Y0697768D01*
X0730731Y0698465D01*
X0730336Y0699056D01*
X0730336Y0699056D01*
X0727580Y0701812D01*
X0726989Y0702207D01*
X0726870Y0702231D01*
X0726870Y0706051D01*
X0727358Y0706081D01*
X0807217D01*
X0807369Y0705581D01*
X0807302Y0705536D01*
X0806651Y0704885D01*
X0806468Y0704713D01*
X0806419Y0704673D01*
X0803638D01*
Y0699130D01*
X0803638D01*
Y0698669D01*
X0803638D01*
Y0693126D01*
X0803638D01*
Y0692665D01*
X0803638D01*
Y0687122D01*
X0803638D01*
Y0686760D01*
X0803638D01*
Y0681217D01*
X0803638D01*
Y0680854D01*
X0803638D01*
Y0675770D01*
X0799638D01*
X0799117Y0676117D01*
X0798343Y0676271D01*
X0797569Y0676117D01*
X0797446Y0676035D01*
X0796984Y0676226D01*
X0796960Y0676347D01*
X0796521Y0677003D01*
X0795865Y0677442D01*
X0795091Y0677596D01*
X0794316Y0677442D01*
X0793660Y0677003D01*
X0793221Y0676347D01*
X0793067Y0675573D01*
X0793221Y0674799D01*
X0793660Y0674142D01*
X0793757Y0674077D01*
Y0673810D01*
X0793873Y0673228D01*
X0794203Y0672734D01*
X0796242Y0670696D01*
X0796242Y0670696D01*
X0796735Y0670366D01*
X0797317Y0670251D01*
X0797317Y0670251D01*
X0805509D01*
X0809890Y0665869D01*
X0809890Y0665869D01*
X0810384Y0665539D01*
X0810966Y0665423D01*
X0810966Y0665423D01*
X0812662D01*
X0812908Y0664923D01*
X0812675Y0664619D01*
X0812376Y0663897D01*
X0812274Y0663122D01*
X0812376Y0662347D01*
X0812675Y0661625D01*
X0813151Y0661005D01*
X0813183Y0660980D01*
X0813013Y0660480D01*
X0812496D01*
Y0659486D01*
X0811732D01*
Y0659614D01*
X0810797D01*
X0810772Y0659620D01*
X0810746Y0659617D01*
X0810720Y0659622D01*
X0810682Y0659614D01*
X0803504D01*
Y0661979D01*
X0803890Y0662296D01*
X0803953Y0662284D01*
X0804728Y0662438D01*
X0805384Y0662876D01*
X0805823Y0663533D01*
X0805977Y0664307D01*
X0805823Y0665081D01*
X0805384Y0665737D01*
X0804728Y0666176D01*
X0803953Y0666330D01*
X0803179Y0666176D01*
X0803081Y0666110D01*
X0802536D01*
X0802499Y0666118D01*
X0802459Y0666110D01*
X0783992D01*
Y0666291D01*
X0783884Y0666835D01*
X0783684Y0667134D01*
X0783902Y0667634D01*
X0784181D01*
Y0671996D01*
X0778638D01*
Y0667634D01*
X0779988D01*
Y0667453D01*
X0780097Y0666909D01*
X0780405Y0666448D01*
X0780405Y0666447D01*
X0780408Y0666445D01*
X0780638Y0666110D01*
Y0657417D01*
X0784372D01*
X0784966Y0657021D01*
X0785740Y0656867D01*
X0786514Y0657021D01*
X0787108Y0657417D01*
X0787620D01*
X0788214Y0657021D01*
X0788988Y0656867D01*
X0789762Y0657021D01*
X0790356Y0657417D01*
X0796224D01*
X0796308Y0657315D01*
X0796462Y0656541D01*
X0796900Y0655884D01*
X0797556Y0655446D01*
X0798331Y0655292D01*
X0799105Y0655446D01*
X0799761Y0655884D01*
X0800200Y0656541D01*
X0800354Y0657315D01*
X0800438Y0657417D01*
X0803039D01*
Y0652496D01*
Y0649307D01*
Y0646197D01*
Y0643047D01*
Y0639858D01*
X0803047D01*
Y0637547D01*
X0803047D01*
Y0633579D01*
X0803047D01*
Y0630429D01*
X0811740D01*
Y0634398D01*
X0811740D01*
Y0636728D01*
X0811740D01*
Y0640697D01*
X0811732D01*
Y0642785D01*
X0811907Y0642908D01*
X0812398Y0642929D01*
Y0642929D01*
X0813371D01*
X0813410Y0642922D01*
X0813448Y0642929D01*
X0816891D01*
X0816929Y0642922D01*
X0816967Y0642929D01*
X0817941D01*
Y0643275D01*
X0818102Y0643288D01*
X0819598D01*
X0819598Y0643288D01*
X0820296Y0643427D01*
X0820887Y0643822D01*
X0822462Y0645396D01*
X0822462Y0645396D01*
X0822857Y0645988D01*
X0822996Y0646685D01*
X0822996Y0646685D01*
Y0649992D01*
X0823004Y0650092D01*
X0823024Y0650213D01*
X0823581D01*
Y0593437D01*
X0823594Y0593371D01*
X0823422Y0592506D01*
X0822894Y0591716D01*
X0822105Y0591188D01*
X0821239Y0591016D01*
X0821173Y0591029D01*
X0729850D01*
Y0594868D01*
X0737398D01*
X0737919Y0594521D01*
X0738693Y0594367D01*
X0739467Y0594521D01*
X0740124Y0594959D01*
X0740562Y0595615D01*
X0740716Y0596390D01*
X0740865Y0596571D01*
X0745992D01*
Y0598118D01*
X0746468D01*
X0747012Y0598226D01*
X0747331Y0598439D01*
X0747738Y0598275D01*
X0747831Y0598185D01*
Y0597949D01*
X0751210D01*
X0751249Y0597941D01*
X0751287Y0597949D01*
X0751344D01*
X0751475Y0597838D01*
X0753835Y0595479D01*
Y0595436D01*
X0753827Y0595399D01*
X0753833Y0595366D01*
X0753829Y0595333D01*
X0753835Y0595311D01*
Y0592043D01*
X0759378D01*
Y0594874D01*
X0759405Y0595012D01*
Y0596561D01*
X0760377Y0597532D01*
X0760684Y0597993D01*
X0760793Y0598537D01*
Y0602499D01*
X0760684Y0603043D01*
X0760377Y0603504D01*
X0755370Y0608511D01*
Y0615524D01*
X0755379Y0615530D01*
X0755818Y0616186D01*
X0755972Y0616961D01*
X0755917Y0617239D01*
X0756531Y0617853D01*
X0756839Y0618314D01*
X0756947Y0618857D01*
X0756947Y0618857D01*
Y0620742D01*
X0756956Y0620748D01*
X0757125Y0621000D01*
X0764850D01*
Y0614484D01*
X0768571D01*
Y0605051D01*
X0768679Y0604507D01*
X0768987Y0604046D01*
X0778107Y0594927D01*
X0778216Y0594809D01*
X0778244Y0594774D01*
Y0594712D01*
X0778236Y0594674D01*
X0778244Y0594635D01*
Y0591650D01*
X0783394D01*
Y0596799D01*
X0780408D01*
X0780370Y0596807D01*
X0780332Y0596799D01*
X0780274D01*
X0780143Y0596910D01*
X0779369Y0597684D01*
X0779561Y0598146D01*
X0783394D01*
Y0603295D01*
X0778244D01*
Y0602809D01*
X0777782Y0602617D01*
X0774563Y0605837D01*
Y0614484D01*
X0775126D01*
Y0614484D01*
X0777457D01*
Y0614484D01*
X0781170D01*
Y0613583D01*
X0781169Y0613580D01*
X0781165Y0613559D01*
X0781160Y0613544D01*
X0781157Y0613534D01*
X0781154Y0613528D01*
X0781152Y0613524D01*
X0781150Y0613522D01*
X0781124Y0613488D01*
X0781083Y0613404D01*
X0780824Y0613015D01*
X0780669Y0612241D01*
X0780727Y0611952D01*
X0780306Y0611778D01*
X0779686Y0611302D01*
X0779210Y0610682D01*
X0778911Y0609960D01*
X0778809Y0609185D01*
X0778911Y0608410D01*
X0779210Y0607688D01*
X0779686Y0607068D01*
X0780306Y0606592D01*
X0781028Y0606293D01*
X0781803Y0606191D01*
X0782578Y0606293D01*
X0783300Y0606592D01*
X0783920Y0607068D01*
X0784396Y0607688D01*
X0784485Y0607903D01*
X0785027D01*
X0785116Y0607688D01*
X0785592Y0607068D01*
X0786212Y0606592D01*
X0786934Y0606293D01*
X0787709Y0606191D01*
X0788484Y0606293D01*
X0789206Y0606592D01*
X0789826Y0607068D01*
X0790302Y0607688D01*
X0790601Y0608410D01*
X0790703Y0609185D01*
X0790601Y0609960D01*
X0790302Y0610682D01*
X0789826Y0611302D01*
X0789206Y0611778D01*
X0788484Y0612077D01*
X0788280Y0612104D01*
X0788280Y0612104D01*
X0788266Y0612112D01*
X0788248Y0612118D01*
X0788230Y0612126D01*
X0788229Y0612126D01*
X0788222Y0612130D01*
X0788190Y0612150D01*
X0788161Y0612171D01*
X0787992Y0612314D01*
X0787761Y0612545D01*
X0787763Y0612557D01*
X0787609Y0613331D01*
X0787171Y0613987D01*
X0787161Y0613994D01*
Y0614484D01*
X0787724D01*
Y0614488D01*
X0790055D01*
Y0614488D01*
X0793205D01*
Y0614484D01*
X0796945D01*
Y0612557D01*
X0796434Y0612046D01*
X0796358Y0612077D01*
X0795583Y0612179D01*
X0794808Y0612077D01*
X0794086Y0611778D01*
X0793466Y0611302D01*
X0792990Y0610682D01*
X0792691Y0609960D01*
X0792589Y0609185D01*
X0792691Y0608410D01*
X0792990Y0607688D01*
X0793466Y0607068D01*
X0794086Y0606592D01*
X0794808Y0606293D01*
X0795583Y0606191D01*
X0796358Y0606293D01*
X0797080Y0606592D01*
X0797700Y0607068D01*
X0798176Y0607688D01*
X0798265Y0607903D01*
X0798806D01*
X0798895Y0607688D01*
X0799371Y0607068D01*
X0799991Y0606592D01*
X0800713Y0606293D01*
X0801488Y0606191D01*
X0802263Y0606293D01*
X0802985Y0606592D01*
X0803605Y0607068D01*
X0804081Y0607688D01*
X0804380Y0608410D01*
X0804482Y0609185D01*
X0804380Y0609960D01*
X0804081Y0610682D01*
X0803605Y0611302D01*
X0803346Y0611501D01*
X0803452Y0611659D01*
X0803606Y0612433D01*
X0803452Y0613207D01*
X0803013Y0613864D01*
X0803004Y0613870D01*
Y0614484D01*
X0803661D01*
Y0623177D01*
X0799693D01*
Y0623177D01*
X0794024D01*
Y0623181D01*
X0790874D01*
Y0623181D01*
X0786905D01*
Y0623177D01*
X0780606D01*
Y0623177D01*
X0778276D01*
Y0623177D01*
X0774307D01*
Y0623177D01*
X0765276D01*
Y0627299D01*
Y0630409D01*
Y0633559D01*
Y0637528D01*
X0756583D01*
Y0633559D01*
Y0630409D01*
Y0627299D01*
Y0624461D01*
X0756525Y0624377D01*
X0756095Y0624092D01*
X0756083Y0624091D01*
X0755526Y0624202D01*
X0754752Y0624048D01*
X0754649Y0623979D01*
X0754208Y0624215D01*
Y0629284D01*
Y0639801D01*
X0754240Y0639807D01*
X0754385Y0639819D01*
X0760929D01*
X0761125Y0639858D01*
X0765276D01*
Y0643008D01*
Y0646158D01*
Y0650126D01*
X0761125D01*
X0760929Y0650165D01*
X0756488D01*
X0755714Y0650011D01*
X0755058Y0649572D01*
X0753798Y0648312D01*
X0753359Y0647656D01*
X0753205Y0646882D01*
Y0644513D01*
X0753174Y0644338D01*
X0753127Y0644197D01*
X0753078Y0644105D01*
X0753027Y0644043D01*
X0752966Y0643993D01*
X0752874Y0643943D01*
X0752733Y0643896D01*
X0752558Y0643866D01*
X0752276D01*
X0752079Y0643827D01*
X0752076D01*
X0752072Y0643825D01*
X0751501Y0643712D01*
X0750845Y0643273D01*
X0750823Y0643240D01*
X0749504D01*
Y0641359D01*
X0749343Y0640551D01*
X0749359Y0640472D01*
Y0629284D01*
Y0622689D01*
X0749504Y0621960D01*
Y0620869D01*
X0749496Y0620831D01*
X0749504Y0620793D01*
Y0620289D01*
X0749351Y0619520D01*
X0749505Y0618746D01*
X0749752Y0618375D01*
X0749752Y0618373D01*
Y0607232D01*
X0749876Y0606612D01*
X0750227Y0606086D01*
X0752460Y0603852D01*
X0752572Y0603293D01*
X0752894Y0602811D01*
X0752666Y0602311D01*
X0747831D01*
Y0601551D01*
X0747059D01*
X0746515Y0601443D01*
X0746492Y0601427D01*
X0745992Y0601695D01*
Y0602508D01*
X0740449D01*
Y0600960D01*
X0733081D01*
X0729658Y0604383D01*
X0729197Y0604691D01*
X0728653Y0604799D01*
X0722752D01*
X0722545Y0605299D01*
X0741129Y0623883D01*
X0741496Y0624193D01*
X0742153Y0623755D01*
X0742927Y0623601D01*
X0743701Y0623755D01*
X0744357Y0624193D01*
X0744796Y0624850D01*
X0744950Y0625624D01*
X0744796Y0626398D01*
X0744357Y0627054D01*
X0743701Y0627493D01*
X0742927Y0627647D01*
X0742153Y0627493D01*
X0741496Y0627054D01*
X0741490Y0627045D01*
X0740860D01*
X0740316Y0626937D01*
X0739855Y0626629D01*
X0720689Y0607462D01*
X0717087D01*
X0717036Y0607452D01*
X0716649Y0607769D01*
Y0611070D01*
X0717033Y0611235D01*
X0717149Y0611254D01*
X0717740Y0610801D01*
X0718458Y0610503D01*
X0719228Y0610402D01*
X0719999Y0610503D01*
X0720716Y0610801D01*
X0721333Y0611273D01*
X0721806Y0611890D01*
X0722103Y0612608D01*
X0722205Y0613378D01*
X0722103Y0614148D01*
X0721806Y0614866D01*
X0721333Y0615483D01*
X0721161Y0615614D01*
X0721331Y0616114D01*
X0727670D01*
X0728214Y0616223D01*
X0728675Y0616531D01*
X0740469Y0628325D01*
X0740777Y0628786D01*
X0740886Y0629330D01*
Y0629687D01*
X0741208Y0629902D01*
X0741646Y0630558D01*
X0741800Y0631333D01*
X0741646Y0632107D01*
X0741208Y0632763D01*
X0740551Y0633202D01*
X0739777Y0633356D01*
X0739003Y0633202D01*
X0738347Y0632763D01*
X0737908Y0632107D01*
X0737754Y0631333D01*
X0737908Y0630558D01*
X0737978Y0630454D01*
X0737979Y0630449D01*
X0737999Y0630407D01*
X0738006Y0630389D01*
X0738014Y0630366D01*
X0738018Y0630350D01*
X0738038Y0630255D01*
X0738041Y0630233D01*
X0738044Y0630198D01*
Y0629919D01*
X0727081Y0618956D01*
X0718656D01*
X0718112Y0618848D01*
X0717651Y0618540D01*
X0714223Y0615113D01*
X0714220Y0615107D01*
X0713620Y0615109D01*
X0713333Y0615483D01*
X0712716Y0615955D01*
X0711999Y0616253D01*
X0711228Y0616354D01*
X0710458Y0616253D01*
X0709740Y0615955D01*
X0709124Y0615483D01*
X0709029Y0615359D01*
X0708529Y0615529D01*
Y0621945D01*
X0727913D01*
X0728304Y0622023D01*
X0728634Y0622244D01*
X0728855Y0622574D01*
X0728933Y0622965D01*
Y0641650D01*
X0728855Y0642040D01*
X0728634Y0642371D01*
X0728304Y0642592D01*
X0727913Y0642669D01*
X0722374D01*
Y0644209D01*
X0728866D01*
Y0646093D01*
X0729328Y0646284D01*
X0729834Y0645779D01*
X0730295Y0645471D01*
X0730409Y0645448D01*
Y0643815D01*
X0737134D01*
Y0648177D01*
X0733121D01*
X0732984Y0648205D01*
X0731427D01*
X0730072Y0649560D01*
X0729968Y0649629D01*
Y0650231D01*
X0730052Y0650286D01*
X0731034Y0651268D01*
X0732984D01*
X0733121Y0651295D01*
X0737075D01*
Y0650524D01*
X0737183Y0649980D01*
X0737491Y0649519D01*
X0738279Y0648731D01*
X0738740Y0648423D01*
X0739284Y0648315D01*
X0739465D01*
Y0643815D01*
X0746189D01*
Y0644574D01*
X0746794Y0644695D01*
X0747320Y0645046D01*
X0749092Y0646818D01*
X0749443Y0647344D01*
X0749567Y0647965D01*
Y0654854D01*
X0749443Y0655475D01*
X0749092Y0656001D01*
X0748747Y0656345D01*
X0748939Y0656807D01*
X0750913D01*
Y0657207D01*
X0751375Y0657398D01*
X0755440Y0653334D01*
X0755966Y0652982D01*
X0756583Y0652859D01*
Y0652496D01*
X0757556D01*
X0757595Y0652489D01*
X0757633Y0652496D01*
X0765276D01*
Y0657417D01*
X0778307D01*
Y0666110D01*
X0777744D01*
Y0668012D01*
X0777636Y0668556D01*
X0777328Y0669017D01*
X0776983Y0669361D01*
X0776898Y0669457D01*
Y0672980D01*
X0772535D01*
Y0667437D01*
X0774870D01*
X0774902Y0667410D01*
Y0666110D01*
X0768256D01*
Y0667053D01*
X0768502Y0667300D01*
X0768620Y0667409D01*
X0768655Y0667437D01*
X0768717D01*
X0768755Y0667429D01*
X0768794Y0667437D01*
X0770992D01*
Y0672980D01*
X0766630D01*
Y0669601D01*
X0766622Y0669563D01*
X0766630Y0669524D01*
Y0669467D01*
X0766519Y0669336D01*
X0765830Y0668646D01*
X0765522Y0668186D01*
X0765414Y0667642D01*
Y0666110D01*
X0764850D01*
Y0659614D01*
X0757683D01*
X0751278Y0666019D01*
X0751228Y0666078D01*
X0751140Y0666195D01*
X0751069Y0666303D01*
X0751013Y0666403D01*
X0750972Y0666493D01*
X0750943Y0666574D01*
X0750924Y0666648D01*
X0750914Y0666714D01*
X0750913Y0666721D01*
Y0668453D01*
X0746551D01*
Y0664903D01*
X0746089Y0664712D01*
X0745307Y0665495D01*
X0745225Y0665588D01*
X0745109Y0665734D01*
X0745026Y0665855D01*
X0745008Y0665887D01*
Y0668453D01*
X0740646D01*
Y0662909D01*
X0742820D01*
X0742861Y0662850D01*
X0742600Y0662350D01*
X0740646D01*
Y0657934D01*
X0740644Y0657928D01*
X0740646Y0657908D01*
Y0657857D01*
X0740638Y0657819D01*
X0740646Y0657781D01*
Y0656807D01*
X0741205D01*
Y0655657D01*
X0739917D01*
Y0665681D01*
X0739809Y0666225D01*
X0739501Y0666686D01*
X0737074Y0669113D01*
X0736965Y0669230D01*
X0736937Y0669265D01*
Y0669327D01*
X0736945Y0669366D01*
X0736937Y0669404D01*
Y0671602D01*
X0736460D01*
X0736095Y0672102D01*
X0736189Y0672571D01*
X0736186Y0672582D01*
X0737489Y0673885D01*
X0737521Y0673933D01*
X0739299D01*
Y0678295D01*
X0733756D01*
Y0675643D01*
X0733294Y0675452D01*
X0730181Y0678565D01*
X0730082Y0678672D01*
X0730039Y0678725D01*
Y0682035D01*
X0725315D01*
Y0682949D01*
X0726685D01*
Y0685717D01*
X0733756D01*
Y0684957D01*
X0739299D01*
X0739536Y0684555D01*
Y0680700D01*
X0739644Y0680157D01*
X0739952Y0679696D01*
X0741901Y0677746D01*
X0742024Y0677615D01*
Y0677457D01*
X0742020Y0677422D01*
X0742024Y0677408D01*
Y0673736D01*
X0746386D01*
Y0679280D01*
X0744570D01*
X0744542Y0679286D01*
X0744499Y0679280D01*
X0744452D01*
X0744417Y0679283D01*
X0744411Y0679282D01*
X0744256Y0679411D01*
X0743700Y0679967D01*
X0743891Y0680429D01*
X0746386D01*
Y0685972D01*
X0745626D01*
Y0686925D01*
X0745697D01*
Y0691681D01*
X0740744D01*
Y0689119D01*
X0740182Y0689007D01*
X0739799Y0688751D01*
X0739299Y0689018D01*
Y0689319D01*
X0733756D01*
Y0688559D01*
X0726685D01*
Y0689752D01*
X0723719D01*
X0723459Y0690252D01*
X0723473Y0690272D01*
X0725323D01*
Y0695815D01*
X0720961D01*
Y0692435D01*
X0720953Y0692397D01*
X0720961Y0692359D01*
Y0692301D01*
X0720850Y0692171D01*
X0718980Y0690300D01*
X0718671Y0689839D01*
X0718563Y0689295D01*
Y0684403D01*
X0718463Y0684336D01*
X0718025Y0683680D01*
X0717871Y0682905D01*
X0717944Y0682535D01*
X0717534Y0682035D01*
X0717410D01*
Y0676492D01*
X0722473D01*
Y0674161D01*
X0721150D01*
Y0669260D01*
X0708529D01*
Y0682949D01*
X0713811D01*
Y0683707D01*
X0714087Y0683934D01*
X0714861Y0684088D01*
X0715517Y0684526D01*
X0715956Y0685183D01*
X0716110Y0685957D01*
X0715956Y0686731D01*
X0715517Y0687387D01*
X0714861Y0687826D01*
X0714087Y0687980D01*
X0713811Y0688206D01*
Y0689752D01*
X0712441D01*
Y0690272D01*
X0713512D01*
Y0695815D01*
X0709150D01*
Y0690272D01*
X0709599D01*
Y0689752D01*
X0708529D01*
Y0703673D01*
X0708516Y0703739D01*
X0708688Y0704605D01*
X0709216Y0705394D01*
X0710006Y0705922D01*
X0710871Y0706094D01*
X0710937Y0706081D01*
D02*
G37*
G36*
X0799088Y0674900D02*
X0799137Y0674866D01*
X0799194Y0674837D01*
X0799257Y0674811D01*
X0799327Y0674790D01*
X0799405Y0674772D01*
X0799490Y0674758D01*
X0799581Y0674748D01*
X0799786Y0674740D01*
Y0673756D01*
X0799680Y0673754D01*
X0799490Y0673738D01*
X0799405Y0673725D01*
X0799327Y0673707D01*
X0799257Y0673685D01*
X0799194Y0673660D01*
X0799137Y0673630D01*
X0799088Y0673597D01*
X0799046Y0673559D01*
Y0674937D01*
X0799088Y0674900D01*
D02*
G37*
G36*
X0724291Y0673787D02*
X0724303Y0673653D01*
X0724323Y0673535D01*
X0724350Y0673433D01*
X0724386Y0673346D01*
X0724429Y0673275D01*
X0724480Y0673220D01*
X0724539Y0673181D01*
X0724606Y0673157D01*
X0724681Y0673149D01*
X0723106D01*
X0723181Y0673157D01*
X0723248Y0673181D01*
X0723307Y0673220D01*
X0723358Y0673275D01*
X0723402Y0673346D01*
X0723437Y0673433D01*
X0723465Y0673535D01*
X0723484Y0673653D01*
X0723496Y0673787D01*
X0723500Y0673937D01*
X0724287D01*
X0724291Y0673787D01*
D02*
G37*
G36*
X0735499Y0673348D02*
X0735432Y0673277D01*
X0735372Y0673204D01*
X0735319Y0673130D01*
X0735273Y0673055D01*
X0735235Y0672979D01*
X0735204Y0672902D01*
X0735179Y0672823D01*
X0735162Y0672744D01*
X0735152Y0672663D01*
X0735149Y0672581D01*
X0734175Y0673555D01*
X0734257Y0673558D01*
X0734338Y0673568D01*
X0734418Y0673585D01*
X0734496Y0673609D01*
X0734574Y0673640D01*
X0734650Y0673679D01*
X0734725Y0673725D01*
X0734798Y0673777D01*
X0734871Y0673838D01*
X0734942Y0673905D01*
X0735499Y0673348D01*
D02*
G37*
G36*
X0733460Y0673838D02*
X0733532Y0673777D01*
X0733606Y0673725D01*
X0733681Y0673679D01*
X0733757Y0673640D01*
X0733834Y0673609D01*
X0733913Y0673585D01*
X0733992Y0673568D01*
X0734073Y0673558D01*
X0734156Y0673555D01*
X0733181Y0672581D01*
X0733178Y0672663D01*
X0733169Y0672744D01*
X0733151Y0672823D01*
X0733127Y0672902D01*
X0733096Y0672979D01*
X0733057Y0673055D01*
X0733012Y0673130D01*
X0732959Y0673204D01*
X0732899Y0673277D01*
X0732831Y0673348D01*
X0733388Y0673905D01*
X0733460Y0673838D01*
D02*
G37*
G36*
X0734798Y0671808D02*
X0734748Y0671744D01*
X0734704Y0671675D01*
X0734665Y0671603D01*
X0734633Y0671526D01*
X0734606Y0671445D01*
X0734586Y0671359D01*
X0734571Y0671270D01*
X0734565Y0671205D01*
X0734575Y0671090D01*
X0734594Y0670970D01*
X0734622Y0670866D01*
X0734657Y0670778D01*
X0734701Y0670706D01*
X0734752Y0670650D01*
X0734811Y0670610D01*
X0734878Y0670586D01*
X0734953Y0670578D01*
X0733378D01*
X0733453Y0670586D01*
X0733520Y0670610D01*
X0733579Y0670650D01*
X0733630Y0670706D01*
X0733673Y0670778D01*
X0733709Y0670866D01*
X0733736Y0670970D01*
X0733756Y0671090D01*
X0733766Y0671205D01*
X0733760Y0671270D01*
X0733745Y0671359D01*
X0733724Y0671445D01*
X0733698Y0671526D01*
X0733665Y0671603D01*
X0733627Y0671675D01*
X0733583Y0671744D01*
X0733532Y0671808D01*
X0733476Y0671868D01*
X0734854D01*
X0734798Y0671808D01*
D02*
G37*
G36*
X0819897Y0670422D02*
X0819905Y0670329D01*
X0819920Y0670239D01*
X0819941Y0670154D01*
X0819967Y0670073D01*
X0820000Y0669996D01*
X0820038Y0669923D01*
X0820083Y0669855D01*
X0820133Y0669790D01*
X0820189Y0669731D01*
X0818811D01*
X0818867Y0669790D01*
X0818917Y0669855D01*
X0818962Y0669923D01*
X0819000Y0669996D01*
X0819032Y0670073D01*
X0819059Y0670154D01*
X0819080Y0670239D01*
X0819094Y0670329D01*
X0819103Y0670422D01*
X0819106Y0670520D01*
X0819894D01*
X0819897Y0670422D01*
D02*
G37*
G36*
X0812998Y0670716D02*
X0813144Y0670592D01*
X0813214Y0670542D01*
X0813281Y0670500D01*
X0813346Y0670466D01*
X0813409Y0670439D01*
X0813470Y0670420D01*
X0813528Y0670409D01*
X0813585Y0670405D01*
X0812610Y0669431D01*
X0812607Y0669487D01*
X0812596Y0669546D01*
X0812577Y0669606D01*
X0812550Y0669669D01*
X0812516Y0669734D01*
X0812473Y0669802D01*
X0812423Y0669872D01*
X0812365Y0669943D01*
X0812226Y0670094D01*
X0812922Y0670789D01*
X0812998Y0670716D01*
D02*
G37*
G36*
X0768755Y0668449D02*
X0768694Y0668494D01*
X0768622Y0668516D01*
X0768538D01*
X0768444Y0668494D01*
X0768338Y0668449D01*
X0768221Y0668382D01*
X0768093Y0668293D01*
X0767954Y0668182D01*
X0767642Y0667892D01*
X0767085Y0668449D01*
X0767241Y0668610D01*
X0767486Y0668900D01*
X0767575Y0669028D01*
X0767642Y0669145D01*
X0767687Y0669251D01*
X0767709Y0669345D01*
Y0669429D01*
X0767687Y0669501D01*
X0767642Y0669563D01*
X0768755Y0668449D01*
D02*
G37*
G36*
X0775863Y0669286D02*
X0775857Y0669238D01*
X0775869Y0669178D01*
X0775899Y0669107D01*
X0775945Y0669025D01*
X0776010Y0668932D01*
X0776092Y0668828D01*
X0776308Y0668587D01*
X0776442Y0668449D01*
X0775886Y0667892D01*
X0775748Y0668027D01*
X0775402Y0668325D01*
X0775309Y0668389D01*
X0775227Y0668436D01*
X0775157Y0668466D01*
X0775097Y0668478D01*
X0775048Y0668472D01*
X0775011Y0668449D01*
X0775886Y0669323D01*
X0775863Y0669286D01*
D02*
G37*
G36*
X0782122Y0668650D02*
X0782055Y0668626D01*
X0781996Y0668586D01*
X0781945Y0668530D01*
X0781902Y0668458D01*
X0781866Y0668370D01*
X0781839Y0668266D01*
X0781819Y0668146D01*
X0781807Y0668010D01*
X0781803Y0667859D01*
X0781016D01*
X0781012Y0668010D01*
X0781000Y0668146D01*
X0780980Y0668266D01*
X0780953Y0668370D01*
X0780917Y0668458D01*
X0780874Y0668530D01*
X0780823Y0668586D01*
X0780764Y0668626D01*
X0780697Y0668650D01*
X0780622Y0668658D01*
X0782197D01*
X0782122Y0668650D01*
D02*
G37*
G36*
X0735881Y0669305D02*
X0735858Y0669232D01*
Y0669149D01*
X0735881Y0669054D01*
X0735925Y0668948D01*
X0735992Y0668831D01*
X0736081Y0668703D01*
X0736192Y0668564D01*
X0736482Y0668252D01*
X0735925Y0667695D01*
X0735764Y0667851D01*
X0735474Y0668096D01*
X0735346Y0668185D01*
X0735229Y0668252D01*
X0735123Y0668297D01*
X0735029Y0668319D01*
X0734945D01*
X0734873Y0668297D01*
X0734811Y0668252D01*
X0735925Y0669366D01*
X0735881Y0669305D01*
D02*
G37*
G36*
X0782969Y0665734D02*
X0782980Y0665598D01*
X0783000Y0665478D01*
X0783028Y0665374D01*
X0783063Y0665286D01*
X0783106Y0665214D01*
X0783157Y0665158D01*
X0783217Y0665118D01*
X0783284Y0665094D01*
X0783358Y0665086D01*
X0781783D01*
X0781858Y0665094D01*
X0781925Y0665118D01*
X0781984Y0665158D01*
X0782035Y0665214D01*
X0782079Y0665286D01*
X0782114Y0665374D01*
X0782142Y0665478D01*
X0782161Y0665598D01*
X0782173Y0665734D01*
X0782177Y0665886D01*
X0782965D01*
X0782969Y0665734D01*
D02*
G37*
G36*
X0776721D02*
X0776732Y0665598D01*
X0776752Y0665478D01*
X0776780Y0665374D01*
X0776815Y0665286D01*
X0776858Y0665214D01*
X0776909Y0665158D01*
X0776968Y0665118D01*
X0777035Y0665094D01*
X0777110Y0665086D01*
X0775535D01*
X0775610Y0665094D01*
X0775677Y0665118D01*
X0775736Y0665158D01*
X0775787Y0665214D01*
X0775831Y0665286D01*
X0775866Y0665374D01*
X0775894Y0665478D01*
X0775913Y0665598D01*
X0775925Y0665734D01*
X0775929Y0665886D01*
X0776717D01*
X0776721Y0665734D01*
D02*
G37*
G36*
X0767232D02*
X0767244Y0665598D01*
X0767264Y0665478D01*
X0767291Y0665374D01*
X0767327Y0665286D01*
X0767370Y0665214D01*
X0767421Y0665158D01*
X0767480Y0665118D01*
X0767547Y0665094D01*
X0767622Y0665086D01*
X0766047D01*
X0766122Y0665094D01*
X0766189Y0665118D01*
X0766248Y0665158D01*
X0766299Y0665214D01*
X0766342Y0665286D01*
X0766378Y0665374D01*
X0766405Y0665478D01*
X0766425Y0665598D01*
X0766437Y0665734D01*
X0766441Y0665886D01*
X0767228D01*
X0767232Y0665734D01*
D02*
G37*
G36*
X0821866Y0665615D02*
X0821878Y0665485D01*
X0821898Y0665366D01*
X0821926Y0665259D01*
X0821962Y0665164D01*
X0822007Y0665080D01*
X0822059Y0665009D01*
X0822119Y0664949D01*
X0822187Y0664901D01*
X0822263Y0664865D01*
X0820690Y0664786D01*
X0820763Y0664830D01*
X0820829Y0664885D01*
X0820886Y0664950D01*
X0820936Y0665027D01*
X0820979Y0665114D01*
X0821013Y0665213D01*
X0821040Y0665323D01*
X0821059Y0665443D01*
X0821071Y0665575D01*
X0821075Y0665717D01*
X0821862Y0665757D01*
X0821866Y0665615D01*
D02*
G37*
G36*
X0816710Y0665640D02*
X0816588Y0665512D01*
X0816487Y0665392D01*
X0816406Y0665281D01*
X0816346Y0665177D01*
X0816306Y0665082D01*
X0816286Y0664994D01*
X0816286Y0664915D01*
X0816307Y0664844D01*
X0816348Y0664780D01*
X0816410Y0664725D01*
X0814451Y0664913D01*
X0814511Y0664946D01*
X0814587Y0664999D01*
X0814681Y0665072D01*
X0815062Y0665406D01*
X0815804Y0666125D01*
X0816710Y0665640D01*
D02*
G37*
G36*
X0802502Y0665041D02*
X0802531Y0664991D01*
X0802581Y0664946D01*
X0802649Y0664907D01*
X0802738Y0664874D01*
X0802846Y0664847D01*
X0802915Y0664836D01*
X0802969Y0664848D01*
X0803040Y0664870D01*
X0803103Y0664895D01*
X0803159Y0664925D01*
X0803209Y0664958D01*
X0803251Y0664996D01*
Y0664807D01*
X0803476Y0664799D01*
Y0663815D01*
X0803288Y0663810D01*
X0803251Y0663806D01*
Y0663618D01*
X0803209Y0663655D01*
X0803159Y0663689D01*
X0803103Y0663718D01*
X0803040Y0663744D01*
X0802969Y0663765D01*
X0802959Y0663768D01*
X0802840Y0663736D01*
X0802731Y0663692D01*
X0802641Y0663637D01*
X0802571Y0663574D01*
X0802521Y0663500D01*
X0802491Y0663416D01*
X0802480Y0663322D01*
X0802492Y0665098D01*
X0802502Y0665041D01*
D02*
G37*
G36*
X0749898Y0666607D02*
X0749924Y0666441D01*
X0749967Y0666275D01*
X0750027Y0666109D01*
X0750103Y0665942D01*
X0750196Y0665775D01*
X0750306Y0665607D01*
X0750433Y0665439D01*
X0750576Y0665271D01*
X0750737Y0665102D01*
Y0663432D01*
X0750640Y0663525D01*
X0750456Y0663682D01*
X0750368Y0663745D01*
X0750283Y0663799D01*
X0750201Y0663843D01*
X0750122Y0663877D01*
X0750045Y0663902D01*
X0749972Y0663917D01*
X0749901Y0663921D01*
X0749889Y0666773D01*
X0749898Y0666607D01*
D02*
G37*
G36*
X0743945Y0666065D02*
X0743933Y0665937D01*
X0743949Y0665798D01*
X0743992Y0665647D01*
X0744063Y0665486D01*
X0744162Y0665313D01*
X0744288Y0665129D01*
X0744441Y0664935D01*
X0744622Y0664729D01*
X0744831Y0664512D01*
X0744586Y0663086D01*
X0744317Y0663348D01*
X0743846Y0663753D01*
X0743645Y0663896D01*
X0743466Y0664001D01*
X0743310Y0664066D01*
X0743178Y0664092D01*
X0743068Y0664078D01*
X0742980Y0664025D01*
X0742916Y0663933D01*
X0743984Y0666182D01*
X0743945Y0666065D01*
D02*
G37*
G36*
X0734878Y0662351D02*
X0734811Y0662327D01*
X0734752Y0662287D01*
X0734701Y0662231D01*
X0734657Y0662159D01*
X0734622Y0662071D01*
X0734594Y0661967D01*
X0734575Y0661847D01*
X0734563Y0661711D01*
X0734559Y0661559D01*
X0733772D01*
X0733768Y0661711D01*
X0733756Y0661847D01*
X0733736Y0661967D01*
X0733709Y0662071D01*
X0733673Y0662159D01*
X0733630Y0662231D01*
X0733579Y0662287D01*
X0733520Y0662327D01*
X0733453Y0662351D01*
X0733378Y0662359D01*
X0734953D01*
X0734878Y0662351D01*
D02*
G37*
G36*
X0822279Y0661179D02*
X0822213Y0661128D01*
X0822153Y0661065D01*
X0822102Y0660991D01*
X0822059Y0660906D01*
X0822024Y0660809D01*
X0821996Y0660700D01*
X0821976Y0660581D01*
X0821965Y0660450D01*
X0821961Y0660308D01*
X0821173D01*
X0821169Y0660450D01*
X0821157Y0660581D01*
X0821138Y0660700D01*
X0821110Y0660809D01*
X0821075Y0660906D01*
X0821031Y0660991D01*
X0820980Y0661065D01*
X0820921Y0661128D01*
X0820854Y0661179D01*
X0820780Y0661219D01*
X0822354D01*
X0822279Y0661179D01*
D02*
G37*
G36*
X0821965Y0660104D02*
X0821976Y0659968D01*
X0821996Y0659848D01*
X0822024Y0659744D01*
X0822059Y0659656D01*
X0822102Y0659584D01*
X0822153Y0659528D01*
X0822213Y0659488D01*
X0822279Y0659464D01*
X0822354Y0659456D01*
X0820780D01*
X0820854Y0659464D01*
X0820921Y0659488D01*
X0820980Y0659528D01*
X0821031Y0659584D01*
X0821075Y0659656D01*
X0821110Y0659744D01*
X0821138Y0659848D01*
X0821157Y0659968D01*
X0821169Y0660104D01*
X0821173Y0660256D01*
X0821961D01*
X0821965Y0660104D01*
D02*
G37*
G36*
X0816158Y0661354D02*
X0816075Y0661279D01*
X0816001Y0661191D01*
X0815937Y0661091D01*
X0815883Y0660979D01*
X0815839Y0660854D01*
X0815804Y0660717D01*
X0815779Y0660568D01*
X0815765Y0660406D01*
X0815763Y0660338D01*
X0815765Y0660263D01*
X0815779Y0660094D01*
X0815804Y0659944D01*
X0815839Y0659815D01*
X0815883Y0659705D01*
X0815937Y0659616D01*
X0816001Y0659546D01*
X0816075Y0659496D01*
X0816158Y0659466D01*
X0816252Y0659456D01*
X0814283D01*
X0814377Y0659466D01*
X0814461Y0659496D01*
X0814534Y0659546D01*
X0814598Y0659616D01*
X0814653Y0659705D01*
X0814697Y0659815D01*
X0814731Y0659944D01*
X0814756Y0660094D01*
X0814771Y0660263D01*
X0814773Y0660338D01*
X0814771Y0660406D01*
X0814756Y0660568D01*
X0814731Y0660717D01*
X0814697Y0660854D01*
X0814653Y0660979D01*
X0814598Y0661091D01*
X0814534Y0661191D01*
X0814461Y0661279D01*
X0814377Y0661354D01*
X0814283Y0661417D01*
X0816252D01*
X0816158Y0661354D01*
D02*
G37*
G36*
X0749901Y0660648D02*
X0749937Y0660547D01*
X0749997Y0660459D01*
X0750080Y0660382D01*
X0750188Y0660317D01*
X0750319Y0660264D01*
X0750474Y0660222D01*
X0750653Y0660193D01*
X0750856Y0660175D01*
X0751083Y0660169D01*
Y0658988D01*
X0750856Y0658982D01*
X0750653Y0658965D01*
X0750474Y0658935D01*
X0750319Y0658894D01*
X0750188Y0658841D01*
X0750080Y0658776D01*
X0749997Y0658699D01*
X0749937Y0658610D01*
X0749901Y0658510D01*
X0749889Y0658398D01*
Y0660760D01*
X0749901Y0660648D01*
D02*
G37*
G36*
X0798825Y0658652D02*
X0798841Y0658462D01*
X0798846Y0658429D01*
X0799303D01*
X0799212Y0658420D01*
X0799130Y0658390D01*
X0799058Y0658341D01*
X0798996Y0658272D01*
X0798943Y0658183D01*
X0798929Y0658148D01*
X0798949Y0658109D01*
X0798982Y0658060D01*
X0799020Y0658018D01*
X0798885D01*
X0798866Y0657947D01*
X0798842Y0657799D01*
X0798828Y0657632D01*
X0798823Y0657445D01*
X0797839D01*
X0797834Y0657632D01*
X0797819Y0657799D01*
X0797795Y0657947D01*
X0797777Y0658018D01*
X0797642D01*
X0797679Y0658060D01*
X0797713Y0658109D01*
X0797733Y0658148D01*
X0797718Y0658183D01*
X0797666Y0658272D01*
X0797603Y0658341D01*
X0797531Y0658390D01*
X0797450Y0658420D01*
X0797359Y0658429D01*
X0797816D01*
X0797821Y0658462D01*
X0797831Y0658553D01*
X0797839Y0658758D01*
X0798823D01*
X0798825Y0658652D01*
D02*
G37*
G36*
X0813508Y0657130D02*
X0813498Y0657195D01*
X0813469Y0657253D01*
X0813420Y0657305D01*
X0813351Y0657349D01*
X0813262Y0657387D01*
X0813154Y0657418D01*
X0813026Y0657442D01*
X0812878Y0657459D01*
X0812711Y0657469D01*
X0812524Y0657472D01*
Y0658457D01*
X0812711Y0658462D01*
X0812878Y0658476D01*
X0813026Y0658501D01*
X0813154Y0658535D01*
X0813262Y0658580D01*
X0813351Y0658634D01*
X0813420Y0658698D01*
X0813469Y0658772D01*
X0813498Y0658855D01*
X0813508Y0658949D01*
Y0657130D01*
D02*
G37*
G36*
X0810730Y0658574D02*
X0810760Y0658550D01*
X0810809Y0658528D01*
X0810878Y0658509D01*
X0810966Y0658493D01*
X0811075Y0658480D01*
X0811350Y0658462D01*
X0811705Y0658457D01*
Y0657472D01*
X0811518Y0657468D01*
X0811350Y0657453D01*
X0811203Y0657428D01*
X0811075Y0657394D01*
X0810966Y0657349D01*
X0810878Y0657295D01*
X0810809Y0657231D01*
X0810760Y0657158D01*
X0810730Y0657074D01*
X0810720Y0656980D01*
Y0658602D01*
X0810730Y0658574D01*
D02*
G37*
G36*
X0743886Y0657807D02*
X0743788Y0657772D01*
X0743701Y0657713D01*
X0743626Y0657630D01*
X0743562Y0657524D01*
X0743510Y0657394D01*
X0743469Y0657240D01*
X0743440Y0657063D01*
X0743423Y0656862D01*
X0743417Y0656638D01*
X0742236D01*
X0742230Y0656862D01*
X0742213Y0657063D01*
X0742184Y0657240D01*
X0742144Y0657394D01*
X0742092Y0657524D01*
X0742028Y0657630D01*
X0741953Y0657713D01*
X0741866Y0657772D01*
X0741768Y0657807D01*
X0741658Y0657819D01*
X0743996D01*
X0743886Y0657807D01*
D02*
G37*
G36*
X0822083Y0657134D02*
X0822016Y0657110D01*
X0821957Y0657070D01*
X0821906Y0657014D01*
X0821862Y0656942D01*
X0821827Y0656854D01*
X0821799Y0656750D01*
X0821780Y0656631D01*
X0821768Y0656495D01*
X0821764Y0656343D01*
X0820976D01*
X0820972Y0656495D01*
X0820961Y0656631D01*
X0820941Y0656750D01*
X0820913Y0656854D01*
X0820878Y0656942D01*
X0820835Y0657014D01*
X0820784Y0657070D01*
X0820724Y0657110D01*
X0820658Y0657134D01*
X0820583Y0657142D01*
X0822157D01*
X0822083Y0657134D01*
D02*
G37*
G36*
X0743423Y0655600D02*
X0743441Y0655397D01*
X0743470Y0655218D01*
X0743512Y0655063D01*
X0743565Y0654932D01*
X0743630Y0654824D01*
X0743707Y0654741D01*
X0743795Y0654681D01*
X0743896Y0654645D01*
X0744008Y0654634D01*
X0741646D01*
X0741758Y0654645D01*
X0741858Y0654681D01*
X0741947Y0654741D01*
X0742024Y0654824D01*
X0742089Y0654932D01*
X0742142Y0655063D01*
X0742183Y0655218D01*
X0742213Y0655397D01*
X0742230Y0655600D01*
X0742236Y0655827D01*
X0743417D01*
X0743423Y0655600D01*
D02*
G37*
G36*
X0810728Y0655281D02*
X0810752Y0655214D01*
X0810791Y0655155D01*
X0810846Y0655104D01*
X0810917Y0655061D01*
X0811004Y0655025D01*
X0811106Y0654998D01*
X0811224Y0654978D01*
X0811358Y0654966D01*
X0811508Y0654962D01*
Y0654175D01*
X0811358Y0654171D01*
X0811224Y0654159D01*
X0811106Y0654139D01*
X0811004Y0654112D01*
X0810917Y0654076D01*
X0810846Y0654033D01*
X0810791Y0653982D01*
X0810752Y0653923D01*
X0810728Y0653856D01*
X0810720Y0653781D01*
Y0655356D01*
X0810728Y0655281D01*
D02*
G37*
G36*
X0757595Y0653508D02*
X0757585Y0653581D01*
X0757554Y0653646D01*
X0757504Y0653703D01*
X0757433Y0653752D01*
X0757343Y0653794D01*
X0757232Y0653829D01*
X0757101Y0653855D01*
X0756950Y0653874D01*
X0756778Y0653886D01*
X0756587Y0653890D01*
Y0655071D01*
X0756778Y0655075D01*
X0757101Y0655105D01*
X0757232Y0655132D01*
X0757343Y0655166D01*
X0757433Y0655208D01*
X0757504Y0655258D01*
X0757554Y0655315D01*
X0757585Y0655380D01*
X0757595Y0655453D01*
Y0653508D01*
D02*
G37*
G36*
X0727846Y0653880D02*
X0727859Y0653878D01*
X0727880Y0653876D01*
X0728047Y0653871D01*
X0728260Y0653870D01*
Y0653083D01*
X0727842Y0653071D01*
Y0653882D01*
X0727846Y0653880D01*
D02*
G37*
G36*
X0731422Y0652307D02*
X0730634Y0652295D01*
Y0653083D01*
X0730785Y0653087D01*
X0730921Y0653098D01*
X0731040Y0653118D01*
X0731144Y0653146D01*
X0731232Y0653181D01*
X0731304Y0653224D01*
X0731360Y0653276D01*
X0731400Y0653335D01*
X0731425Y0653402D01*
X0731433Y0653476D01*
X0731422Y0652307D01*
D02*
G37*
G36*
X0810725Y0651422D02*
X0810738Y0651416D01*
X0810759Y0651411D01*
X0810789Y0651406D01*
X0810828Y0651402D01*
X0810995Y0651394D01*
X0811150Y0651393D01*
Y0650606D01*
X0811069Y0650605D01*
X0810738Y0650582D01*
X0810725Y0650576D01*
X0810720Y0650569D01*
Y0651429D01*
X0810725Y0651422D01*
D02*
G37*
G36*
X0822598Y0651220D02*
X0822465Y0651172D01*
X0822346Y0651092D01*
X0822244Y0650981D01*
X0822157Y0650838D01*
X0822087Y0650664D01*
X0822031Y0650458D01*
X0821992Y0650220D01*
X0821968Y0649951D01*
X0821961Y0649650D01*
X0820386D01*
X0820378Y0649949D01*
X0820355Y0650217D01*
X0820316Y0650453D01*
X0820262Y0650658D01*
X0820192Y0650831D01*
X0820107Y0650973D01*
X0820006Y0651083D01*
X0819890Y0651162D01*
X0819758Y0651209D01*
X0819610Y0651225D01*
X0822748Y0651237D01*
X0822598Y0651220D01*
D02*
G37*
G36*
X0740489Y0648949D02*
X0740481Y0649024D01*
X0740457Y0649090D01*
X0740417Y0649150D01*
X0740361Y0649201D01*
X0740289Y0649244D01*
X0740201Y0649279D01*
X0740097Y0649307D01*
X0739977Y0649327D01*
X0739841Y0649339D01*
X0739689Y0649342D01*
Y0650130D01*
X0739841Y0650134D01*
X0739977Y0650146D01*
X0740097Y0650165D01*
X0740201Y0650193D01*
X0740289Y0650228D01*
X0740361Y0650272D01*
X0740417Y0650323D01*
X0740457Y0650382D01*
X0740481Y0650449D01*
X0740489Y0650524D01*
Y0648949D01*
D02*
G37*
G36*
X0731422Y0647165D02*
X0731433Y0646201D01*
X0731427Y0646237D01*
X0731409Y0646269D01*
X0731379Y0646297D01*
X0731337Y0646322D01*
X0731284Y0646343D01*
X0731218Y0646359D01*
X0731141Y0646373D01*
X0731052Y0646382D01*
X0730839Y0646390D01*
Y0647177D01*
X0731422Y0647165D01*
D02*
G37*
G36*
X0745187Y0647093D02*
X0745217Y0647028D01*
X0745267Y0646971D01*
X0745336Y0646921D01*
X0745426Y0646879D01*
X0745536Y0646844D01*
X0745665Y0646818D01*
X0745815Y0646799D01*
X0745984Y0646787D01*
X0746173Y0646783D01*
Y0645602D01*
X0745982Y0645598D01*
X0745660Y0645566D01*
X0745529Y0645537D01*
X0745418Y0645501D01*
X0745328Y0645456D01*
X0745257Y0645404D01*
X0745206Y0645343D01*
X0745176Y0645274D01*
X0745165Y0645197D01*
X0745177Y0647165D01*
X0745187Y0647093D01*
D02*
G37*
G36*
X0816945Y0646207D02*
X0816992Y0646142D01*
X0817071Y0646085D01*
X0817181Y0646035D01*
X0817323Y0645993D01*
X0817496Y0645959D01*
X0817701Y0645932D01*
X0818204Y0645901D01*
X0818504Y0645898D01*
Y0644323D01*
X0818204Y0644319D01*
X0817496Y0644262D01*
X0817323Y0644227D01*
X0817181Y0644185D01*
X0817071Y0644136D01*
X0816992Y0644078D01*
X0816945Y0644014D01*
X0816929Y0643941D01*
Y0646279D01*
X0816945Y0646207D01*
D02*
G37*
G36*
X0813410Y0643941D02*
X0813394Y0644014D01*
X0813347Y0644078D01*
X0813268Y0644136D01*
X0813158Y0644185D01*
X0813016Y0644227D01*
X0812843Y0644262D01*
X0812638Y0644288D01*
X0812134Y0644319D01*
X0811835Y0644323D01*
Y0645898D01*
X0812134Y0645901D01*
X0812843Y0645959D01*
X0813016Y0645993D01*
X0813158Y0646035D01*
X0813268Y0646085D01*
X0813347Y0646142D01*
X0813394Y0646207D01*
X0813410Y0646279D01*
Y0643941D01*
D02*
G37*
G36*
X0756232Y0644421D02*
X0756291Y0644087D01*
X0756390Y0643791D01*
X0756528Y0643535D01*
X0756705Y0643319D01*
X0756921Y0643142D01*
X0757177Y0643004D01*
X0757472Y0642906D01*
X0757807Y0642846D01*
X0758181Y0642827D01*
X0755228Y0640858D01*
X0754823Y0641129D01*
Y0640858D01*
X0754447Y0640848D01*
X0754111Y0640819D01*
X0753815Y0640770D01*
X0753557Y0640701D01*
X0753340Y0640612D01*
X0753161Y0640504D01*
X0753022Y0640376D01*
X0752923Y0640228D01*
X0752863Y0640061D01*
X0752842Y0639874D01*
X0752854Y0642228D01*
X0752874Y0642342D01*
X0752910Y0642404D01*
X0752276Y0642827D01*
X0752650Y0642846D01*
X0752984Y0642906D01*
X0753279Y0643004D01*
X0753535Y0643142D01*
X0753752Y0643319D01*
X0753929Y0643535D01*
X0754067Y0643791D01*
X0754165Y0644087D01*
X0754224Y0644421D01*
X0754244Y0644795D01*
X0756213D01*
X0756232Y0644421D01*
D02*
G37*
G36*
X0740207Y0630447D02*
X0740141Y0630410D01*
X0740082Y0630366D01*
X0740029Y0630314D01*
X0739984Y0630256D01*
X0739946Y0630191D01*
X0739914Y0630119D01*
X0739890Y0630040D01*
X0739872Y0629954D01*
X0739862Y0629861D01*
X0739858Y0629761D01*
X0739071Y0630057D01*
X0739069Y0630154D01*
X0739056Y0630339D01*
X0739044Y0630427D01*
X0739010Y0630593D01*
X0738987Y0630670D01*
X0738962Y0630745D01*
X0738933Y0630817D01*
X0738901Y0630885D01*
X0740207Y0630447D01*
D02*
G37*
G36*
X0742224Y0624935D02*
X0742164Y0624991D01*
X0742100Y0625041D01*
X0742031Y0625085D01*
X0741959Y0625124D01*
X0741882Y0625156D01*
X0741801Y0625183D01*
X0741715Y0625204D01*
X0741626Y0625218D01*
X0741532Y0625227D01*
X0741434Y0625230D01*
Y0626018D01*
X0741532Y0626020D01*
X0741626Y0626029D01*
X0741715Y0626044D01*
X0741801Y0626065D01*
X0741882Y0626091D01*
X0741959Y0626124D01*
X0742031Y0626162D01*
X0742100Y0626206D01*
X0742164Y0626257D01*
X0742224Y0626313D01*
Y0624935D01*
D02*
G37*
G36*
X0727913Y0655461D02*
X0721354D01*
Y0651886D01*
Y0649327D01*
Y0646768D01*
Y0644209D01*
Y0641650D01*
X0727913D01*
Y0622965D01*
X0708529D01*
Y0668240D01*
X0727913D01*
Y0655461D01*
D02*
G37*
G36*
X0756159Y0621416D02*
X0756109Y0621352D01*
X0756064Y0621283D01*
X0756026Y0621211D01*
X0755994Y0621134D01*
X0755967Y0621053D01*
X0755946Y0620967D01*
X0755932Y0620878D01*
X0755923Y0620784D01*
X0755920Y0620686D01*
X0755132D01*
X0755129Y0620784D01*
X0755121Y0620878D01*
X0755106Y0620967D01*
X0755085Y0621053D01*
X0755058Y0621134D01*
X0755026Y0621211D01*
X0754988Y0621283D01*
X0754943Y0621352D01*
X0754893Y0621416D01*
X0754837Y0621476D01*
X0756215D01*
X0756159Y0621416D01*
D02*
G37*
G36*
X0751965Y0620831D02*
X0752555D01*
X0752443Y0620819D01*
X0752343Y0620784D01*
X0752254Y0620725D01*
X0752177Y0620642D01*
X0752112Y0620536D01*
X0752059Y0620406D01*
X0752026Y0620284D01*
X0752028Y0620281D01*
X0752044Y0620247D01*
X0752063Y0620223D01*
X0752013D01*
X0751988Y0620075D01*
X0751970Y0619874D01*
X0751965Y0619650D01*
X0750783D01*
X0750781Y0619874D01*
X0750754Y0620223D01*
X0750685D01*
X0750704Y0620247D01*
X0750721Y0620281D01*
X0750735Y0620324D01*
X0750744Y0620361D01*
X0750741Y0620406D01*
X0750717Y0620536D01*
X0750687Y0620642D01*
X0750652Y0620725D01*
X0750612Y0620784D01*
X0750567Y0620819D01*
X0750516Y0620831D01*
X0750783D01*
X0750783Y0620898D01*
X0751965D01*
X0751965Y0620831D01*
D02*
G37*
G36*
X0752044Y0618793D02*
X0752028Y0618759D01*
X0752013Y0618715D01*
X0752000Y0618663D01*
X0751989Y0618600D01*
X0751973Y0618445D01*
X0751966Y0618253D01*
X0751965Y0618142D01*
X0750783D01*
X0750782Y0618253D01*
X0750759Y0618600D01*
X0750748Y0618663D01*
X0750735Y0618715D01*
X0750721Y0618759D01*
X0750704Y0618793D01*
X0750685Y0618817D01*
X0752063D01*
X0752044Y0618793D01*
D02*
G37*
G36*
X0755171Y0617945D02*
X0755103Y0617873D01*
X0755044Y0617800D01*
X0754995Y0617726D01*
X0754954Y0617652D01*
X0754923Y0617577D01*
X0754901Y0617502D01*
X0754888Y0617426D01*
X0754885Y0617350D01*
X0754890Y0617273D01*
X0754905Y0617196D01*
X0753732Y0617921D01*
X0753809Y0617941D01*
X0753886Y0617966D01*
X0753962Y0617997D01*
X0754036Y0618033D01*
X0754110Y0618074D01*
X0754184Y0618120D01*
X0754256Y0618171D01*
X0754399Y0618290D01*
X0754469Y0618357D01*
X0755171Y0617945D01*
D02*
G37*
G36*
X0754582Y0616198D02*
X0754531Y0616133D01*
X0754487Y0616065D01*
X0754449Y0615992D01*
X0754416Y0615916D01*
X0754390Y0615835D01*
X0754369Y0615749D01*
X0754354Y0615660D01*
X0754346Y0615566D01*
X0754343Y0615468D01*
X0753555D01*
X0753552Y0615566D01*
X0753543Y0615660D01*
X0753528Y0615749D01*
X0753508Y0615835D01*
X0753481Y0615916D01*
X0753449Y0615992D01*
X0753410Y0616065D01*
X0753366Y0616133D01*
X0753316Y0616198D01*
X0753260Y0616258D01*
X0754638D01*
X0754582Y0616198D01*
D02*
G37*
G36*
X0802295Y0615488D02*
X0802228Y0615465D01*
X0802169Y0615425D01*
X0802118Y0615370D01*
X0802075Y0615299D01*
X0802039Y0615213D01*
X0802012Y0615110D01*
X0801992Y0614992D01*
X0801980Y0614858D01*
X0801976Y0614709D01*
X0801189D01*
X0801185Y0614858D01*
X0801173Y0614992D01*
X0801153Y0615110D01*
X0801126Y0615213D01*
X0801091Y0615299D01*
X0801047Y0615370D01*
X0800996Y0615425D01*
X0800937Y0615465D01*
X0800870Y0615488D01*
X0800795Y0615496D01*
X0802370D01*
X0802295Y0615488D01*
D02*
G37*
G36*
X0786453D02*
X0786386Y0615465D01*
X0786327Y0615425D01*
X0786276Y0615370D01*
X0786232Y0615299D01*
X0786197Y0615213D01*
X0786169Y0615110D01*
X0786150Y0614992D01*
X0786138Y0614858D01*
X0786134Y0614709D01*
X0785347D01*
X0785343Y0614858D01*
X0785331Y0614992D01*
X0785311Y0615110D01*
X0785284Y0615213D01*
X0785248Y0615299D01*
X0785205Y0615370D01*
X0785153Y0615425D01*
X0785094Y0615465D01*
X0785028Y0615488D01*
X0784953Y0615496D01*
X0786528D01*
X0786453Y0615488D01*
D02*
G37*
G36*
X0783303D02*
X0783236Y0615465D01*
X0783177Y0615425D01*
X0783126Y0615370D01*
X0783083Y0615299D01*
X0783047Y0615213D01*
X0783020Y0615110D01*
X0783000Y0614992D01*
X0782988Y0614858D01*
X0782984Y0614709D01*
X0782197D01*
X0782193Y0614858D01*
X0782181Y0614992D01*
X0782161Y0615110D01*
X0782134Y0615213D01*
X0782098Y0615299D01*
X0782055Y0615370D01*
X0782004Y0615425D01*
X0781945Y0615465D01*
X0781878Y0615488D01*
X0781803Y0615496D01*
X0783378D01*
X0783303Y0615488D01*
D02*
G37*
G36*
X0799079Y0615488D02*
X0799012Y0615465D01*
X0798953Y0615425D01*
X0798902Y0615370D01*
X0798858Y0615299D01*
X0798823Y0615213D01*
X0798795Y0615110D01*
X0798776Y0614992D01*
X0798764Y0614858D01*
X0798760Y0614709D01*
X0797972D01*
X0797968Y0614858D01*
X0797957Y0614992D01*
X0797937Y0615110D01*
X0797909Y0615213D01*
X0797874Y0615299D01*
X0797831Y0615370D01*
X0797780Y0615425D01*
X0797720Y0615465D01*
X0797653Y0615488D01*
X0797579Y0615496D01*
X0799154D01*
X0799079Y0615488D01*
D02*
G37*
G36*
X0773854D02*
X0773787Y0615465D01*
X0773728Y0615425D01*
X0773677Y0615370D01*
X0773634Y0615299D01*
X0773598Y0615213D01*
X0773571Y0615110D01*
X0773551Y0614992D01*
X0773539Y0614858D01*
X0773535Y0614709D01*
X0772748D01*
X0772744Y0614858D01*
X0772732Y0614992D01*
X0772713Y0615110D01*
X0772685Y0615213D01*
X0772650Y0615299D01*
X0772606Y0615370D01*
X0772555Y0615425D01*
X0772496Y0615465D01*
X0772429Y0615488D01*
X0772354Y0615496D01*
X0773929D01*
X0773854Y0615488D01*
D02*
G37*
G36*
X0770705D02*
X0770638Y0615465D01*
X0770579Y0615425D01*
X0770528Y0615370D01*
X0770484Y0615299D01*
X0770449Y0615213D01*
X0770421Y0615110D01*
X0770402Y0614992D01*
X0770390Y0614858D01*
X0770386Y0614709D01*
X0769598D01*
X0769594Y0614858D01*
X0769583Y0614992D01*
X0769563Y0615110D01*
X0769535Y0615213D01*
X0769500Y0615299D01*
X0769457Y0615370D01*
X0769406Y0615425D01*
X0769347Y0615465D01*
X0769279Y0615488D01*
X0769205Y0615496D01*
X0770780D01*
X0770705Y0615488D01*
D02*
G37*
G36*
X0786137Y0613951D02*
X0786146Y0613858D01*
X0786160Y0613768D01*
X0786181Y0613683D01*
X0786208Y0613602D01*
X0786240Y0613525D01*
X0786278Y0613452D01*
X0786323Y0613384D01*
X0786373Y0613319D01*
X0786429Y0613260D01*
X0785051D01*
X0785107Y0613319D01*
X0785157Y0613384D01*
X0785202Y0613452D01*
X0785240Y0613525D01*
X0785273Y0613602D01*
X0785299Y0613683D01*
X0785320Y0613768D01*
X0785335Y0613858D01*
X0785344Y0613951D01*
X0785347Y0614049D01*
X0786134D01*
X0786137Y0613951D01*
D02*
G37*
G36*
X0801979Y0613828D02*
X0801988Y0613734D01*
X0802003Y0613645D01*
X0802024Y0613559D01*
X0802050Y0613478D01*
X0802083Y0613401D01*
X0802121Y0613329D01*
X0802165Y0613260D01*
X0802215Y0613196D01*
X0802272Y0613136D01*
X0800894D01*
X0800950Y0613196D01*
X0801000Y0613260D01*
X0801044Y0613329D01*
X0801083Y0613401D01*
X0801115Y0613478D01*
X0801142Y0613559D01*
X0801162Y0613645D01*
X0801177Y0613734D01*
X0801186Y0613828D01*
X0801189Y0613926D01*
X0801976D01*
X0801979Y0613828D01*
D02*
G37*
G36*
X0782987Y0613673D02*
X0782997Y0613580D01*
X0783013Y0613491D01*
X0783036Y0613408D01*
X0783064Y0613329D01*
X0783100Y0613256D01*
X0783141Y0613187D01*
X0783189Y0613124D01*
X0783244Y0613065D01*
X0783305Y0613012D01*
X0782550Y0612241D01*
X0781934Y0612869D01*
X0781984Y0612934D01*
X0782029Y0613003D01*
X0782068Y0613075D01*
X0782102Y0613151D01*
X0782131Y0613231D01*
X0782155Y0613314D01*
X0782173Y0613400D01*
X0782186Y0613491D01*
X0782194Y0613585D01*
X0782197Y0613682D01*
X0782984Y0613772D01*
X0782987Y0613673D01*
D02*
G37*
G36*
X0783305Y0611471D02*
X0783244Y0611417D01*
X0783189Y0611359D01*
X0783141Y0611295D01*
X0783100Y0611227D01*
X0783064Y0611153D01*
X0783036Y0611075D01*
X0783025Y0611035D01*
X0783026Y0611028D01*
X0783050Y0610921D01*
X0783079Y0610823D01*
X0783113Y0610735D01*
X0783152Y0610655D01*
X0783197Y0610585D01*
X0783247Y0610524D01*
X0782760Y0610736D01*
X0782197Y0610800D01*
X0782194Y0610898D01*
X0782187Y0610986D01*
X0781803Y0611154D01*
X0781878Y0611161D01*
X0781945Y0611183D01*
X0782004Y0611221D01*
X0782055Y0611273D01*
X0782098Y0611340D01*
X0782068Y0611407D01*
X0782029Y0611480D01*
X0781984Y0611548D01*
X0781934Y0611614D01*
X0782196Y0611881D01*
X0782197Y0611901D01*
X0782210Y0611895D01*
X0782550Y0612241D01*
X0783305Y0611471D01*
D02*
G37*
G36*
X0797782Y0610827D02*
X0797684Y0610724D01*
X0797600Y0610623D01*
X0797529Y0610524D01*
X0797472Y0610428D01*
X0797428Y0610335D01*
X0797399Y0610244D01*
X0797382Y0610155D01*
X0797380Y0610069D01*
X0797391Y0609985D01*
X0797415Y0609904D01*
X0796302Y0611018D01*
X0796383Y0610993D01*
X0796466Y0610982D01*
X0796553Y0610985D01*
X0796641Y0611001D01*
X0796732Y0611031D01*
X0796826Y0611074D01*
X0796922Y0611131D01*
X0797020Y0611202D01*
X0797121Y0611286D01*
X0797225Y0611384D01*
X0797782Y0610827D01*
D02*
G37*
G36*
X0801976Y0611879D02*
X0801980Y0611737D01*
X0801981Y0611730D01*
X0802272D01*
X0802215Y0611670D01*
X0802165Y0611606D01*
X0802121Y0611538D01*
X0802083Y0611465D01*
X0802050Y0611388D01*
X0802042Y0611364D01*
X0802073Y0611277D01*
X0802115Y0611190D01*
X0802165Y0611113D01*
X0802223Y0611048D01*
X0802288Y0610993D01*
X0802361Y0610949D01*
X0801977Y0610968D01*
X0801976Y0610940D01*
X0801189D01*
X0801187Y0611006D01*
X0800788Y0611025D01*
X0800864Y0611061D01*
X0800933Y0611109D01*
X0800993Y0611169D01*
X0801045Y0611241D01*
X0801089Y0611324D01*
X0801114Y0611391D01*
X0801083Y0611465D01*
X0801044Y0611538D01*
X0801000Y0611606D01*
X0800950Y0611670D01*
X0800894Y0611730D01*
X0801181D01*
X0801185Y0611776D01*
X0801189Y0611918D01*
X0801976Y0611879D01*
D02*
G37*
G36*
X0786727Y0612465D02*
X0786737Y0612384D01*
X0786754Y0612304D01*
X0786778Y0612225D01*
X0786810Y0612148D01*
X0786848Y0612072D01*
X0786894Y0611997D01*
X0786947Y0611923D01*
X0787007Y0611851D01*
X0787074Y0611779D01*
X0786960Y0611665D01*
X0787143Y0611710D01*
X0787247Y0611610D01*
X0787535Y0611365D01*
X0787624Y0611302D01*
X0787709Y0611248D01*
X0787790Y0611205D01*
X0787867Y0611170D01*
X0787941Y0611145D01*
X0788011Y0611130D01*
X0786488Y0610730D01*
X0786538Y0610779D01*
X0786572Y0610834D01*
X0786589Y0610895D01*
X0786590Y0610962D01*
X0786574Y0611035D01*
X0786542Y0611114D01*
X0786493Y0611200D01*
X0786428Y0611291D01*
X0786391Y0611335D01*
X0786373Y0611350D01*
X0786300Y0611403D01*
X0786225Y0611448D01*
X0786149Y0611487D01*
X0786071Y0611518D01*
X0785993Y0611543D01*
X0785913Y0611560D01*
X0785832Y0611570D01*
X0785750Y0611572D01*
X0786724Y0612547D01*
X0786727Y0612465D01*
D02*
G37*
G36*
X0712342Y0606878D02*
X0712253Y0606894D01*
X0712162Y0606898D01*
X0712070Y0606890D01*
X0711977Y0606869D01*
X0711883Y0606836D01*
X0711787Y0606790D01*
X0711690Y0606732D01*
X0711591Y0606662D01*
X0711521Y0606604D01*
X0711397Y0606459D01*
X0711346Y0606391D01*
X0711259Y0606258D01*
X0711222Y0606192D01*
X0711161Y0606062D01*
X0710633Y0607335D01*
X0710703Y0607311D01*
X0710773Y0607297D01*
X0710844Y0607293D01*
X0710915Y0607299D01*
X0710986Y0607316D01*
X0711058Y0607343D01*
X0711098Y0607364D01*
X0711141Y0607436D01*
X0711187Y0607532D01*
X0711220Y0607627D01*
X0711241Y0607720D01*
X0711249Y0607812D01*
X0711245Y0607902D01*
X0711228Y0607991D01*
X0712342Y0606878D01*
D02*
G37*
G36*
X0754194Y0605257D02*
X0754311Y0605157D01*
X0754361Y0605120D01*
X0754405Y0605090D01*
X0754443Y0605068D01*
X0754475Y0605055D01*
X0754501Y0605049D01*
X0754510Y0604136D01*
X0753460Y0604146D01*
X0753458Y0604179D01*
X0753448Y0604218D01*
X0753430Y0604261D01*
X0753403Y0604309D01*
X0753367Y0604363D01*
X0753324Y0604421D01*
X0753142Y0604628D01*
X0753064Y0604707D01*
X0753974Y0605468D01*
X0754194Y0605257D01*
D02*
G37*
G36*
X0755423Y0604127D02*
X0755429Y0604101D01*
X0755442Y0604069D01*
X0755464Y0604031D01*
X0755494Y0603987D01*
X0755531Y0603937D01*
X0755631Y0603820D01*
X0755841Y0603600D01*
X0755081Y0602691D01*
X0755002Y0602768D01*
X0754795Y0602949D01*
X0754737Y0602993D01*
X0754683Y0603028D01*
X0754635Y0603055D01*
X0754592Y0603074D01*
X0754553Y0603084D01*
X0754520Y0603086D01*
X0754510Y0604136D01*
X0755423Y0604127D01*
D02*
G37*
G36*
X0719114Y0604090D02*
X0719175Y0604024D01*
X0719246Y0603965D01*
X0719326Y0603913D01*
X0719417Y0603870D01*
X0719517Y0603835D01*
X0719626Y0603807D01*
X0719746Y0603787D01*
X0719875Y0603776D01*
X0720014Y0603772D01*
Y0602984D01*
X0719875Y0602980D01*
X0719746Y0602969D01*
X0719626Y0602949D01*
X0719517Y0602921D01*
X0719417Y0602886D01*
X0719326Y0602843D01*
X0719246Y0602791D01*
X0719175Y0602732D01*
X0719114Y0602665D01*
X0719063Y0602591D01*
Y0604165D01*
X0719114Y0604090D01*
D02*
G37*
G36*
X0757198Y0601864D02*
X0757225Y0601465D01*
X0757237Y0601401D01*
X0757251Y0601351D01*
X0757268Y0601315D01*
X0757286Y0601294D01*
X0757307Y0601287D01*
X0755905D01*
X0755926Y0601294D01*
X0755945Y0601315D01*
X0755962Y0601351D01*
X0755976Y0601401D01*
X0755988Y0601465D01*
X0755998Y0601544D01*
X0756011Y0601743D01*
X0756016Y0602000D01*
X0757197D01*
X0757198Y0601864D01*
D02*
G37*
G36*
X0779268Y0599933D02*
X0779260Y0600008D01*
X0779236Y0600075D01*
X0779196Y0600134D01*
X0779140Y0600185D01*
X0779068Y0600228D01*
X0778980Y0600264D01*
X0778876Y0600291D01*
X0778757Y0600311D01*
X0778621Y0600323D01*
X0778469Y0600327D01*
Y0601114D01*
X0778621Y0601118D01*
X0778757Y0601130D01*
X0778876Y0601150D01*
X0778980Y0601177D01*
X0779068Y0601213D01*
X0779140Y0601256D01*
X0779196Y0601307D01*
X0779236Y0601366D01*
X0779260Y0601433D01*
X0779268Y0601508D01*
Y0599933D01*
D02*
G37*
G36*
X0748855Y0599342D02*
X0748847Y0599417D01*
X0748823Y0599484D01*
X0748783Y0599543D01*
X0748727Y0599594D01*
X0748655Y0599638D01*
X0748567Y0599673D01*
X0748463Y0599701D01*
X0748343Y0599720D01*
X0748207Y0599732D01*
X0748055Y0599736D01*
Y0600524D01*
X0748207Y0600528D01*
X0748343Y0600539D01*
X0748463Y0600559D01*
X0748567Y0600587D01*
X0748655Y0600622D01*
X0748727Y0600665D01*
X0748783Y0600716D01*
X0748823Y0600776D01*
X0748847Y0600843D01*
X0748855Y0600917D01*
Y0599342D01*
D02*
G37*
G36*
X0714346Y0600064D02*
X0714250Y0599963D01*
X0714170Y0599864D01*
X0714104Y0599768D01*
X0714052Y0599675D01*
X0714016Y0599585D01*
X0713995Y0599498D01*
X0713988Y0599413D01*
X0713996Y0599332D01*
X0714018Y0599253D01*
X0714056Y0599177D01*
X0712671Y0599926D01*
X0712759Y0599934D01*
X0712849Y0599952D01*
X0712941Y0599980D01*
X0713033Y0600017D01*
X0713127Y0600065D01*
X0713222Y0600122D01*
X0713319Y0600189D01*
X0713417Y0600265D01*
X0713516Y0600352D01*
X0713616Y0600448D01*
X0714346Y0600064D01*
D02*
G37*
G36*
X0744976Y0600252D02*
X0745000Y0600185D01*
X0745040Y0600126D01*
X0745096Y0600075D01*
X0745168Y0600032D01*
X0745256Y0599996D01*
X0745360Y0599968D01*
X0745480Y0599949D01*
X0745616Y0599937D01*
X0745767Y0599933D01*
Y0599146D01*
X0745616Y0599142D01*
X0745480Y0599130D01*
X0745360Y0599110D01*
X0745256Y0599083D01*
X0745168Y0599047D01*
X0745096Y0599004D01*
X0745040Y0598953D01*
X0745000Y0598894D01*
X0744976Y0598827D01*
X0744968Y0598752D01*
Y0600327D01*
X0744976Y0600252D01*
D02*
G37*
G36*
X0741461Y0598752D02*
X0741453Y0598827D01*
X0741429Y0598894D01*
X0741390Y0598953D01*
X0741335Y0599004D01*
X0741264Y0599047D01*
X0741177Y0599083D01*
X0741075Y0599110D01*
X0740957Y0599130D01*
X0740823Y0599142D01*
X0740673Y0599146D01*
Y0599933D01*
X0740823Y0599937D01*
X0740957Y0599949D01*
X0741075Y0599968D01*
X0741177Y0599996D01*
X0741264Y0600032D01*
X0741335Y0600075D01*
X0741390Y0600126D01*
X0741429Y0600185D01*
X0741453Y0600252D01*
X0741461Y0600327D01*
Y0598752D01*
D02*
G37*
G36*
X0752317Y0600013D02*
X0752295Y0599941D01*
Y0599857D01*
X0752317Y0599763D01*
X0752362Y0599657D01*
X0752429Y0599540D01*
X0752518Y0599412D01*
X0752629Y0599273D01*
X0752919Y0598961D01*
X0752362Y0598404D01*
X0752201Y0598560D01*
X0751911Y0598805D01*
X0751783Y0598894D01*
X0751666Y0598961D01*
X0751560Y0599005D01*
X0751466Y0599028D01*
X0751382D01*
X0751310Y0599005D01*
X0751249Y0598961D01*
X0752362Y0600074D01*
X0752317Y0600013D01*
D02*
G37*
G36*
X0719010Y0599269D02*
X0719105Y0599185D01*
X0719208Y0599111D01*
X0719320Y0599047D01*
X0719441Y0598993D01*
X0719571Y0598949D01*
X0719711Y0598914D01*
X0719859Y0598890D01*
X0720016Y0598875D01*
X0720182Y0598870D01*
Y0597886D01*
X0720016Y0597881D01*
X0719859Y0597866D01*
X0719711Y0597842D01*
X0719571Y0597807D01*
X0719441Y0597763D01*
X0719320Y0597709D01*
X0719208Y0597645D01*
X0719105Y0597571D01*
X0719010Y0597487D01*
X0718925Y0597394D01*
Y0599362D01*
X0719010Y0599269D01*
D02*
G37*
G36*
X0737990Y0595701D02*
X0737948Y0595738D01*
X0737899Y0595772D01*
X0737842Y0595801D01*
X0737779Y0595827D01*
X0737709Y0595848D01*
X0737631Y0595866D01*
X0737546Y0595880D01*
X0737455Y0595890D01*
X0737250Y0595898D01*
Y0596882D01*
X0737356Y0596884D01*
X0737546Y0596900D01*
X0737631Y0596913D01*
X0737709Y0596931D01*
X0737779Y0596953D01*
X0737842Y0596978D01*
X0737899Y0597008D01*
X0737948Y0597041D01*
X0737990Y0597079D01*
Y0595701D01*
D02*
G37*
G36*
X0758366Y0595394D02*
X0757197Y0595381D01*
X0757272Y0595390D01*
X0757339Y0595415D01*
X0757398Y0595455D01*
X0757449Y0595511D01*
X0757492Y0595583D01*
X0757528Y0595671D01*
X0757555Y0595775D01*
X0757575Y0595894D01*
X0757587Y0596030D01*
X0757591Y0596181D01*
X0758378D01*
X0758366Y0595394D01*
D02*
G37*
G36*
X0755817Y0596068D02*
X0756131Y0595798D01*
X0756279Y0595688D01*
X0756421Y0595595D01*
X0756557Y0595518D01*
X0756687Y0595459D01*
X0756812Y0595416D01*
X0756930Y0595391D01*
X0757043Y0595381D01*
X0754847Y0595394D01*
X0754941Y0595399D01*
X0755014Y0595416D01*
X0755065Y0595444D01*
X0755094Y0595483D01*
X0755102Y0595533D01*
X0755088Y0595594D01*
X0755052Y0595666D01*
X0754995Y0595750D01*
X0754916Y0595845D01*
X0754816Y0595950D01*
X0755651Y0596229D01*
X0755817Y0596068D01*
D02*
G37*
G36*
X0779418Y0596188D02*
X0779707Y0595943D01*
X0779835Y0595854D01*
X0779952Y0595787D01*
X0780058Y0595743D01*
X0780153Y0595720D01*
X0780236D01*
X0780308Y0595743D01*
X0780370Y0595787D01*
X0779256Y0594674D01*
X0779301Y0594735D01*
X0779323Y0594807D01*
Y0594891D01*
X0779301Y0594985D01*
X0779256Y0595091D01*
X0779189Y0595208D01*
X0779100Y0595336D01*
X0778989Y0595475D01*
X0778699Y0595787D01*
X0779256Y0596344D01*
X0779418Y0596188D01*
D02*
G37*
G36*
X0723868Y0595314D02*
X0723868Y0595314D01*
X0724307Y0595021D01*
Y0591029D01*
X0717776D01*
X0717529Y0591529D01*
X0717806Y0591890D01*
X0718103Y0592608D01*
X0718205Y0593378D01*
X0718103Y0594148D01*
X0717806Y0594866D01*
X0717455Y0595323D01*
X0717728Y0595779D01*
X0718723Y0595977D01*
X0719566Y0596540D01*
X0719677Y0596705D01*
X0719677Y0596706D01*
X0719727Y0596760D01*
X0719741Y0596772D01*
X0719758Y0596785D01*
X0719782Y0596798D01*
X0719814Y0596813D01*
X0719859Y0596828D01*
X0719917Y0596842D01*
X0719990Y0596854D01*
X0720013Y0596857D01*
X0722325D01*
X0723868Y0595314D01*
D02*
G37*
%LPC*%
G36*
X0742236Y0701877D02*
X0741462Y0701723D01*
X0740806Y0701285D01*
X0740367Y0700629D01*
X0740213Y0699854D01*
X0740367Y0699080D01*
X0740744Y0698516D01*
Y0698188D01*
X0740736Y0698149D01*
X0740742Y0698122D01*
X0740738Y0698094D01*
X0740744Y0698070D01*
Y0694406D01*
X0753571D01*
Y0699161D01*
X0744516D01*
X0744198Y0699548D01*
X0744259Y0699854D01*
X0744105Y0700629D01*
X0743667Y0701285D01*
X0743010Y0701723D01*
X0742236Y0701877D01*
D02*
G37*
G36*
X0802094Y0698669D02*
X0797732D01*
Y0693126D01*
X0797732Y0693126D01*
Y0692665D01*
X0797732D01*
X0797732Y0692626D01*
Y0687122D01*
X0802094D01*
Y0691535D01*
X0802096Y0691538D01*
X0802094Y0691551D01*
Y0691615D01*
X0802102Y0691653D01*
X0802094Y0691691D01*
Y0692665D01*
X0802094D01*
X0802094Y0693126D01*
X0802094Y0693126D01*
Y0694096D01*
X0802102Y0694133D01*
X0802094Y0694172D01*
Y0694249D01*
X0802095Y0694257D01*
X0802094Y0694259D01*
Y0698669D01*
D02*
G37*
G36*
X0753571Y0691681D02*
X0748618D01*
Y0689933D01*
X0748612Y0689924D01*
X0748489Y0689303D01*
Y0686146D01*
X0748406Y0686135D01*
X0748376Y0686118D01*
X0748342Y0686111D01*
X0748204Y0686019D01*
X0748123Y0685972D01*
X0747929D01*
Y0685767D01*
X0747919Y0685753D01*
X0747818Y0685621D01*
X0747809Y0685588D01*
X0747790Y0685560D01*
X0747758Y0685397D01*
X0747715Y0685237D01*
X0747719Y0685203D01*
X0747713Y0685169D01*
Y0681232D01*
Y0674539D01*
X0747790Y0674149D01*
X0747929Y0673941D01*
Y0673736D01*
X0748134D01*
X0748342Y0673597D01*
X0748732Y0673520D01*
X0755388D01*
X0755524Y0673493D01*
X0755659Y0673520D01*
X0759362D01*
X0759752Y0673597D01*
X0760083Y0673818D01*
X0760304Y0674149D01*
X0760382Y0674539D01*
Y0683960D01*
X0760477Y0684055D01*
X0760480Y0684060D01*
X0760486Y0684063D01*
X0760591Y0684225D01*
X0760698Y0684385D01*
X0760699Y0684392D01*
X0760703Y0684397D01*
X0760738Y0684587D01*
X0760776Y0684776D01*
Y0688713D01*
X0760698Y0689103D01*
X0760559Y0689311D01*
Y0689319D01*
X0760554D01*
X0760477Y0689434D01*
X0760146Y0689655D01*
X0759756Y0689732D01*
X0755819D01*
X0755429Y0689655D01*
X0755098Y0689434D01*
X0754033Y0688368D01*
X0753571Y0688560D01*
Y0691681D01*
D02*
G37*
G36*
X0779539Y0656681D02*
X0778765Y0656527D01*
X0778109Y0656088D01*
X0777670Y0655432D01*
X0777516Y0654658D01*
X0777670Y0653883D01*
X0777856Y0653605D01*
X0777857Y0653602D01*
X0777863Y0653587D01*
X0777864Y0653581D01*
X0777865Y0653576D01*
X0777872Y0653486D01*
Y0645596D01*
X0777817Y0645559D01*
X0777379Y0644903D01*
X0777224Y0644129D01*
X0777379Y0643354D01*
X0777817Y0642698D01*
X0778473Y0642260D01*
X0779248Y0642105D01*
X0780022Y0642260D01*
X0780678Y0642698D01*
X0781117Y0643354D01*
X0781271Y0644129D01*
X0781117Y0644903D01*
X0780931Y0645181D01*
X0780930Y0645184D01*
X0780924Y0645199D01*
X0780923Y0645205D01*
X0780922Y0645211D01*
X0780915Y0645300D01*
Y0653190D01*
X0780970Y0653227D01*
X0781409Y0653883D01*
X0781563Y0654658D01*
X0781409Y0655432D01*
X0780970Y0656088D01*
X0780314Y0656527D01*
X0779539Y0656681D01*
D02*
G37*
G36*
X0812807Y0629120D02*
X0812413D01*
X0811630Y0629017D01*
X0810900Y0628715D01*
X0810274Y0628234D01*
X0810173Y0628102D01*
X0803047D01*
Y0624134D01*
X0810136D01*
X0810274Y0623955D01*
X0810900Y0623474D01*
X0811630Y0623172D01*
X0812242Y0623091D01*
Y0622571D01*
X0812345Y0621788D01*
X0812496Y0621423D01*
Y0618421D01*
X0818039D01*
Y0621423D01*
X0818190Y0621788D01*
X0818294Y0622571D01*
Y0624146D01*
X0818190Y0624929D01*
X0818039Y0625294D01*
Y0628295D01*
X0814867D01*
X0814320Y0628715D01*
X0813590Y0629017D01*
X0812807Y0629120D01*
D02*
G37*
G36*
X0796583Y0603295D02*
X0792220D01*
Y0602142D01*
X0789693D01*
Y0603295D01*
X0784543D01*
Y0598146D01*
X0789693D01*
Y0599299D01*
X0792220D01*
Y0597791D01*
X0792220Y0597752D01*
X0792220Y0597291D01*
X0792220Y0597252D01*
Y0595645D01*
X0789693D01*
Y0596799D01*
X0784543D01*
Y0591650D01*
X0789693D01*
Y0592803D01*
X0792220D01*
Y0591748D01*
X0796583D01*
Y0597252D01*
X0796583Y0597291D01*
X0796583Y0597752D01*
X0796583Y0597791D01*
Y0603295D01*
D02*
G37*
G36*
X0818039Y0616878D02*
X0812496D01*
Y0613876D01*
X0812345Y0613512D01*
X0812242Y0612728D01*
Y0611547D01*
X0812345Y0610764D01*
X0812647Y0610034D01*
X0813087Y0609462D01*
Y0607334D01*
X0812647Y0606761D01*
X0812345Y0606031D01*
X0812242Y0605248D01*
Y0604854D01*
X0812299Y0604418D01*
Y0599524D01*
X0818236D01*
Y0604418D01*
X0818294Y0604854D01*
Y0605248D01*
X0818190Y0606031D01*
X0817888Y0606761D01*
X0817449Y0607334D01*
Y0609462D01*
X0817888Y0610034D01*
X0818190Y0610764D01*
X0818294Y0611547D01*
Y0612728D01*
X0818190Y0613512D01*
X0818039Y0613876D01*
Y0616878D01*
D02*
G37*
%LPD*%
G36*
X0742869Y0699091D02*
X0742819Y0699027D01*
X0742775Y0698959D01*
X0742736Y0698886D01*
X0742704Y0698809D01*
X0742677Y0698728D01*
X0742657Y0698643D01*
X0742644Y0698566D01*
X0742661Y0698275D01*
X0742672Y0698220D01*
X0742685Y0698181D01*
X0742700Y0698157D01*
X0742716Y0698149D01*
X0741756D01*
X0741773Y0698157D01*
X0741787Y0698181D01*
X0741800Y0698220D01*
X0741811Y0698275D01*
X0741821Y0698346D01*
X0741834Y0698521D01*
X0741831Y0698553D01*
X0741816Y0698643D01*
X0741795Y0698728D01*
X0741769Y0698809D01*
X0741736Y0698886D01*
X0741698Y0698959D01*
X0741653Y0699027D01*
X0741603Y0699091D01*
X0741547Y0699151D01*
X0742925D01*
X0742869Y0699091D01*
D02*
G37*
G36*
X0747674Y0695996D02*
X0747666Y0696071D01*
X0747642Y0696138D01*
X0747602Y0696197D01*
X0747546Y0696248D01*
X0747474Y0696291D01*
X0747386Y0696327D01*
X0747282Y0696354D01*
X0747162Y0696374D01*
X0747157Y0696374D01*
X0747153Y0696374D01*
X0747033Y0696354D01*
X0746929Y0696327D01*
X0746841Y0696291D01*
X0746769Y0696248D01*
X0746713Y0696197D01*
X0746673Y0696138D01*
X0746649Y0696071D01*
X0746641Y0695996D01*
Y0697571D01*
X0746649Y0697496D01*
X0746673Y0697429D01*
X0746713Y0697370D01*
X0746769Y0697319D01*
X0746841Y0697276D01*
X0746929Y0697240D01*
X0747033Y0697213D01*
X0747153Y0697193D01*
X0747157Y0697192D01*
X0747162Y0697193D01*
X0747282Y0697213D01*
X0747386Y0697240D01*
X0747474Y0697276D01*
X0747546Y0697319D01*
X0747602Y0697370D01*
X0747642Y0697429D01*
X0747666Y0697496D01*
X0747674Y0697571D01*
Y0695996D01*
D02*
G37*
G36*
X0743737D02*
X0743729Y0696071D01*
X0743705Y0696138D01*
X0743665Y0696197D01*
X0743609Y0696248D01*
X0743537Y0696291D01*
X0743449Y0696327D01*
X0743345Y0696354D01*
X0743225Y0696374D01*
X0743221Y0696374D01*
X0743216Y0696374D01*
X0743096Y0696354D01*
X0742992Y0696327D01*
X0742904Y0696291D01*
X0742832Y0696248D01*
X0742776Y0696197D01*
X0742736Y0696138D01*
X0742712Y0696071D01*
X0742704Y0695996D01*
Y0697571D01*
X0742712Y0697496D01*
X0742736Y0697429D01*
X0742776Y0697370D01*
X0742832Y0697319D01*
X0742904Y0697276D01*
X0742992Y0697240D01*
X0743096Y0697213D01*
X0743216Y0697193D01*
X0743221Y0697192D01*
X0743225Y0697193D01*
X0743345Y0697213D01*
X0743449Y0697240D01*
X0743537Y0697276D01*
X0743609Y0697319D01*
X0743665Y0697370D01*
X0743705Y0697429D01*
X0743729Y0697496D01*
X0743737Y0697571D01*
Y0695996D01*
D02*
G37*
G36*
X0749642D02*
X0749634Y0696071D01*
X0749610Y0696138D01*
X0749570Y0696197D01*
X0749514Y0696248D01*
X0749442Y0696291D01*
X0749354Y0696327D01*
X0749250Y0696354D01*
X0749130Y0696374D01*
X0749126Y0696374D01*
X0749122Y0696374D01*
X0749002Y0696354D01*
X0748898Y0696327D01*
X0748810Y0696291D01*
X0748738Y0696248D01*
X0748682Y0696197D01*
X0748642Y0696138D01*
X0748618Y0696071D01*
X0748610Y0695996D01*
Y0697571D01*
X0748618Y0697496D01*
X0748642Y0697429D01*
X0748682Y0697370D01*
X0748738Y0697319D01*
X0748810Y0697276D01*
X0748898Y0697240D01*
X0749002Y0697213D01*
X0749122Y0697193D01*
X0749126Y0697192D01*
X0749130Y0697193D01*
X0749250Y0697213D01*
X0749354Y0697240D01*
X0749442Y0697276D01*
X0749514Y0697319D01*
X0749570Y0697370D01*
X0749610Y0697429D01*
X0749634Y0697496D01*
X0749642Y0697571D01*
Y0695996D01*
D02*
G37*
G36*
X0745705D02*
X0745697Y0696071D01*
X0745673Y0696138D01*
X0745633Y0696197D01*
X0745577Y0696248D01*
X0745505Y0696291D01*
X0745417Y0696327D01*
X0745313Y0696354D01*
X0745193Y0696374D01*
X0745189Y0696374D01*
X0745185Y0696374D01*
X0745064Y0696354D01*
X0744961Y0696327D01*
X0744873Y0696291D01*
X0744801Y0696248D01*
X0744745Y0696197D01*
X0744705Y0696138D01*
X0744681Y0696071D01*
X0744673Y0695996D01*
Y0697571D01*
X0744681Y0697496D01*
X0744705Y0697429D01*
X0744745Y0697370D01*
X0744801Y0697319D01*
X0744873Y0697276D01*
X0744961Y0697240D01*
X0745064Y0697213D01*
X0745185Y0697193D01*
X0745189Y0697192D01*
X0745193Y0697193D01*
X0745313Y0697213D01*
X0745417Y0697240D01*
X0745505Y0697276D01*
X0745577Y0697319D01*
X0745633Y0697370D01*
X0745673Y0697429D01*
X0745697Y0697496D01*
X0745705Y0697571D01*
Y0695996D01*
D02*
G37*
G36*
X0800554Y0694148D02*
X0800555Y0694141D01*
X0801083Y0694138D01*
X0800982Y0694126D01*
X0800892Y0694091D01*
X0800813Y0694032D01*
X0800744Y0693949D01*
X0800686Y0693843D01*
X0800638Y0693713D01*
X0800622Y0693648D01*
X0800625Y0693642D01*
X0800644Y0693608D01*
X0800665Y0693583D01*
X0800606Y0693580D01*
X0800601Y0693559D01*
X0800574Y0693382D01*
X0800558Y0693181D01*
X0800553Y0692957D01*
X0799372D01*
X0799366Y0693183D01*
X0799348Y0693385D01*
X0799327Y0693516D01*
X0799289Y0693514D01*
X0799304Y0693537D01*
X0799318Y0693568D01*
X0799277Y0693719D01*
X0799224Y0693850D01*
X0799159Y0693958D01*
X0799083Y0694041D01*
X0798994Y0694101D01*
X0798894Y0694137D01*
X0798781Y0694150D01*
X0799371Y0694147D01*
X0799372Y0694185D01*
X0800553Y0694259D01*
X0800554Y0694148D01*
D02*
G37*
G36*
X0800558Y0692580D02*
X0800574Y0692385D01*
X0800601Y0692214D01*
X0800626Y0692112D01*
X0800665Y0692110D01*
X0800644Y0692085D01*
X0800636Y0692072D01*
X0800638Y0692065D01*
X0800686Y0691939D01*
X0800744Y0691836D01*
X0800813Y0691756D01*
X0800892Y0691699D01*
X0800982Y0691665D01*
X0801083Y0691653D01*
X0800558D01*
X0800558Y0691646D01*
X0800553Y0691434D01*
X0799372Y0691508D01*
X0799371Y0691619D01*
X0799369Y0691653D01*
X0798819D01*
X0798924Y0691665D01*
X0799018Y0691699D01*
X0799101Y0691756D01*
X0799173Y0691836D01*
X0799234Y0691939D01*
X0799284Y0692065D01*
X0799306Y0692152D01*
X0799304Y0692156D01*
X0799289Y0692179D01*
X0799313Y0692178D01*
X0799322Y0692214D01*
X0799350Y0692385D01*
X0799367Y0692580D01*
X0799372Y0692797D01*
X0800553D01*
X0800558Y0692580D01*
D02*
G37*
G36*
X0759756Y0684776D02*
X0759362Y0684382D01*
Y0674539D01*
X0748732D01*
Y0681232D01*
Y0685169D01*
X0749323D01*
X0749375Y0685256D01*
X0749427Y0685386D01*
X0749468Y0685539D01*
X0749497Y0685716D01*
X0749514Y0685917D01*
X0749520Y0686141D01*
X0750701D01*
X0750707Y0685917D01*
X0750724Y0685716D01*
X0750753Y0685539D01*
X0750793Y0685386D01*
X0750845Y0685256D01*
X0750897Y0685169D01*
X0752276D01*
X0755819Y0688713D01*
X0759756D01*
Y0684776D01*
D02*
G37*
G36*
X0780117Y0653860D02*
X0780073Y0653823D01*
X0780033Y0653778D01*
X0779999Y0653726D01*
X0779969Y0653666D01*
X0779943Y0653598D01*
X0779923Y0653523D01*
X0779906Y0653440D01*
X0779895Y0653349D01*
X0779888Y0653251D01*
X0779886Y0653146D01*
X0778901Y0653317D01*
X0778900Y0653424D01*
X0778878Y0653702D01*
X0778864Y0653780D01*
X0778848Y0653851D01*
X0778829Y0653915D01*
X0778807Y0653972D01*
X0778782Y0654022D01*
X0778754Y0654065D01*
X0780117Y0653860D01*
D02*
G37*
G36*
X0779886Y0645469D02*
X0779887Y0645362D01*
X0779909Y0645084D01*
X0779922Y0645006D01*
X0779939Y0644935D01*
X0779958Y0644871D01*
X0779980Y0644814D01*
X0780005Y0644764D01*
X0780033Y0644722D01*
X0778670Y0644926D01*
X0778714Y0644963D01*
X0778754Y0645008D01*
X0778788Y0645060D01*
X0778818Y0645120D01*
X0778844Y0645188D01*
X0778864Y0645263D01*
X0778881Y0645346D01*
X0778892Y0645437D01*
X0778899Y0645535D01*
X0778901Y0645641D01*
X0779886Y0645469D01*
D02*
G37*
G36*
X0793245Y0599933D02*
X0793236Y0600008D01*
X0793213Y0600075D01*
X0793173Y0600134D01*
X0793117Y0600185D01*
X0793045Y0600228D01*
X0792957Y0600264D01*
X0792853Y0600291D01*
X0792733Y0600311D01*
X0792597Y0600323D01*
X0792445Y0600327D01*
Y0601114D01*
X0792597Y0601118D01*
X0792733Y0601130D01*
X0792853Y0601150D01*
X0792957Y0601177D01*
X0793045Y0601213D01*
X0793117Y0601256D01*
X0793173Y0601307D01*
X0793213Y0601366D01*
X0793236Y0601433D01*
X0793245Y0601508D01*
Y0599933D01*
D02*
G37*
G36*
X0788677Y0601433D02*
X0788701Y0601366D01*
X0788741Y0601307D01*
X0788797Y0601256D01*
X0788869Y0601213D01*
X0788957Y0601177D01*
X0789061Y0601150D01*
X0789181Y0601130D01*
X0789316Y0601118D01*
X0789468Y0601114D01*
Y0600327D01*
X0789316Y0600323D01*
X0789181Y0600311D01*
X0789061Y0600291D01*
X0788957Y0600264D01*
X0788869Y0600228D01*
X0788797Y0600185D01*
X0788741Y0600134D01*
X0788701Y0600075D01*
X0788677Y0600008D01*
X0788669Y0599933D01*
Y0601508D01*
X0788677Y0601433D01*
D02*
G37*
G36*
X0793245Y0593437D02*
X0793236Y0593512D01*
X0793213Y0593579D01*
X0793173Y0593638D01*
X0793117Y0593689D01*
X0793045Y0593732D01*
X0792957Y0593768D01*
X0792853Y0593795D01*
X0792733Y0593815D01*
X0792597Y0593827D01*
X0792445Y0593831D01*
Y0594618D01*
X0792597Y0594622D01*
X0792733Y0594634D01*
X0792853Y0594654D01*
X0792957Y0594681D01*
X0793045Y0594717D01*
X0793117Y0594760D01*
X0793173Y0594811D01*
X0793213Y0594870D01*
X0793236Y0594937D01*
X0793245Y0595012D01*
Y0593437D01*
D02*
G37*
G36*
X0788677Y0594937D02*
X0788701Y0594870D01*
X0788741Y0594811D01*
X0788797Y0594760D01*
X0788869Y0594717D01*
X0788957Y0594681D01*
X0789061Y0594654D01*
X0789181Y0594634D01*
X0789316Y0594622D01*
X0789468Y0594618D01*
Y0593831D01*
X0789316Y0593827D01*
X0789181Y0593815D01*
X0789061Y0593795D01*
X0788957Y0593768D01*
X0788869Y0593732D01*
X0788797Y0593689D01*
X0788741Y0593638D01*
X0788701Y0593579D01*
X0788677Y0593512D01*
X0788669Y0593437D01*
Y0595012D01*
X0788677Y0594937D01*
D02*
G37*
D11*
X0755526Y0618857D02*
Y0622179D01*
X0753949Y0617280D02*
X0755526Y0618857D01*
X0753949Y0616961D02*
Y0617280D01*
Y0607922D02*
Y0616961D01*
Y0607922D02*
X0759372Y0602499D01*
X0744205Y0676508D02*
Y0677453D01*
X0740957Y0680700D02*
X0744205Y0677453D01*
X0740957Y0680700D02*
Y0687138D01*
X0756016Y0594224D02*
Y0595307D01*
X0816941Y0691173D02*
X0821756D01*
X0815268Y0692846D02*
X0816941Y0691173D01*
X0815268Y0692846D02*
Y0694913D01*
X0740860Y0625624D02*
X0742927D01*
X0721278Y0606041D02*
X0740860Y0625624D01*
X0717087Y0606041D02*
X0721278D01*
X0739465Y0629330D02*
Y0631020D01*
X0739777Y0631333D01*
X0727670Y0617535D02*
X0739465Y0629330D01*
X0715392Y0601667D02*
Y0604346D01*
X0712728Y0599003D02*
X0715392Y0601667D01*
X0712728Y0598378D02*
Y0599003D01*
X0715392Y0604346D02*
X0717087Y0606041D01*
X0712728Y0603909D02*
X0715228Y0606410D01*
X0712728Y0603378D02*
Y0603909D01*
X0715228Y0606410D02*
Y0614108D01*
X0718656Y0617535D01*
X0727670D01*
X0728653Y0603378D02*
X0732492Y0599539D01*
X0719125Y0603378D02*
X0728653D01*
X0710266Y0606447D02*
X0710798D01*
X0710248Y0606429D02*
X0710266Y0606447D01*
X0710798D02*
X0712728Y0608378D01*
X0801583Y0612433D02*
Y0618736D01*
Y0609279D02*
Y0612433D01*
X0719984Y0679264D02*
Y0689295D01*
X0759372Y0598537D02*
Y0602499D01*
X0732492Y0599539D02*
X0743221D01*
X0819500Y0669028D02*
Y0678673D01*
Y0667748D02*
Y0669028D01*
X0821469Y0663122D02*
Y0665779D01*
Y0663122D02*
X0821567Y0663024D01*
X0819500Y0667748D02*
X0821469Y0665779D01*
X0821567Y0658496D02*
Y0663024D01*
X0821370Y0658299D02*
X0821567Y0658496D01*
X0823429Y0679362D02*
Y0689500D01*
X0821756Y0691173D02*
X0823429Y0689500D01*
X0822740Y0678673D02*
X0823429Y0679362D01*
X0820386Y0678673D02*
X0822740D01*
X0813201Y0648949D02*
X0814283D01*
X0811150Y0650999D02*
X0813201Y0648949D01*
X0807678Y0650999D02*
X0811150D01*
X0807386Y0651291D02*
X0807678Y0650999D01*
X0757984Y0597150D02*
X0759372Y0598537D01*
X0757984Y0595012D02*
Y0597150D01*
X0757197Y0594224D02*
X0757984Y0595012D01*
X0756606Y0594224D02*
X0757197D01*
X0751193Y0600130D02*
X0756016Y0595307D01*
Y0594224D02*
X0756606D01*
X0750602Y0600130D02*
X0751193D01*
X0821370Y0656232D02*
Y0658299D01*
X0819706Y0654568D02*
X0821370Y0656232D01*
X0807474Y0654568D02*
X0819706D01*
X0807386Y0654480D02*
X0807474Y0654568D01*
X0743221Y0599539D02*
X0746468D01*
X0747059Y0600130D01*
X0750602D01*
X0782590Y0609972D02*
Y0618831D01*
X0781803Y0609185D02*
X0782590Y0609972D01*
X0777669Y0600721D02*
X0780819D01*
X0773142Y0605248D02*
X0777669Y0600721D01*
X0773142Y0605248D02*
Y0618831D01*
X0769992Y0605051D02*
X0780819Y0594224D01*
X0769992Y0605051D02*
Y0618831D01*
X0794106Y0594224D02*
X0794402Y0594520D01*
X0787118Y0594224D02*
X0794106D01*
X0794205Y0600721D02*
X0794402Y0600524D01*
X0787118Y0600721D02*
X0794205D01*
X0801488Y0609185D02*
X0801583Y0609279D01*
Y0618736D02*
X0801677Y0618831D01*
X0798366Y0611969D02*
Y0618831D01*
X0795583Y0609185D02*
X0798366Y0611969D01*
X0787610Y0609972D02*
Y0610686D01*
X0785740Y0612557D02*
X0787610Y0610686D01*
X0785740Y0612557D02*
Y0618831D01*
X0781410Y0667453D02*
Y0669815D01*
Y0667453D02*
X0782571Y0666291D01*
Y0661815D02*
Y0666291D01*
Y0661815D02*
X0782622Y0661764D01*
X0774717Y0669618D02*
Y0670209D01*
Y0669618D02*
X0776323Y0668012D01*
Y0661764D02*
Y0668012D01*
X0768811Y0669618D02*
Y0670209D01*
X0766835Y0667642D02*
X0768811Y0669618D01*
X0766835Y0661764D02*
Y0667642D01*
X0736484Y0674889D02*
Y0676114D01*
X0727465Y0679067D02*
X0727669D01*
X0734165Y0672571D02*
X0736484Y0674889D01*
Y0676114D02*
X0736528D01*
X0727669Y0679067D02*
X0734165Y0672571D01*
Y0669421D02*
Y0672571D01*
X0742236Y0696783D02*
Y0699854D01*
X0740957Y0687138D02*
X0742236Y0688417D01*
Y0689303D01*
X0736528Y0687138D02*
X0740957D01*
X0724681D02*
X0736528D01*
X0748142Y0696783D02*
X0750110D01*
X0746173D02*
X0748142D01*
X0744205D02*
X0746173D01*
X0742236D02*
X0744205D01*
Y0683201D02*
Y0689303D01*
X0742236D02*
X0742319Y0689221D01*
X0734756Y0669421D02*
X0738496Y0665681D01*
Y0650524D02*
Y0665681D01*
Y0650524D02*
X0739284Y0649736D01*
X0734165Y0669421D02*
X0734756D01*
X0739284Y0649736D02*
X0742827D01*
X0711413Y0685957D02*
X0714087D01*
X0711020Y0686350D02*
X0711413Y0685957D01*
X0723894Y0671559D02*
Y0686350D01*
X0723724Y0671390D02*
X0723894Y0671559D01*
Y0686350D02*
X0724681Y0687138D01*
X0719984Y0689295D02*
X0723142Y0692453D01*
Y0693043D01*
X0711020Y0692732D02*
X0711331Y0693043D01*
X0711020Y0686350D02*
Y0692732D01*
X0727465Y0679067D02*
Y0679264D01*
X0730016Y0655235D02*
X0734165Y0659384D01*
Y0663516D01*
X0730016Y0655232D02*
Y0655235D01*
X0728260Y0653476D02*
X0730016Y0655232D01*
X0725307Y0653476D02*
X0728260D01*
X0725110Y0653673D02*
X0725307Y0653476D01*
X0729067Y0648555D02*
X0730839Y0646783D01*
X0732984D01*
X0733772Y0645996D01*
X0725110Y0648555D02*
X0729067D01*
X0729047Y0651291D02*
X0730445Y0652689D01*
X0732984D01*
X0733772Y0653476D01*
X0725287Y0651291D02*
X0729047D01*
X0725110Y0651114D02*
X0725287Y0651291D01*
D13*
X0751374Y0607232D02*
X0756606Y0602000D01*
X0751374Y0619520D02*
Y0622280D01*
Y0607232D02*
Y0619520D01*
X0750110Y0683201D02*
X0750110Y0683201D01*
Y0689303D01*
X0799963Y0692797D02*
X0800012Y0692846D01*
X0799963Y0689943D02*
Y0692797D01*
X0799913Y0689894D02*
X0799963Y0689943D01*
Y0692896D02*
X0800012Y0692846D01*
X0799963Y0692896D02*
Y0695848D01*
X0799913Y0695898D02*
X0799963Y0695848D01*
X0751374Y0622280D02*
X0751685Y0622591D01*
X0756606Y0600130D02*
Y0602000D01*
X0745598Y0657201D02*
X0747945Y0654854D01*
Y0647965D02*
Y0654854D01*
X0746173Y0646193D02*
X0747945Y0647965D01*
X0757374Y0657630D02*
X0760929D01*
X0748732Y0666272D02*
X0757374Y0657630D01*
X0748732Y0658988D02*
X0749323Y0659579D01*
X0756587Y0654480D02*
X0760929D01*
X0751488Y0659579D02*
X0756587Y0654480D01*
X0749323Y0659579D02*
X0751488D01*
X0748732Y0658988D02*
Y0659579D01*
X0742827Y0645996D02*
X0743024Y0646193D01*
X0742630Y0645799D02*
X0742827Y0645996D01*
X0743024Y0646193D02*
X0746173D01*
X0745598Y0657201D02*
Y0662909D01*
X0742827Y0665681D02*
X0745598Y0662909D01*
X0742827Y0665681D02*
Y0666272D01*
Y0653476D02*
Y0659579D01*
D21*
Y0645996D02*
D03*
Y0649736D02*
D03*
Y0653476D02*
D03*
X0733772Y0645996D02*
D03*
Y0649736D02*
D03*
Y0653476D02*
D03*
D22*
X0713890Y0633791D02*
D03*
Y0663319D02*
D03*
D23*
X0724224Y0661154D02*
D03*
Y0635957D02*
D03*
D24*
X0725110Y0653673D02*
D03*
Y0651114D02*
D03*
Y0648555D02*
D03*
Y0645996D02*
D03*
Y0643437D02*
D03*
D25*
X0820386Y0700819D02*
D03*
X0817827D02*
D03*
X0815268D02*
D03*
X0820386Y0694913D02*
D03*
X0817827D02*
D03*
X0815268D02*
D03*
D26*
X0811862Y0678673D02*
D03*
Y0686350D02*
D03*
Y0683791D02*
D03*
Y0681232D02*
D03*
X0819500Y0678673D02*
D03*
Y0686350D02*
D03*
Y0683791D02*
D03*
Y0681232D02*
D03*
D27*
X0717236Y0693043D02*
D03*
X0711331D02*
D03*
X0729047D02*
D03*
X0723142D02*
D03*
X0750110Y0683201D02*
D03*
X0744205D02*
D03*
Y0676508D02*
D03*
X0750110D02*
D03*
X0799913Y0701902D02*
D03*
X0805819D02*
D03*
X0799913Y0695898D02*
D03*
X0805819D02*
D03*
X0799913Y0689894D02*
D03*
X0805819D02*
D03*
X0799913Y0683988D02*
D03*
X0805819D02*
D03*
X0799913Y0678083D02*
D03*
X0805819D02*
D03*
X0794402Y0600524D02*
D03*
X0800307D02*
D03*
X0794402Y0594520D02*
D03*
X0800307D02*
D03*
X0748732Y0665681D02*
D03*
X0742827D02*
D03*
X0748732Y0659579D02*
D03*
X0742827D02*
D03*
X0745780Y0640469D02*
D03*
X0751685D02*
D03*
X0745780Y0634579D02*
D03*
X0751685D02*
D03*
X0745780Y0628594D02*
D03*
X0751685D02*
D03*
X0745780Y0622591D02*
D03*
X0751685D02*
D03*
X0774717Y0670209D02*
D03*
X0768811D02*
D03*
X0809362Y0608398D02*
D03*
X0815268D02*
D03*
D28*
X0736528Y0693043D02*
D03*
Y0687138D02*
D03*
Y0682020D02*
D03*
Y0676114D02*
D03*
X0734165Y0669421D02*
D03*
Y0663516D02*
D03*
X0757787Y0693043D02*
D03*
Y0687138D02*
D03*
X0815268Y0652394D02*
D03*
Y0658299D02*
D03*
X0821370Y0652394D02*
D03*
Y0658299D02*
D03*
X0781410Y0669815D02*
D03*
Y0675721D02*
D03*
X0815169Y0639205D02*
D03*
Y0645110D02*
D03*
X0815268Y0632020D02*
D03*
Y0626114D02*
D03*
Y0620602D02*
D03*
Y0614697D02*
D03*
X0756606Y0600130D02*
D03*
Y0594224D02*
D03*
X0750602D02*
D03*
Y0600130D02*
D03*
X0718417Y0625721D02*
D03*
Y0619815D02*
D03*
X0712512D02*
D03*
Y0625721D02*
D03*
D29*
X0742236Y0689303D02*
D03*
X0744205D02*
D03*
X0746173D02*
D03*
X0748142D02*
D03*
X0750110D02*
D03*
X0752079D02*
D03*
X0742236Y0696783D02*
D03*
X0744205D02*
D03*
X0746173D02*
D03*
X0748142D02*
D03*
X0750110D02*
D03*
X0752079D02*
D03*
D30*
X0747157Y0693043D02*
D03*
D31*
X0723894Y0686350D02*
D03*
X0711020D02*
D03*
D32*
X0727465Y0679264D02*
D03*
X0719984D02*
D03*
X0723724Y0671390D02*
D03*
D33*
X0780819Y0600721D02*
D03*
X0787118D02*
D03*
X0780819Y0594224D02*
D03*
X0787118D02*
D03*
D34*
X0774323Y0650130D02*
D03*
D35*
X0784165Y0650130D02*
D03*
X0794008Y0650130D02*
D03*
X0774323Y0640287D02*
D03*
X0784165D02*
D03*
X0794008D02*
D03*
X0774224Y0630445D02*
D03*
X0784165D02*
D03*
X0794008D02*
D03*
X0722917Y0702098D02*
D03*
D36*
X0815268Y0602492D02*
D03*
D37*
X0809461Y0596587D02*
D03*
X0821075D02*
D03*
D38*
X0712728Y0608378D02*
D03*
X0717728D02*
D03*
X0712728Y0603378D02*
D03*
X0717728D02*
D03*
X0712728Y0598378D02*
D03*
X0717728D02*
D03*
D39*
X0743221Y0599539D02*
D03*
X0727079D02*
D03*
Y0593240D02*
D03*
X0743221D02*
D03*
D66*
X0787709Y0609185D02*
D03*
X0781803D02*
D03*
X0801488D02*
D03*
X0821567Y0663024D02*
D03*
X0815268Y0663122D02*
D03*
X0756213Y0681232D02*
D03*
X0712512Y0672571D02*
D03*
X0795583Y0609185D02*
D03*
D67*
X0713890Y0652591D02*
D03*
Y0644520D02*
D03*
D68*
X0760929Y0657630D02*
D03*
Y0654480D02*
D03*
Y0651291D02*
D03*
Y0648142D02*
D03*
Y0644992D02*
D03*
Y0641843D02*
D03*
Y0638732D02*
D03*
Y0635543D02*
D03*
Y0632394D02*
D03*
Y0629284D02*
D03*
Y0626094D02*
D03*
Y0622984D02*
D03*
X0807394Y0622965D02*
D03*
Y0626118D02*
D03*
X0807394Y0629276D02*
D03*
X0807394Y0632413D02*
D03*
X0807394Y0635563D02*
D03*
X0807394Y0638713D02*
D03*
X0807386Y0641843D02*
D03*
Y0645031D02*
D03*
Y0648181D02*
D03*
Y0651291D02*
D03*
Y0654480D02*
D03*
Y0657630D02*
D03*
D69*
X0766835Y0618831D02*
D03*
X0769992D02*
D03*
X0773142D02*
D03*
X0776291Y0618831D02*
D03*
X0779441Y0618831D02*
D03*
X0782590Y0618831D02*
D03*
X0785740D02*
D03*
X0788890Y0618835D02*
D03*
X0792039Y0618835D02*
D03*
X0795189Y0618831D02*
D03*
X0798366D02*
D03*
X0801677Y0618831D02*
D03*
X0801520Y0661764D02*
D03*
X0798331D02*
D03*
X0795221D02*
D03*
X0792071D02*
D03*
X0788921D02*
D03*
X0785772D02*
D03*
X0782622D02*
D03*
X0779472D02*
D03*
X0776323D02*
D03*
X0773173D02*
D03*
X0770024D02*
D03*
X0766835D02*
D03*
D70*
X0821173Y0651705D02*
X0821862Y0652394D01*
X0815169Y0645110D02*
X0819598D01*
X0821173Y0646685D02*
Y0651705D01*
X0819598Y0645110D02*
X0821173Y0646685D01*
X0815268Y0652394D02*
X0821370D01*
X0821862D01*
X0811134Y0645110D02*
X0815169D01*
X0751685Y0640469D02*
X0751768Y0640551D01*
X0724492Y0700524D02*
X0726291D01*
X0729047Y0697768D01*
X0722917Y0702098D02*
X0724492Y0700524D01*
X0729047Y0693043D02*
Y0697768D01*
D71*
X0751768Y0640551D02*
X0751784Y0640535D01*
Y0629284D02*
Y0640535D01*
Y0622689D02*
Y0629284D01*
X0754638Y0676803D02*
X0755524Y0675917D01*
X0754441Y0676803D02*
X0754638D01*
D72*
X0755228Y0645012D02*
Y0646882D01*
Y0641843D02*
Y0645012D01*
X0755248Y0644992D01*
X0760929D01*
X0755228Y0641843D02*
X0760929D01*
X0752276D02*
X0755228D01*
Y0646882D02*
X0756488Y0648142D01*
X0760929D01*
X0751685Y0629185D02*
X0751784Y0629284D01*
X0751685Y0628594D02*
Y0629185D01*
D73*
X0779248Y0644129D02*
X0779393Y0644275D01*
Y0654512D01*
X0779539Y0654658D01*
X0816055Y0689500D02*
X0820002D01*
X0813102Y0692453D02*
X0816055Y0689500D01*
X0813102Y0692453D02*
Y0700130D01*
X0722956Y0598378D02*
X0724944Y0596390D01*
X0717728Y0598378D02*
X0722956D01*
X0724944Y0596390D02*
X0738693D01*
X0798343Y0674248D02*
X0808768D01*
X0813595Y0669421D01*
X0797317Y0671772D02*
X0806139D01*
X0795279Y0673810D02*
X0797317Y0671772D01*
X0806139D02*
X0810966Y0666945D01*
X0816350D01*
X0795279Y0673810D02*
Y0675385D01*
X0816449Y0666075D02*
Y0680051D01*
X0815268Y0664894D02*
X0816449Y0666075D01*
Y0680051D02*
X0817630Y0681232D01*
X0795091Y0675573D02*
X0795279Y0675385D01*
X0815268Y0658299D02*
Y0663122D01*
Y0664894D01*
X0813102Y0700130D02*
X0813890Y0700917D01*
X0805819Y0686941D02*
Y0689894D01*
Y0683988D02*
Y0686941D01*
X0806409Y0686350D02*
X0811862D01*
X0805819Y0681035D02*
Y0683988D01*
Y0678083D02*
Y0681035D01*
X0806016Y0681232D01*
X0811862D01*
X0814480D02*
X0817039Y0683791D01*
X0819500D01*
X0811862Y0681232D02*
X0814480D01*
X0805819Y0683988D02*
X0805917Y0684087D01*
X0808378Y0704461D02*
X0816941D01*
X0805819Y0701902D02*
X0808378Y0704461D01*
X0816941D02*
X0817827Y0703575D01*
Y0700819D02*
Y0703575D01*
X0805819Y0695898D02*
Y0701902D01*
X0817630Y0681232D02*
X0819500D01*
X0820878D02*
X0821557Y0681911D01*
X0819500Y0681232D02*
X0820878D01*
X0821557Y0681911D02*
Y0687945D01*
X0820002Y0689500D02*
X0821557Y0687945D01*
X0813890Y0700917D02*
X0815169D01*
X0815268Y0700819D01*
X0814933Y0657965D02*
X0815268Y0658299D01*
X0807720Y0657965D02*
X0814933D01*
X0807386Y0657630D02*
X0807720Y0657965D01*
X0802012Y0664307D02*
X0803953D01*
X0801520Y0663815D02*
X0802012Y0664307D01*
X0801520Y0661764D02*
Y0663815D01*
X0798331Y0657315D02*
Y0661764D01*
D74*
X0812413Y0626094D02*
X0812807D01*
X0815268Y0622571D02*
Y0624146D01*
Y0611547D02*
Y0612728D01*
Y0604854D02*
Y0605248D01*
D75*
X0712917Y0702098D02*
D03*
D76*
X0719228Y0613378D02*
D03*
X0711228D02*
D03*
X0715228Y0593378D02*
D03*
D77*
X0762217Y0612335D02*
D03*
X0756606Y0612532D02*
D03*
X0716252Y0689106D02*
D03*
X0740646Y0675524D02*
D03*
X0744500Y0669520D02*
D03*
X0755524Y0651454D02*
D03*
X0755440Y0638516D02*
D03*
X0755370Y0635366D02*
D03*
Y0632020D02*
D03*
X0755379Y0628870D02*
D03*
X0755429Y0625819D02*
D03*
X0755526Y0622179D02*
D03*
X0753949Y0616961D02*
D03*
X0751374Y0619520D02*
D03*
X0779248Y0644129D02*
D03*
X0781180Y0639598D02*
D03*
X0767728Y0656035D02*
D03*
X0733181Y0693043D02*
D03*
X0810136Y0676409D02*
D03*
X0742927Y0625624D02*
D03*
X0723437Y0614500D02*
D03*
X0710248Y0606429D02*
D03*
X0720583Y0593732D02*
D03*
X0739777Y0631333D02*
D03*
X0743910Y0618929D02*
D03*
X0741547Y0621788D02*
D03*
X0747157Y0629362D02*
D03*
Y0622669D02*
D03*
X0821961Y0695209D02*
D03*
X0809898Y0699854D02*
D03*
X0809953Y0696291D02*
D03*
X0810051Y0689894D02*
D03*
X0795976Y0686476D02*
D03*
X0790858Y0686842D02*
D03*
X0790760Y0681724D02*
D03*
X0790563Y0676705D02*
D03*
X0807984Y0660760D02*
D03*
X0810543Y0662532D02*
D03*
X0793417Y0654165D02*
D03*
X0767925Y0641567D02*
D03*
X0789579Y0625819D02*
D03*
X0790858Y0639801D02*
D03*
X0768910Y0645799D02*
D03*
X0760150Y0667354D02*
D03*
X0757000Y0671291D02*
D03*
X0741350Y0671095D02*
D03*
X0754723Y0692945D02*
D03*
X0732492Y0689943D02*
D03*
X0732000Y0679658D02*
D03*
X0728457Y0683988D02*
D03*
X0716252Y0697571D02*
D03*
X0709756Y0697669D02*
D03*
X0715169Y0679264D02*
D03*
X0718221Y0672582D02*
D03*
X0710347Y0678673D02*
D03*
X0800898Y0654362D02*
D03*
Y0638614D02*
D03*
X0793024Y0701606D02*
D03*
X0789087Y0693732D02*
D03*
X0785150Y0701606D02*
D03*
X0777276Y0607118D02*
D03*
X0765465Y0677984D02*
D03*
Y0599244D02*
D03*
X0757591Y0662236D02*
D03*
X0761528Y0607118D02*
D03*
X0753653Y0701606D02*
D03*
X0745780D02*
D03*
X0741843Y0614992D02*
D03*
X0745780Y0607118D02*
D03*
X0737906Y0701606D02*
D03*
Y0638614D02*
D03*
X0733968Y0630740D02*
D03*
Y0614992D02*
D03*
X0737906Y0607118D02*
D03*
X0730031Y0701606D02*
D03*
Y0607118D02*
D03*
X0741941Y0641272D02*
D03*
X0735817Y0641468D02*
D03*
X0730524Y0625524D02*
D03*
X0730409Y0630445D02*
D03*
X0730721Y0636154D02*
D03*
Y0641173D02*
D03*
X0726784Y0620012D02*
D03*
X0722847Y0619913D02*
D03*
X0732197Y0593142D02*
D03*
X0762315Y0597374D02*
D03*
X0772157Y0597079D02*
D03*
X0791843Y0611449D02*
D03*
X0776094Y0612039D02*
D03*
X0800012Y0692846D02*
D03*
X0801583Y0612433D02*
D03*
X0785740Y0658890D02*
D03*
X0788988D02*
D03*
X0719894Y0682905D02*
D03*
X0754441Y0604067D02*
D03*
X0738693Y0596390D02*
D03*
X0779539Y0654658D02*
D03*
X0819500Y0669028D02*
D03*
X0798343Y0674248D02*
D03*
X0813595Y0669421D02*
D03*
X0795091Y0675573D02*
D03*
X0814283Y0648949D02*
D03*
X0811134Y0645110D02*
D03*
X0782693Y0612241D02*
D03*
X0785740Y0612557D02*
D03*
X0803953Y0664307D02*
D03*
X0798331Y0657315D02*
D03*
X0782787Y0702689D02*
D03*
Y0699854D02*
D03*
Y0696783D02*
D03*
Y0693831D02*
D03*
X0779835D02*
D03*
X0776882D02*
D03*
Y0682020D02*
D03*
X0762118Y0702689D02*
D03*
Y0699736D02*
D03*
Y0696783D02*
D03*
Y0693831D02*
D03*
X0765071D02*
D03*
X0768024D02*
D03*
Y0690878D02*
D03*
Y0687925D02*
D03*
Y0684972D02*
D03*
Y0682020D02*
D03*
Y0679067D02*
D03*
Y0676114D02*
D03*
X0776882Y0679067D02*
D03*
Y0676114D02*
D03*
X0754441Y0676803D02*
D03*
X0819598Y0631823D02*
D03*
X0734165Y0672571D02*
D03*
X0819598Y0628476D02*
D03*
Y0625327D02*
D03*
Y0622177D02*
D03*
Y0619421D02*
D03*
Y0616272D02*
D03*
Y0613122D02*
D03*
Y0609972D02*
D03*
Y0607217D02*
D03*
Y0604461D02*
D03*
X0822354D02*
D03*
X0807787Y0612728D02*
D03*
X0805425D02*
D03*
Y0609972D02*
D03*
Y0606429D02*
D03*
X0810937Y0604067D02*
D03*
X0808181D02*
D03*
X0805425D02*
D03*
Y0601311D02*
D03*
Y0598555D02*
D03*
Y0595405D02*
D03*
Y0592256D02*
D03*
X0810543Y0612728D02*
D03*
X0810150Y0616272D02*
D03*
Y0619815D02*
D03*
X0742236Y0699854D02*
D03*
X0740957Y0687138D02*
D03*
X0714087Y0685957D02*
D03*
M02*
