G04*
G04 #@! TF.GenerationSoftware,Altium Limited,Altium Designer,19.0.14 (431)*
G04*
G04 Layer_Color=8421504*
%FSAX25Y25*%
%MOIN*%
G70*
G01*
G75*
%ADD17R,0.01929X0.03740*%
%ADD18R,0.03780X0.01968*%
%ADD19R,0.03740X0.01929*%
%ADD20R,0.03740X0.01929*%
%ADD21R,0.04724X0.02362*%
%ADD22R,0.07480X0.09055*%
%ADD23R,0.05512X0.06299*%
%ADD24R,0.05512X0.01575*%
%ADD25R,0.01378X0.04724*%
%ADD26R,0.01929X0.01772*%
%ADD27R,0.02362X0.03543*%
%ADD28R,0.03543X0.02362*%
%ADD29R,0.00984X0.02756*%
%ADD30R,0.07874X0.03110*%
%ADD31R,0.03583X0.04803*%
%ADD32R,0.03150X0.03543*%
%ADD33R,0.03150X0.03150*%
G04:AMPARAMS|DCode=34|XSize=59.06mil|YSize=59.06mil|CornerRadius=5.91mil|HoleSize=0mil|Usage=FLASHONLY|Rotation=0.000|XOffset=0mil|YOffset=0mil|HoleType=Round|Shape=RoundedRectangle|*
%AMROUNDEDRECTD34*
21,1,0.05906,0.04724,0,0,0.0*
21,1,0.04724,0.05906,0,0,0.0*
1,1,0.01181,0.02362,-0.02362*
1,1,0.01181,-0.02362,-0.02362*
1,1,0.01181,-0.02362,0.02362*
1,1,0.01181,0.02362,0.02362*
%
%ADD34ROUNDEDRECTD34*%
%ADD35R,0.05906X0.05906*%
%ADD36R,0.03937X0.03937*%
%ADD37R,0.04134X0.08661*%
%ADD38C,0.03098*%
%ADD39R,0.03543X0.03937*%
%ADD40C,0.05200*%
D17*
X0801500Y0660327D02*
D03*
X0798311D02*
D03*
X0795161D02*
D03*
X0792012Y0660327D02*
D03*
X0788862Y0660327D02*
D03*
X0785713D02*
D03*
X0782563Y0660327D02*
D03*
X0779453Y0660327D02*
D03*
X0776303Y0660327D02*
D03*
X0773153Y0660327D02*
D03*
X0770004D02*
D03*
X0766815Y0660287D02*
D03*
X0801657Y0620287D02*
D03*
X0798350Y0620287D02*
D03*
X0795161D02*
D03*
X0792012Y0620287D02*
D03*
X0788862D02*
D03*
X0785713D02*
D03*
X0782563Y0620287D02*
D03*
X0779413Y0620287D02*
D03*
X0776303Y0620287D02*
D03*
X0773153Y0620287D02*
D03*
X0769965D02*
D03*
X0766815D02*
D03*
D18*
X0805929Y0622945D02*
D03*
Y0626094D02*
D03*
Y0629244D02*
D03*
Y0632394D02*
D03*
Y0635543D02*
D03*
Y0638693D02*
D03*
Y0641843D02*
D03*
Y0644992D02*
D03*
Y0648142D02*
D03*
Y0651291D02*
D03*
Y0654441D02*
D03*
Y0657590D02*
D03*
X0762386Y0657630D02*
D03*
D19*
X0762366Y0622965D02*
D03*
Y0626114D02*
D03*
Y0629264D02*
D03*
Y0632413D02*
D03*
Y0635563D02*
D03*
Y0638713D02*
D03*
Y0641862D02*
D03*
Y0645012D02*
D03*
Y0651311D02*
D03*
Y0654500D02*
D03*
D20*
X0762366Y0648162D02*
D03*
D21*
X0742827Y0645996D02*
D03*
Y0649736D02*
D03*
Y0653476D02*
D03*
X0733772Y0645996D02*
D03*
Y0649736D02*
D03*
Y0653476D02*
D03*
D22*
X0713890Y0633791D02*
D03*
Y0663319D02*
D03*
D23*
X0724224Y0661154D02*
D03*
Y0635957D02*
D03*
D24*
X0725110Y0653673D02*
D03*
Y0651114D02*
D03*
Y0648555D02*
D03*
Y0645996D02*
D03*
Y0643437D02*
D03*
D25*
X0820386Y0700819D02*
D03*
X0817827D02*
D03*
X0815268D02*
D03*
X0820386Y0694913D02*
D03*
X0817827D02*
D03*
X0815268D02*
D03*
D26*
X0811862Y0678673D02*
D03*
Y0686350D02*
D03*
Y0683791D02*
D03*
Y0681232D02*
D03*
X0819500Y0678673D02*
D03*
Y0686350D02*
D03*
Y0683791D02*
D03*
Y0681232D02*
D03*
D27*
X0717236Y0693043D02*
D03*
X0711331D02*
D03*
X0729047D02*
D03*
X0723142D02*
D03*
X0750110Y0683201D02*
D03*
X0744205D02*
D03*
Y0676508D02*
D03*
X0750110D02*
D03*
X0799913Y0701902D02*
D03*
X0805819D02*
D03*
X0799913Y0695898D02*
D03*
X0805819D02*
D03*
X0799913Y0689894D02*
D03*
X0805819D02*
D03*
X0799913Y0683988D02*
D03*
X0805819D02*
D03*
X0799913Y0678083D02*
D03*
X0805819D02*
D03*
X0794402Y0600524D02*
D03*
X0800307D02*
D03*
X0794402Y0594520D02*
D03*
X0800307D02*
D03*
X0748732Y0665681D02*
D03*
X0742827D02*
D03*
X0748732Y0659579D02*
D03*
X0742827D02*
D03*
X0745780Y0640469D02*
D03*
X0751685D02*
D03*
X0745780Y0634579D02*
D03*
X0751685D02*
D03*
X0745780Y0628594D02*
D03*
X0751685D02*
D03*
X0745780Y0622591D02*
D03*
X0751685D02*
D03*
X0774717Y0670209D02*
D03*
X0768811D02*
D03*
X0809362Y0608398D02*
D03*
X0815268D02*
D03*
D28*
X0736528Y0693043D02*
D03*
Y0687138D02*
D03*
Y0682020D02*
D03*
Y0676114D02*
D03*
X0734165Y0669421D02*
D03*
Y0663516D02*
D03*
X0757787Y0693043D02*
D03*
Y0687138D02*
D03*
X0815268Y0652394D02*
D03*
Y0658299D02*
D03*
X0821370Y0652394D02*
D03*
Y0658299D02*
D03*
X0781410Y0669815D02*
D03*
Y0675721D02*
D03*
X0815169Y0639205D02*
D03*
Y0645110D02*
D03*
X0815268Y0632020D02*
D03*
Y0626114D02*
D03*
Y0620602D02*
D03*
Y0614697D02*
D03*
X0756606Y0600130D02*
D03*
Y0594224D02*
D03*
X0750602D02*
D03*
Y0600130D02*
D03*
X0718417Y0625721D02*
D03*
Y0619815D02*
D03*
X0712512D02*
D03*
Y0625721D02*
D03*
D29*
X0742236Y0689303D02*
D03*
X0744205D02*
D03*
X0746173D02*
D03*
X0748142D02*
D03*
X0750110D02*
D03*
X0752079D02*
D03*
X0742236Y0696783D02*
D03*
X0744205D02*
D03*
X0746173D02*
D03*
X0748142D02*
D03*
X0750110D02*
D03*
X0752079D02*
D03*
D30*
X0747157Y0693043D02*
D03*
D31*
X0723894Y0686350D02*
D03*
X0711020D02*
D03*
D32*
X0727465Y0679264D02*
D03*
X0719984D02*
D03*
X0723724Y0671390D02*
D03*
D33*
X0780819Y0600721D02*
D03*
X0787118D02*
D03*
X0780819Y0594224D02*
D03*
X0787118D02*
D03*
D34*
X0774323Y0650130D02*
D03*
D35*
X0784165Y0650130D02*
D03*
X0794008Y0650130D02*
D03*
X0774323Y0640287D02*
D03*
X0784165D02*
D03*
X0794008D02*
D03*
X0774224Y0630445D02*
D03*
X0784165D02*
D03*
X0794008D02*
D03*
D36*
X0815268Y0602492D02*
D03*
D37*
X0809461Y0596587D02*
D03*
X0821075D02*
D03*
D38*
X0712728Y0608378D02*
D03*
X0717728D02*
D03*
X0712728Y0603378D02*
D03*
X0717728D02*
D03*
X0712728Y0598378D02*
D03*
X0717728D02*
D03*
D39*
X0743221Y0599539D02*
D03*
X0727079D02*
D03*
Y0593240D02*
D03*
X0743221D02*
D03*
D40*
X0812413Y0626094D02*
X0812807D01*
X0815268Y0622571D02*
Y0624146D01*
Y0611547D02*
Y0612728D01*
Y0604854D02*
Y0605248D01*
M02*
