G04*
G04 #@! TF.GenerationSoftware,Altium Limited,Altium Designer,19.0.14 (431)*
G04*
G04 Layer_Color=8388736*
%FSAX25Y25*%
%MOIN*%
G70*
G01*
G75*
%ADD32R,0.03150X0.03543*%
%ADD41C,0.04737*%
%ADD42R,0.05524X0.03162*%
%ADD43R,0.08280X0.09855*%
%ADD44R,0.06312X0.07099*%
%ADD45R,0.08280X0.06902*%
%ADD46R,0.05906X0.01968*%
%ADD47R,0.02178X0.05524*%
%ADD48R,0.02729X0.02572*%
%ADD49R,0.03162X0.04343*%
%ADD50R,0.04343X0.03162*%
%ADD51R,0.01784X0.03556*%
%ADD52R,0.08674X0.03910*%
%ADD53R,0.04383X0.05603*%
%ADD54R,0.03950X0.03950*%
%ADD55R,0.07493X0.02769*%
%ADD56R,0.02769X0.07493*%
G04:AMPARAMS|DCode=57|XSize=67.06mil|YSize=67.06mil|CornerRadius=9.91mil|HoleSize=0mil|Usage=FLASHONLY|Rotation=0.000|XOffset=0mil|YOffset=0mil|HoleType=Round|Shape=RoundedRectangle|*
%AMROUNDEDRECTD57*
21,1,0.06706,0.04724,0,0,0.0*
21,1,0.04724,0.06706,0,0,0.0*
1,1,0.01981,0.02362,-0.02362*
1,1,0.01981,-0.02362,-0.02362*
1,1,0.01981,-0.02362,0.02362*
1,1,0.01981,0.02362,0.02362*
%
%ADD57ROUNDEDRECTD57*%
%ADD58R,0.06706X0.06706*%
%ADD59R,0.04737X0.04737*%
%ADD60R,0.04934X0.09461*%
%ADD61C,0.03898*%
%ADD62R,0.04343X0.04737*%
%ADD63C,0.06706*%
%ADD64C,0.04702*%
%ADD65C,0.02769*%
D32*
X0727465Y0679264D02*
D03*
X0719984D02*
D03*
X0723724Y0671390D02*
D03*
D41*
X0787709Y0609185D02*
D03*
X0781803D02*
D03*
X0801488D02*
D03*
X0821567Y0663024D02*
D03*
X0815268Y0663122D02*
D03*
X0756213Y0681232D02*
D03*
X0712512Y0672571D02*
D03*
X0795583Y0609185D02*
D03*
D42*
X0742827Y0645996D02*
D03*
Y0649736D02*
D03*
Y0653476D02*
D03*
X0733772Y0645996D02*
D03*
Y0649736D02*
D03*
Y0653476D02*
D03*
D43*
X0713890Y0633791D02*
D03*
Y0663319D02*
D03*
D44*
X0724224Y0661154D02*
D03*
Y0635957D02*
D03*
D45*
X0713890Y0652591D02*
D03*
Y0644520D02*
D03*
D46*
X0725110Y0653673D02*
D03*
Y0651114D02*
D03*
Y0648555D02*
D03*
Y0645996D02*
D03*
Y0643437D02*
D03*
D47*
X0820386Y0700819D02*
D03*
X0817827D02*
D03*
X0815268D02*
D03*
X0820386Y0694913D02*
D03*
X0817827D02*
D03*
X0815268D02*
D03*
D48*
X0811862Y0678673D02*
D03*
Y0686350D02*
D03*
Y0683791D02*
D03*
Y0681232D02*
D03*
X0819500Y0678673D02*
D03*
Y0686350D02*
D03*
Y0683791D02*
D03*
Y0681232D02*
D03*
D49*
X0717236Y0693043D02*
D03*
X0711331D02*
D03*
X0729047D02*
D03*
X0723142D02*
D03*
X0750110Y0683201D02*
D03*
X0744205D02*
D03*
Y0676508D02*
D03*
X0750110D02*
D03*
X0799913Y0701902D02*
D03*
X0805819D02*
D03*
X0799913Y0695898D02*
D03*
X0805819D02*
D03*
X0799913Y0689894D02*
D03*
X0805819D02*
D03*
X0799913Y0683988D02*
D03*
X0805819D02*
D03*
X0799913Y0678083D02*
D03*
X0805819D02*
D03*
X0794402Y0600524D02*
D03*
X0800307D02*
D03*
X0794402Y0594520D02*
D03*
X0800307D02*
D03*
X0748732Y0665681D02*
D03*
X0742827D02*
D03*
X0748732Y0659579D02*
D03*
X0742827D02*
D03*
X0745780Y0640469D02*
D03*
X0751685D02*
D03*
X0745780Y0634579D02*
D03*
X0751685D02*
D03*
X0745780Y0628594D02*
D03*
X0751685D02*
D03*
X0745780Y0622591D02*
D03*
X0751685D02*
D03*
X0774717Y0670209D02*
D03*
X0768811D02*
D03*
X0809362Y0608398D02*
D03*
X0815268D02*
D03*
D50*
X0736528Y0693043D02*
D03*
Y0687138D02*
D03*
Y0682020D02*
D03*
Y0676114D02*
D03*
X0734165Y0669421D02*
D03*
Y0663516D02*
D03*
X0757787Y0693043D02*
D03*
Y0687138D02*
D03*
X0815268Y0652394D02*
D03*
Y0658299D02*
D03*
X0821370Y0652394D02*
D03*
Y0658299D02*
D03*
X0781410Y0669815D02*
D03*
Y0675721D02*
D03*
X0815169Y0639205D02*
D03*
Y0645110D02*
D03*
X0815268Y0632020D02*
D03*
Y0626114D02*
D03*
Y0620602D02*
D03*
Y0614697D02*
D03*
X0756606Y0600130D02*
D03*
Y0594224D02*
D03*
X0750602D02*
D03*
Y0600130D02*
D03*
X0718417Y0625721D02*
D03*
Y0619815D02*
D03*
X0712512D02*
D03*
Y0625721D02*
D03*
D51*
X0742236Y0689303D02*
D03*
X0744205D02*
D03*
X0746173D02*
D03*
X0748142D02*
D03*
X0750110D02*
D03*
X0752079D02*
D03*
X0742236Y0696783D02*
D03*
X0744205D02*
D03*
X0746173D02*
D03*
X0748142D02*
D03*
X0750110D02*
D03*
X0752079D02*
D03*
D52*
X0747157Y0693043D02*
D03*
D53*
X0723894Y0686350D02*
D03*
X0711020D02*
D03*
D54*
X0780819Y0600721D02*
D03*
X0787118D02*
D03*
X0780819Y0594224D02*
D03*
X0787118D02*
D03*
D55*
X0760929Y0657630D02*
D03*
Y0654480D02*
D03*
Y0651291D02*
D03*
Y0648142D02*
D03*
Y0644992D02*
D03*
Y0641843D02*
D03*
Y0638732D02*
D03*
Y0635543D02*
D03*
Y0632394D02*
D03*
Y0629284D02*
D03*
Y0626094D02*
D03*
Y0622984D02*
D03*
X0807394Y0622965D02*
D03*
Y0626118D02*
D03*
X0807394Y0629276D02*
D03*
X0807394Y0632413D02*
D03*
X0807394Y0635563D02*
D03*
X0807394Y0638713D02*
D03*
X0807386Y0641843D02*
D03*
Y0645031D02*
D03*
Y0648181D02*
D03*
Y0651291D02*
D03*
Y0654480D02*
D03*
Y0657630D02*
D03*
D56*
X0766835Y0618831D02*
D03*
X0769992D02*
D03*
X0773142D02*
D03*
X0776291Y0618831D02*
D03*
X0779441Y0618831D02*
D03*
X0782590Y0618831D02*
D03*
X0785740D02*
D03*
X0788890Y0618835D02*
D03*
X0792039Y0618835D02*
D03*
X0795189Y0618831D02*
D03*
X0798366D02*
D03*
X0801677Y0618831D02*
D03*
X0801520Y0661764D02*
D03*
X0798331D02*
D03*
X0795221D02*
D03*
X0792071D02*
D03*
X0788921D02*
D03*
X0785772D02*
D03*
X0782622D02*
D03*
X0779472D02*
D03*
X0776323D02*
D03*
X0773173D02*
D03*
X0770024D02*
D03*
X0766835D02*
D03*
D57*
X0774323Y0650130D02*
D03*
D58*
X0784165Y0650130D02*
D03*
X0794008Y0650130D02*
D03*
X0774323Y0640287D02*
D03*
X0784165D02*
D03*
X0794008D02*
D03*
X0774224Y0630445D02*
D03*
X0784165D02*
D03*
X0794008D02*
D03*
X0722917Y0702098D02*
D03*
D59*
X0815268Y0602492D02*
D03*
D60*
X0809461Y0596587D02*
D03*
X0821075D02*
D03*
D61*
X0712728Y0608378D02*
D03*
X0717728D02*
D03*
X0712728Y0603378D02*
D03*
X0717728D02*
D03*
X0712728Y0598378D02*
D03*
X0717728D02*
D03*
D62*
X0743221Y0599539D02*
D03*
X0727079D02*
D03*
Y0593240D02*
D03*
X0743221D02*
D03*
D63*
X0712917Y0702098D02*
D03*
D64*
X0719228Y0613378D02*
D03*
X0711228D02*
D03*
X0715228Y0593378D02*
D03*
D65*
X0762217Y0612335D02*
D03*
X0756606Y0612532D02*
D03*
X0716252Y0689106D02*
D03*
X0740646Y0675524D02*
D03*
X0744500Y0669520D02*
D03*
X0755524Y0651454D02*
D03*
X0755440Y0638516D02*
D03*
X0755370Y0635366D02*
D03*
Y0632020D02*
D03*
X0755379Y0628870D02*
D03*
X0755429Y0625819D02*
D03*
X0755526Y0622179D02*
D03*
X0767728Y0656035D02*
D03*
X0810136Y0676409D02*
D03*
M02*
