G04*
G04 #@! TF.GenerationSoftware,Altium Limited,Altium Designer,19.0.14 (431)*
G04*
G04 Layer_Physical_Order=2*
G04 Layer_Color=16711680*
%FSAX25Y25*%
%MOIN*%
G70*
G01*
G75*
%ADD11C,0.00787*%
%ADD13C,0.01181*%
%ADD27R,0.02362X0.03543*%
%ADD28R,0.03543X0.02362*%
%ADD35R,0.05906X0.05906*%
%ADD36R,0.03937X0.03937*%
%ADD37R,0.04134X0.08661*%
%ADD70C,0.01575*%
%ADD71C,0.02756*%
%ADD73C,0.00984*%
%ADD74C,0.04000*%
%ADD75C,0.05906*%
%ADD76C,0.03902*%
%ADD77C,0.01968*%
%ADD78R,0.01378X0.01476*%
%ADD79R,0.01476X0.01378*%
%ADD80R,0.02200X0.05000*%
%ADD81R,0.03150X0.03150*%
%ADD82R,0.02756X0.07087*%
%ADD83R,0.03150X0.07087*%
G36*
X0822105Y0705922D02*
X0822894Y0705394D01*
X0823422Y0704605D01*
X0823594Y0703739D01*
X0823581Y0703673D01*
Y0692401D01*
X0823119Y0692210D01*
X0821336Y0693993D01*
X0820810Y0694345D01*
X0820189Y0694468D01*
X0801156D01*
X0800786Y0694716D01*
X0800012Y0694870D01*
X0799238Y0694716D01*
X0798581Y0694277D01*
X0798143Y0693621D01*
X0797989Y0692846D01*
X0798143Y0692072D01*
X0798581Y0691416D01*
X0799238Y0690977D01*
X0800012Y0690823D01*
X0800786Y0690977D01*
X0801156Y0691225D01*
X0801158Y0691225D01*
X0819517D01*
X0820930Y0689813D01*
Y0688728D01*
X0817516D01*
Y0683185D01*
X0820930D01*
Y0670989D01*
X0820488Y0670753D01*
X0820274Y0670897D01*
X0819500Y0671051D01*
X0819027Y0670957D01*
X0818417Y0670943D01*
X0816457D01*
X0815972Y0670980D01*
Y0676524D01*
X0815313D01*
Y0677123D01*
X0815972D01*
Y0682666D01*
X0815313D01*
Y0683185D01*
X0815972D01*
Y0688728D01*
X0811610D01*
Y0683185D01*
X0812270D01*
Y0682666D01*
X0811610D01*
Y0682655D01*
X0810805D01*
Y0682823D01*
X0807329D01*
Y0682655D01*
X0804801D01*
Y0682823D01*
X0801325D01*
Y0681164D01*
X0801291Y0680687D01*
X0800709Y0680571D01*
X0800216Y0680241D01*
X0797263Y0677288D01*
X0797112Y0677063D01*
X0796612Y0677214D01*
Y0679519D01*
X0800642Y0683549D01*
X0801325D01*
Y0683382D01*
X0804801D01*
Y0686760D01*
X0801325D01*
Y0686592D01*
X0800012D01*
X0799430Y0686476D01*
X0798936Y0686147D01*
X0794015Y0681225D01*
X0793685Y0680732D01*
X0793569Y0680150D01*
Y0676867D01*
X0793221Y0676347D01*
X0793067Y0675573D01*
X0793190Y0674957D01*
X0792894Y0674457D01*
X0787197D01*
X0787177Y0674579D01*
X0787169Y0674676D01*
Y0674993D01*
X0787178Y0675093D01*
X0787197Y0675213D01*
X0788118D01*
Y0679575D01*
X0782575D01*
Y0675213D01*
X0783496D01*
X0783515Y0675093D01*
X0783524Y0674993D01*
Y0674676D01*
X0783516Y0674579D01*
X0783496Y0674457D01*
X0778441D01*
Y0665370D01*
X0788156D01*
Y0663798D01*
X0788272Y0663216D01*
X0788601Y0662722D01*
X0789712Y0661612D01*
X0789687Y0661215D01*
X0789228Y0660865D01*
X0788988Y0660913D01*
X0788214Y0660759D01*
X0787558Y0660320D01*
X0787171D01*
X0786514Y0660759D01*
X0785740Y0660913D01*
X0784966Y0660759D01*
X0784310Y0660320D01*
X0784303Y0660311D01*
X0771467D01*
X0765523Y0666254D01*
Y0675606D01*
X0765415Y0676150D01*
X0765107Y0676611D01*
X0759776Y0681942D01*
X0759315Y0682250D01*
X0758772Y0682358D01*
X0752115D01*
X0751572Y0682250D01*
X0751111Y0681942D01*
X0746753Y0677584D01*
X0746445Y0677123D01*
X0746337Y0676579D01*
Y0663063D01*
X0745875Y0662871D01*
X0736186Y0672560D01*
X0736189Y0672571D01*
X0736034Y0673345D01*
X0735596Y0674001D01*
X0734940Y0674440D01*
X0734165Y0674594D01*
X0734154Y0674592D01*
X0721784Y0686962D01*
X0721323Y0687269D01*
X0720780Y0687378D01*
X0715524D01*
X0715517Y0687387D01*
X0714861Y0687826D01*
X0714087Y0687980D01*
X0713312Y0687826D01*
X0712656Y0687387D01*
X0712218Y0686731D01*
X0712064Y0685957D01*
X0712218Y0685183D01*
X0712656Y0684526D01*
X0713312Y0684088D01*
X0714087Y0683934D01*
X0714861Y0684088D01*
X0715517Y0684526D01*
X0715524Y0684536D01*
X0717995D01*
X0718262Y0684036D01*
X0718025Y0683680D01*
X0717871Y0682905D01*
X0718025Y0682131D01*
X0718463Y0681475D01*
X0719120Y0681036D01*
X0719894Y0680882D01*
X0719905Y0680885D01*
X0731563Y0669226D01*
Y0666287D01*
X0730803D01*
Y0660907D01*
X0730676Y0660716D01*
X0729860D01*
Y0653717D01*
X0734060D01*
Y0660255D01*
X0734297Y0660610D01*
X0734324Y0660744D01*
X0735165D01*
Y0666287D01*
X0734405D01*
Y0669614D01*
X0734901Y0669826D01*
X0744162Y0660565D01*
Y0656051D01*
X0743402D01*
Y0650508D01*
X0746337D01*
Y0643937D01*
X0743692Y0641292D01*
X0743384Y0640831D01*
X0743276Y0640287D01*
Y0636760D01*
X0739856Y0633340D01*
X0739777Y0633356D01*
X0739003Y0633202D01*
X0738347Y0632763D01*
X0737908Y0632107D01*
X0737754Y0631333D01*
X0737908Y0630558D01*
X0738347Y0629902D01*
X0739003Y0629464D01*
X0739777Y0629310D01*
X0740551Y0629464D01*
X0741006Y0629767D01*
X0741506Y0629517D01*
Y0627061D01*
X0741496Y0627054D01*
X0741058Y0626398D01*
X0740904Y0625624D01*
X0741058Y0624850D01*
X0741496Y0624193D01*
X0742153Y0623755D01*
X0742927Y0623601D01*
X0743701Y0623755D01*
X0744357Y0624193D01*
X0744796Y0624850D01*
X0744950Y0625624D01*
X0744796Y0626398D01*
X0744357Y0627054D01*
X0744348Y0627061D01*
Y0631586D01*
X0747276Y0634514D01*
X0747584Y0634975D01*
X0747693Y0635519D01*
Y0639046D01*
X0748450Y0639803D01*
X0748949Y0639596D01*
Y0619520D01*
X0749134Y0618592D01*
X0749660Y0617805D01*
X0750446Y0617280D01*
X0751374Y0617095D01*
X0751486Y0617117D01*
X0751976Y0616705D01*
X0752080Y0616186D01*
X0752518Y0615530D01*
X0753175Y0615092D01*
X0753949Y0614937D01*
X0754723Y0615092D01*
X0755379Y0615530D01*
X0755386Y0615540D01*
X0757673D01*
Y0614681D01*
X0763216D01*
Y0614681D01*
X0763579D01*
Y0614681D01*
X0769122D01*
Y0617914D01*
X0781689D01*
Y0614681D01*
X0782225D01*
X0782275Y0614181D01*
X0781918Y0614110D01*
X0781262Y0613672D01*
X0780824Y0613015D01*
X0780669Y0612241D01*
X0780824Y0611467D01*
X0781262Y0610811D01*
X0781918Y0610372D01*
X0782693Y0610218D01*
X0782704Y0610220D01*
X0783750Y0609174D01*
X0784211Y0608866D01*
X0784755Y0608758D01*
X0786725D01*
X0787269Y0608866D01*
X0787730Y0609174D01*
X0799343Y0620787D01*
X0799651Y0621248D01*
X0799760Y0621792D01*
Y0627969D01*
X0800913D01*
Y0637055D01*
X0778206D01*
Y0640670D01*
X0779691Y0642154D01*
X0779753Y0642202D01*
X0779755Y0642203D01*
X0779766Y0642209D01*
X0780022Y0642260D01*
X0780678Y0642698D01*
X0781117Y0643354D01*
X0781271Y0644129D01*
X0781180Y0644586D01*
X0781550Y0645086D01*
X0804152D01*
X0807691Y0641546D01*
X0808152Y0641238D01*
X0808696Y0641130D01*
X0812194D01*
X0812738Y0641238D01*
X0813199Y0641546D01*
X0815288Y0643636D01*
X0815596Y0644097D01*
X0815705Y0644641D01*
Y0647512D01*
X0815714Y0647518D01*
X0816153Y0648175D01*
X0816307Y0648949D01*
X0816153Y0649723D01*
X0815714Y0650379D01*
X0815058Y0650818D01*
X0814283Y0650972D01*
X0813509Y0650818D01*
X0812853Y0650379D01*
X0812414Y0649723D01*
X0812260Y0648949D01*
X0812414Y0648175D01*
X0812574Y0647935D01*
X0812544Y0647836D01*
X0811977Y0647696D01*
X0810399Y0649274D01*
X0810271Y0649423D01*
X0810067Y0649695D01*
X0809925Y0649922D01*
X0809842Y0650094D01*
X0809840Y0650101D01*
X0810372Y0650717D01*
X0823119Y0663463D01*
X0823581Y0663272D01*
Y0593437D01*
X0823594Y0593371D01*
X0823422Y0592506D01*
X0822894Y0591716D01*
X0822105Y0591188D01*
X0821239Y0591016D01*
X0821173Y0591029D01*
X0717776D01*
X0717529Y0591529D01*
X0717806Y0591890D01*
X0718103Y0592608D01*
X0718205Y0593378D01*
X0718103Y0594148D01*
X0717806Y0594866D01*
X0717333Y0595482D01*
X0716716Y0595956D01*
X0715999Y0596253D01*
X0715228Y0596354D01*
X0714458Y0596253D01*
X0713740Y0595956D01*
X0713124Y0595482D01*
X0712651Y0594866D01*
X0712354Y0594148D01*
X0712252Y0593378D01*
X0712354Y0592608D01*
X0712651Y0591890D01*
X0712927Y0591529D01*
X0712681Y0591029D01*
X0710937D01*
X0710871Y0591016D01*
X0710006Y0591188D01*
X0709216Y0591716D01*
X0708688Y0592506D01*
X0708516Y0593371D01*
X0708529Y0593437D01*
Y0604598D01*
X0709029Y0604857D01*
X0709474Y0604560D01*
X0710248Y0604406D01*
X0711022Y0604560D01*
X0711679Y0604999D01*
X0711685Y0605008D01*
X0724702D01*
X0736703Y0593007D01*
X0737164Y0592699D01*
X0737708Y0592591D01*
X0798625D01*
X0799169Y0592699D01*
X0799630Y0593007D01*
X0802588Y0595965D01*
X0802896Y0596426D01*
X0803004Y0596969D01*
Y0610996D01*
X0803013Y0611002D01*
X0803452Y0611659D01*
X0803606Y0612433D01*
X0803452Y0613207D01*
X0803013Y0613864D01*
X0802357Y0614302D01*
X0801583Y0614456D01*
X0800809Y0614302D01*
X0800152Y0613864D01*
X0799714Y0613207D01*
X0799560Y0612433D01*
X0799714Y0611659D01*
X0800152Y0611002D01*
X0800162Y0610996D01*
Y0597558D01*
X0798036Y0595433D01*
X0748612D01*
X0748420Y0595895D01*
X0754601Y0602076D01*
X0755215Y0602198D01*
X0755871Y0602636D01*
X0756310Y0603293D01*
X0756464Y0604067D01*
X0756310Y0604841D01*
X0755871Y0605498D01*
X0755215Y0605936D01*
X0754441Y0606090D01*
X0753667Y0605936D01*
X0753010Y0605498D01*
X0752572Y0604841D01*
X0752450Y0604227D01*
X0746134Y0597911D01*
X0739988D01*
X0739467Y0598259D01*
X0738693Y0598413D01*
X0737919Y0598259D01*
X0737262Y0597820D01*
X0737004Y0597433D01*
X0736388Y0597341D01*
X0726295Y0607434D01*
X0725834Y0607742D01*
X0725291Y0607850D01*
X0711685D01*
X0711679Y0607860D01*
X0711022Y0608298D01*
X0710248Y0608452D01*
X0709474Y0608298D01*
X0709029Y0608001D01*
X0708529Y0608260D01*
Y0611227D01*
X0709029Y0611397D01*
X0709124Y0611273D01*
X0709740Y0610801D01*
X0710458Y0610503D01*
X0711228Y0610402D01*
X0711999Y0610503D01*
X0712716Y0610801D01*
X0713333Y0611273D01*
X0713806Y0611890D01*
X0714103Y0612608D01*
X0714205Y0613378D01*
X0714103Y0614148D01*
X0713806Y0614866D01*
X0713333Y0615483D01*
X0712716Y0615955D01*
X0711999Y0616253D01*
X0711228Y0616354D01*
X0710458Y0616253D01*
X0709740Y0615955D01*
X0709124Y0615483D01*
X0709029Y0615359D01*
X0708529Y0615529D01*
Y0703673D01*
X0708516Y0703739D01*
X0708688Y0704605D01*
X0709216Y0705394D01*
X0710006Y0705922D01*
X0710871Y0706094D01*
X0710937Y0706081D01*
X0718477D01*
X0718964Y0706051D01*
X0718964Y0705581D01*
Y0698146D01*
X0726870D01*
X0726870Y0706051D01*
X0727358Y0706081D01*
X0821173D01*
X0821239Y0706094D01*
X0822105Y0705922D01*
D02*
G37*
G36*
X0800739Y0693517D02*
X0800773Y0693500D01*
X0800816Y0693485D01*
X0800869Y0693472D01*
X0800932Y0693462D01*
X0801086Y0693446D01*
X0801279Y0693438D01*
X0801390Y0693437D01*
Y0692256D01*
X0801279Y0692255D01*
X0800932Y0692231D01*
X0800869Y0692220D01*
X0800816Y0692208D01*
X0800773Y0692193D01*
X0800739Y0692176D01*
X0800715Y0692158D01*
Y0693535D01*
X0800739Y0693517D01*
D02*
G37*
G36*
X0714850Y0686590D02*
X0714914Y0686539D01*
X0714982Y0686495D01*
X0715055Y0686457D01*
X0715132Y0686424D01*
X0715213Y0686398D01*
X0715298Y0686377D01*
X0715388Y0686362D01*
X0715481Y0686353D01*
X0715579Y0686350D01*
Y0685563D01*
X0715481Y0685560D01*
X0715388Y0685551D01*
X0715298Y0685536D01*
X0715213Y0685516D01*
X0715132Y0685489D01*
X0715055Y0685457D01*
X0714982Y0685418D01*
X0714914Y0685374D01*
X0714850Y0685324D01*
X0714789Y0685268D01*
Y0686646D01*
X0714850Y0686590D01*
D02*
G37*
G36*
X0820866Y0687026D02*
X0820902Y0686925D01*
X0820961Y0686837D01*
X0821045Y0686760D01*
X0821152Y0686695D01*
X0821284Y0686642D01*
X0821439Y0686600D01*
X0821618Y0686571D01*
X0821820Y0686553D01*
X0822047Y0686547D01*
Y0685366D01*
X0821820Y0685360D01*
X0821618Y0685343D01*
X0821439Y0685313D01*
X0821284Y0685272D01*
X0821152Y0685218D01*
X0821045Y0685153D01*
X0820961Y0685077D01*
X0820902Y0684988D01*
X0820866Y0684888D01*
X0820854Y0684776D01*
Y0687138D01*
X0820866Y0687026D01*
D02*
G37*
G36*
X0814682Y0684187D02*
X0814598Y0684158D01*
X0814525Y0684108D01*
X0814461Y0684040D01*
X0814406Y0683951D01*
X0814362Y0683843D01*
X0814328Y0683715D01*
X0814303Y0683567D01*
X0814288Y0683400D01*
X0814283Y0683213D01*
X0813299D01*
X0813294Y0683400D01*
X0813280Y0683567D01*
X0813255Y0683715D01*
X0813221Y0683843D01*
X0813176Y0683951D01*
X0813122Y0684040D01*
X0813058Y0684108D01*
X0812984Y0684158D01*
X0812901Y0684187D01*
X0812807Y0684197D01*
X0814776D01*
X0814682Y0684187D01*
D02*
G37*
G36*
X0814288Y0682449D02*
X0814303Y0682280D01*
X0814328Y0682130D01*
X0814362Y0682001D01*
X0814406Y0681891D01*
X0814461Y0681802D01*
X0814525Y0681732D01*
X0814598Y0681682D01*
X0814682Y0681652D01*
X0814776Y0681642D01*
X0812807D01*
X0812901Y0681652D01*
X0812984Y0681682D01*
X0813058Y0681732D01*
X0813122Y0681802D01*
X0813176Y0681891D01*
X0813221Y0682001D01*
X0813255Y0682130D01*
X0813280Y0682280D01*
X0813294Y0682449D01*
X0813299Y0682638D01*
X0814283D01*
X0814288Y0682449D01*
D02*
G37*
G36*
X0720881Y0682814D02*
X0720891Y0682733D01*
X0720908Y0682653D01*
X0720932Y0682575D01*
X0720963Y0682497D01*
X0721002Y0682421D01*
X0721047Y0682346D01*
X0721100Y0682272D01*
X0721160Y0682200D01*
X0721228Y0682128D01*
X0720671Y0681572D01*
X0720599Y0681639D01*
X0720527Y0681699D01*
X0720453Y0681752D01*
X0720378Y0681797D01*
X0720302Y0681836D01*
X0720225Y0681867D01*
X0720146Y0681892D01*
X0720066Y0681909D01*
X0719986Y0681919D01*
X0719904Y0681921D01*
X0720878Y0682896D01*
X0720881Y0682814D01*
D02*
G37*
G36*
X0812634Y0680150D02*
X0812624Y0680243D01*
X0812593Y0680327D01*
X0812543Y0680401D01*
X0812473Y0680465D01*
X0812383Y0680519D01*
X0812274Y0680563D01*
X0812144Y0680597D01*
X0811995Y0680622D01*
X0811827Y0680637D01*
X0811638Y0680642D01*
Y0681626D01*
X0812622Y0681654D01*
X0812634Y0680150D01*
D02*
G37*
G36*
X0814682Y0678125D02*
X0814598Y0678095D01*
X0814525Y0678046D01*
X0814461Y0677977D01*
X0814406Y0677889D01*
X0814362Y0677780D01*
X0814328Y0677653D01*
X0814303Y0677505D01*
X0814288Y0677338D01*
X0814283Y0677151D01*
X0813299D01*
X0813294Y0677338D01*
X0813280Y0677505D01*
X0813255Y0677653D01*
X0813221Y0677780D01*
X0813176Y0677889D01*
X0813122Y0677977D01*
X0813058Y0678046D01*
X0812984Y0678095D01*
X0812901Y0678125D01*
X0812807Y0678135D01*
X0814776D01*
X0814682Y0678125D01*
D02*
G37*
G36*
X0795585Y0676910D02*
X0795600Y0676719D01*
X0795614Y0676635D01*
X0795632Y0676557D01*
X0795653Y0676487D01*
X0795679Y0676423D01*
X0795709Y0676367D01*
X0795742Y0676318D01*
X0795780Y0676276D01*
X0794402D01*
X0794439Y0676318D01*
X0794473Y0676367D01*
X0794502Y0676423D01*
X0794528Y0676487D01*
X0794549Y0676557D01*
X0794567Y0676635D01*
X0794581Y0676719D01*
X0794591Y0676811D01*
X0794598Y0677016D01*
X0795583D01*
X0795585Y0676910D01*
D02*
G37*
G36*
X0814288Y0676307D02*
X0814303Y0676137D01*
X0814328Y0675988D01*
X0814362Y0675858D01*
X0814406Y0675749D01*
X0814461Y0675659D01*
X0814525Y0675589D01*
X0814598Y0675539D01*
X0814682Y0675510D01*
X0814776Y0675500D01*
X0812807D01*
X0812901Y0675510D01*
X0812984Y0675539D01*
X0813058Y0675589D01*
X0813122Y0675659D01*
X0813176Y0675749D01*
X0813221Y0675858D01*
X0813255Y0675988D01*
X0813280Y0676137D01*
X0813294Y0676307D01*
X0813299Y0676496D01*
X0814283D01*
X0814288Y0676307D01*
D02*
G37*
G36*
X0798833Y0675588D02*
X0798848Y0675397D01*
X0798862Y0675313D01*
X0798880Y0675235D01*
X0798902Y0675165D01*
X0798928Y0675102D01*
X0798957Y0675045D01*
X0798991Y0674996D01*
X0799029Y0674954D01*
X0797651Y0674948D01*
X0797688Y0674990D01*
X0797721Y0675039D01*
X0797751Y0675096D01*
X0797776Y0675159D01*
X0797798Y0675230D01*
X0797815Y0675308D01*
X0797829Y0675392D01*
X0797839Y0675484D01*
X0797847Y0675689D01*
X0798831Y0675694D01*
X0798833Y0675588D01*
D02*
G37*
G36*
X0798834Y0674097D02*
X0798859Y0673835D01*
X0798881Y0673728D01*
X0798910Y0673638D01*
X0798944Y0673564D01*
X0798960Y0673542D01*
X0799029Y0673542D01*
X0798992Y0673501D01*
X0799033Y0673465D01*
X0799087Y0673441D01*
X0799147Y0673433D01*
X0798948D01*
X0798928Y0673395D01*
X0798902Y0673331D01*
X0798880Y0673261D01*
X0798862Y0673184D01*
X0798848Y0673099D01*
X0798839Y0673007D01*
X0798831Y0672803D01*
X0797847Y0672808D01*
X0797845Y0672914D01*
X0797829Y0673104D01*
X0797815Y0673189D01*
X0797798Y0673267D01*
X0797776Y0673337D01*
X0797751Y0673401D01*
X0797734Y0673433D01*
X0797531D01*
X0797591Y0673441D01*
X0797644Y0673465D01*
X0797689Y0673504D01*
X0797688Y0673506D01*
X0797651Y0673549D01*
X0797721Y0673548D01*
X0797733Y0673564D01*
X0797767Y0673638D01*
X0797796Y0673728D01*
X0797818Y0673835D01*
X0797834Y0673957D01*
X0797843Y0674097D01*
X0797847Y0674253D01*
X0798831D01*
X0798834Y0674097D01*
D02*
G37*
G36*
X0786772Y0676221D02*
X0786638Y0676173D01*
X0786520Y0676094D01*
X0786417Y0675983D01*
X0786331Y0675840D01*
X0786260Y0675665D01*
X0786205Y0675459D01*
X0786165Y0675221D01*
X0786142Y0674951D01*
X0786139Y0674834D01*
X0786142Y0674720D01*
X0786165Y0674453D01*
X0786204Y0674216D01*
X0786258Y0674012D01*
X0786328Y0673838D01*
X0786413Y0673697D01*
X0786514Y0673586D01*
X0786630Y0673508D01*
X0786762Y0673460D01*
X0786909Y0673445D01*
X0783784D01*
X0783931Y0673460D01*
X0784063Y0673508D01*
X0784179Y0673586D01*
X0784280Y0673697D01*
X0784365Y0673838D01*
X0784435Y0674012D01*
X0784489Y0674216D01*
X0784528Y0674453D01*
X0784551Y0674720D01*
X0784554Y0674834D01*
X0784551Y0674951D01*
X0784528Y0675221D01*
X0784488Y0675459D01*
X0784433Y0675665D01*
X0784362Y0675840D01*
X0784276Y0675983D01*
X0784173Y0676094D01*
X0784055Y0676173D01*
X0783921Y0676221D01*
X0783772Y0676237D01*
X0786921D01*
X0786772Y0676221D01*
D02*
G37*
G36*
X0795742Y0674828D02*
X0795709Y0674779D01*
X0795679Y0674722D01*
X0795653Y0674659D01*
X0795632Y0674588D01*
X0795614Y0674511D01*
X0795600Y0674426D01*
X0795591Y0674335D01*
X0795583Y0674130D01*
X0795579D01*
X0795571Y0673445D01*
X0794106Y0673433D01*
X0794200Y0673443D01*
X0794283Y0673474D01*
X0794357Y0673524D01*
X0794421Y0673594D01*
X0794475Y0673684D01*
X0794520Y0673793D01*
X0794554Y0673922D01*
X0794579Y0674072D01*
X0794593Y0674240D01*
X0794594Y0674264D01*
X0794581Y0674426D01*
X0794567Y0674511D01*
X0794549Y0674588D01*
X0794528Y0674659D01*
X0794502Y0674722D01*
X0794473Y0674779D01*
X0794439Y0674828D01*
X0794402Y0674870D01*
X0795780D01*
X0795742Y0674828D01*
D02*
G37*
G36*
X0733460Y0673838D02*
X0733532Y0673777D01*
X0733606Y0673725D01*
X0733681Y0673679D01*
X0733757Y0673640D01*
X0733834Y0673609D01*
X0733913Y0673585D01*
X0733992Y0673568D01*
X0734073Y0673558D01*
X0734156Y0673555D01*
X0733181Y0672581D01*
X0733178Y0672663D01*
X0733169Y0672744D01*
X0733151Y0672823D01*
X0733127Y0672902D01*
X0733096Y0672979D01*
X0733057Y0673055D01*
X0733012Y0673130D01*
X0732959Y0673204D01*
X0732899Y0673277D01*
X0732831Y0673348D01*
X0733388Y0673905D01*
X0733460Y0673838D01*
D02*
G37*
G36*
X0735152Y0672479D02*
X0735162Y0672398D01*
X0735179Y0672318D01*
X0735204Y0672240D01*
X0735235Y0672162D01*
X0735273Y0672086D01*
X0735319Y0672011D01*
X0735372Y0671938D01*
X0735432Y0671865D01*
X0735499Y0671794D01*
X0734942Y0671237D01*
X0734871Y0671304D01*
X0734798Y0671364D01*
X0734725Y0671417D01*
X0734650Y0671463D01*
X0734574Y0671501D01*
X0734496Y0671533D01*
X0734418Y0671557D01*
X0734338Y0671574D01*
X0734257Y0671584D01*
X0734175Y0671587D01*
X0735149Y0672561D01*
X0735152Y0672479D01*
D02*
G37*
G36*
X0814340Y0670073D02*
X0814389Y0670039D01*
X0814445Y0670010D01*
X0814508Y0669984D01*
X0814579Y0669963D01*
X0814656Y0669945D01*
X0814741Y0669931D01*
X0814833Y0669921D01*
X0815037Y0669913D01*
Y0668929D01*
X0814931Y0668927D01*
X0814741Y0668911D01*
X0814656Y0668898D01*
X0814579Y0668880D01*
X0814508Y0668858D01*
X0814445Y0668833D01*
X0814389Y0668803D01*
X0814340Y0668770D01*
X0814297Y0668732D01*
Y0670110D01*
X0814340Y0670073D01*
D02*
G37*
G36*
X0818580Y0668677D02*
X0818556Y0668725D01*
X0818524Y0668768D01*
X0818481Y0668806D01*
X0818430Y0668839D01*
X0818370Y0668866D01*
X0818300Y0668889D01*
X0818221Y0668906D01*
X0818134Y0668919D01*
X0818036Y0668927D01*
X0817930Y0668929D01*
X0818007Y0669913D01*
X0819129Y0669939D01*
X0818580Y0668677D01*
D02*
G37*
G36*
X0790568Y0666384D02*
X0790484Y0666354D01*
X0790410Y0666304D01*
X0790346Y0666235D01*
X0790292Y0666145D01*
X0790248Y0666035D01*
X0790214Y0665906D01*
X0790189Y0665757D01*
X0790174Y0665587D01*
X0790169Y0665398D01*
X0789185D01*
X0789180Y0665587D01*
X0789165Y0665757D01*
X0789141Y0665906D01*
X0789106Y0666035D01*
X0789062Y0666145D01*
X0789008Y0666235D01*
X0788944Y0666304D01*
X0788870Y0666354D01*
X0788786Y0666384D01*
X0788693Y0666394D01*
X0790661D01*
X0790568Y0666384D01*
D02*
G37*
G36*
X0733382Y0665911D02*
X0733394Y0665775D01*
X0733413Y0665655D01*
X0733441Y0665551D01*
X0733476Y0665463D01*
X0733520Y0665391D01*
X0733571Y0665335D01*
X0733630Y0665295D01*
X0733697Y0665271D01*
X0733772Y0665263D01*
X0732197D01*
X0732272Y0665271D01*
X0732339Y0665295D01*
X0732398Y0665335D01*
X0732449Y0665391D01*
X0732492Y0665463D01*
X0732528Y0665551D01*
X0732555Y0665655D01*
X0732575Y0665775D01*
X0732587Y0665911D01*
X0732590Y0666063D01*
X0733378D01*
X0733382Y0665911D01*
D02*
G37*
G36*
X0733547Y0661750D02*
X0733512Y0661732D01*
X0733480Y0661702D01*
X0733453Y0661660D01*
X0733430Y0661606D01*
X0733411Y0661539D01*
X0733397Y0661461D01*
X0733386Y0661371D01*
X0733380Y0661268D01*
X0733378Y0661154D01*
X0732590D01*
X0732588Y0661268D01*
X0732572Y0661461D01*
X0732557Y0661539D01*
X0732538Y0661606D01*
X0732515Y0661660D01*
X0732488Y0661702D01*
X0732457Y0661732D01*
X0732421Y0661750D01*
X0732382Y0661756D01*
X0733587D01*
X0733547Y0661750D01*
D02*
G37*
G36*
X0732354Y0660046D02*
X0732373Y0659710D01*
X0732378Y0659697D01*
X0732384Y0659692D01*
X0731535D01*
X0731541Y0659697D01*
X0731546Y0659710D01*
X0731551Y0659732D01*
X0731555Y0659762D01*
X0731561Y0659850D01*
X0731566Y0660129D01*
X0732353D01*
X0732354Y0660046D01*
D02*
G37*
G36*
X0811610Y0677123D02*
X0812270D01*
Y0676524D01*
X0811610D01*
Y0670980D01*
X0811648D01*
X0811916Y0670480D01*
X0811725Y0670195D01*
X0811571Y0669421D01*
X0811725Y0668647D01*
X0812164Y0667991D01*
X0812820Y0667552D01*
X0813595Y0667398D01*
X0814369Y0667552D01*
X0814889Y0667900D01*
X0817867D01*
X0818069Y0667597D01*
X0818726Y0667158D01*
X0819500Y0667004D01*
X0820274Y0667158D01*
X0820488Y0667302D01*
X0820930Y0667066D01*
Y0665861D01*
X0807985Y0652916D01*
X0807537Y0652499D01*
X0807047Y0652088D01*
X0806869Y0651957D01*
X0806729Y0651866D01*
X0806728Y0651865D01*
X0776886D01*
X0774840Y0653911D01*
X0774054Y0654437D01*
X0773126Y0654621D01*
X0763693D01*
X0763693Y0654621D01*
X0762765Y0654437D01*
X0761978Y0653911D01*
X0754764Y0646697D01*
X0754405Y0647055D01*
Y0673338D01*
X0756155Y0675089D01*
X0756681Y0675875D01*
X0756866Y0676803D01*
X0756739Y0677441D01*
X0757055Y0677883D01*
X0757563Y0677909D01*
X0761107Y0674365D01*
Y0665013D01*
X0761215Y0664469D01*
X0761523Y0664008D01*
X0769221Y0656310D01*
X0769682Y0656002D01*
X0770226Y0655894D01*
X0777449D01*
X0777654Y0655509D01*
X0777663Y0655394D01*
X0777516Y0654658D01*
X0777670Y0653883D01*
X0778109Y0653227D01*
X0778765Y0652788D01*
X0779539Y0652634D01*
X0780314Y0652788D01*
X0780970Y0653227D01*
X0781030Y0653317D01*
X0788439D01*
X0789021Y0653433D01*
X0789515Y0653763D01*
X0792540Y0656788D01*
X0792540Y0656788D01*
X0792870Y0657282D01*
X0792986Y0657864D01*
Y0662011D01*
X0792986Y0662011D01*
X0792870Y0662593D01*
X0792540Y0663087D01*
X0792540Y0663087D01*
X0791198Y0664428D01*
Y0665370D01*
X0801722D01*
X0802042Y0664870D01*
X0801930Y0664307D01*
X0802084Y0663533D01*
X0802523Y0662876D01*
X0802994Y0662562D01*
X0803118Y0661979D01*
X0800064Y0658924D01*
X0799599D01*
X0799589Y0658926D01*
X0799559Y0658931D01*
X0799534Y0658937D01*
X0799514Y0658943D01*
X0799498Y0658949D01*
X0799486Y0658955D01*
X0799476Y0658961D01*
X0799437Y0658985D01*
X0799354Y0659018D01*
X0799105Y0659184D01*
X0798331Y0659338D01*
X0797556Y0659184D01*
X0796900Y0658745D01*
X0796462Y0658089D01*
X0796308Y0657315D01*
X0796462Y0656541D01*
X0796900Y0655884D01*
X0797556Y0655446D01*
X0798331Y0655292D01*
X0799105Y0655446D01*
X0799761Y0655884D01*
X0799894Y0656082D01*
X0800652D01*
X0801196Y0656190D01*
X0801657Y0656498D01*
X0808054Y0662895D01*
X0808362Y0663356D01*
X0808470Y0663900D01*
Y0677378D01*
X0808738D01*
Y0677476D01*
X0810805D01*
Y0679612D01*
X0811610D01*
Y0677123D01*
D02*
G37*
G36*
X0789060Y0657908D02*
X0788978Y0657899D01*
X0788898Y0657883D01*
X0788818Y0657861D01*
X0788740Y0657833D01*
X0788663Y0657798D01*
X0788588Y0657757D01*
X0788513Y0657709D01*
X0788440Y0657654D01*
X0788368Y0657594D01*
X0788297Y0657527D01*
X0787690Y0658033D01*
X0787757Y0658105D01*
X0787816Y0658178D01*
X0787868Y0658252D01*
X0787912Y0658327D01*
X0787948Y0658403D01*
X0787976Y0658480D01*
X0787995Y0658558D01*
X0788008Y0658637D01*
X0788012Y0658717D01*
X0788008Y0658799D01*
X0789060Y0657908D01*
D02*
G37*
G36*
X0798957Y0658082D02*
X0799028Y0658043D01*
X0799103Y0658009D01*
X0799181Y0657979D01*
X0799262Y0657954D01*
X0799346Y0657934D01*
X0799433Y0657918D01*
X0799524Y0657906D01*
X0799618Y0657899D01*
X0799715Y0657897D01*
X0799884Y0657110D01*
X0799785Y0657106D01*
X0799691Y0657096D01*
X0799604Y0657079D01*
X0799522Y0657056D01*
X0799446Y0657025D01*
X0799376Y0656988D01*
X0799311Y0656945D01*
X0799253Y0656894D01*
X0799200Y0656837D01*
X0799152Y0656773D01*
X0798889Y0658126D01*
X0798957Y0658082D01*
D02*
G37*
G36*
X0780145Y0655439D02*
X0780194Y0655416D01*
X0780251Y0655396D01*
X0780314Y0655379D01*
X0780385Y0655364D01*
X0780548Y0655343D01*
X0780641Y0655336D01*
X0780848Y0655331D01*
X0781064Y0654347D01*
X0780958Y0654344D01*
X0780770Y0654325D01*
X0780688Y0654309D01*
X0780613Y0654287D01*
X0780546Y0654261D01*
X0780487Y0654230D01*
X0780436Y0654195D01*
X0780393Y0654155D01*
X0780357Y0654110D01*
X0780103Y0655464D01*
X0780145Y0655439D01*
D02*
G37*
G36*
X0814916Y0648186D02*
X0814866Y0648122D01*
X0814822Y0648053D01*
X0814783Y0647981D01*
X0814751Y0647904D01*
X0814724Y0647823D01*
X0814704Y0647737D01*
X0814689Y0647648D01*
X0814680Y0647554D01*
X0814677Y0647456D01*
X0813890D01*
X0813887Y0647554D01*
X0813878Y0647648D01*
X0813863Y0647737D01*
X0813842Y0647823D01*
X0813816Y0647904D01*
X0813783Y0647981D01*
X0813745Y0648053D01*
X0813701Y0648122D01*
X0813651Y0648186D01*
X0813595Y0648246D01*
X0814972D01*
X0814916Y0648186D01*
D02*
G37*
G36*
X0810050Y0651852D02*
X0809695Y0651492D01*
X0808817Y0650476D01*
X0808808Y0650454D01*
X0808780Y0650232D01*
X0808808Y0649987D01*
X0808891Y0649719D01*
X0809030Y0649430D01*
X0809225Y0649118D01*
X0809476Y0648784D01*
X0809782Y0648428D01*
X0810144Y0648049D01*
X0808181Y0646114D01*
X0807783Y0646485D01*
X0807369Y0646816D01*
X0806939Y0647108D01*
X0806493Y0647361D01*
X0806031Y0647576D01*
X0805552Y0647751D01*
X0805057Y0647888D01*
X0804547Y0647985D01*
X0804020Y0648043D01*
X0803477Y0648063D01*
X0806803Y0649441D01*
X0807651Y0649971D01*
X0806802Y0650819D01*
X0806924Y0650838D01*
X0807073Y0650894D01*
X0807248Y0650987D01*
X0807449Y0651118D01*
X0807677Y0651286D01*
X0808213Y0651735D01*
X0808854Y0652333D01*
X0809215Y0652688D01*
X0810050Y0651852D01*
D02*
G37*
G36*
X0779426Y0643161D02*
X0779379Y0643149D01*
X0779329Y0643130D01*
X0779276Y0643104D01*
X0779219Y0643071D01*
X0779159Y0643032D01*
X0779029Y0642931D01*
X0778959Y0642870D01*
X0778808Y0642727D01*
X0777953Y0643264D01*
X0778026Y0643340D01*
X0778146Y0643487D01*
X0778192Y0643557D01*
X0778230Y0643624D01*
X0778258Y0643690D01*
X0778278Y0643753D01*
X0778289Y0643815D01*
X0778291Y0643874D01*
X0778284Y0643931D01*
X0779426Y0643161D01*
D02*
G37*
G36*
X0777182Y0636838D02*
X0777197Y0636669D01*
X0777221Y0636519D01*
X0777256Y0636390D01*
X0777300Y0636280D01*
X0777354Y0636191D01*
X0777418Y0636121D01*
X0777492Y0636071D01*
X0777576Y0636041D01*
X0777669Y0636031D01*
X0775701D01*
X0775794Y0636041D01*
X0775878Y0636071D01*
X0775952Y0636121D01*
X0776016Y0636191D01*
X0776070Y0636280D01*
X0776114Y0636390D01*
X0776149Y0636519D01*
X0776173Y0636669D01*
X0776188Y0636838D01*
X0776193Y0637027D01*
X0777177D01*
X0777182Y0636838D01*
D02*
G37*
G36*
X0741132Y0632050D02*
X0741065Y0631979D01*
X0741005Y0631907D01*
X0740951Y0631833D01*
X0740904Y0631759D01*
X0740863Y0631683D01*
X0740829Y0631606D01*
X0740802Y0631527D01*
X0740782Y0631448D01*
X0740768Y0631367D01*
X0740760Y0631285D01*
X0739844Y0632315D01*
X0739926Y0632313D01*
X0740006Y0632319D01*
X0740086Y0632332D01*
X0740164Y0632354D01*
X0740241Y0632382D01*
X0740318Y0632419D01*
X0740393Y0632463D01*
X0740466Y0632515D01*
X0740539Y0632575D01*
X0740611Y0632642D01*
X0741132Y0632050D01*
D02*
G37*
G36*
X0799051Y0628984D02*
X0798984Y0628961D01*
X0798925Y0628921D01*
X0798874Y0628865D01*
X0798831Y0628793D01*
X0798795Y0628705D01*
X0798768Y0628601D01*
X0798748Y0628481D01*
X0798736Y0628345D01*
X0798732Y0628193D01*
X0797945D01*
X0797941Y0628345D01*
X0797929Y0628481D01*
X0797909Y0628601D01*
X0797882Y0628705D01*
X0797847Y0628793D01*
X0797803Y0628865D01*
X0797752Y0628921D01*
X0797693Y0628961D01*
X0797626Y0628984D01*
X0797551Y0628993D01*
X0799126D01*
X0799051Y0628984D01*
D02*
G37*
G36*
X0794721D02*
X0794654Y0628961D01*
X0794594Y0628921D01*
X0794543Y0628865D01*
X0794500Y0628793D01*
X0794465Y0628705D01*
X0794437Y0628601D01*
X0794417Y0628481D01*
X0794406Y0628345D01*
X0794402Y0628193D01*
X0793614D01*
X0793610Y0628345D01*
X0793598Y0628481D01*
X0793579Y0628601D01*
X0793551Y0628705D01*
X0793516Y0628793D01*
X0793472Y0628865D01*
X0793421Y0628921D01*
X0793362Y0628961D01*
X0793295Y0628984D01*
X0793221Y0628993D01*
X0794795D01*
X0794721Y0628984D01*
D02*
G37*
G36*
X0781907Y0628982D02*
X0781823Y0628953D01*
X0781749Y0628903D01*
X0781685Y0628833D01*
X0781631Y0628744D01*
X0781587Y0628634D01*
X0781552Y0628504D01*
X0781528Y0628355D01*
X0781513Y0628186D01*
X0781508Y0627996D01*
X0780524D01*
X0780519Y0628186D01*
X0780504Y0628355D01*
X0780479Y0628504D01*
X0780445Y0628634D01*
X0780401Y0628744D01*
X0780346Y0628833D01*
X0780282Y0628903D01*
X0780209Y0628953D01*
X0780125Y0628982D01*
X0780031Y0628993D01*
X0782000D01*
X0781907Y0628982D01*
D02*
G37*
G36*
X0777379D02*
X0777295Y0628953D01*
X0777221Y0628903D01*
X0777157Y0628833D01*
X0777103Y0628744D01*
X0777059Y0628634D01*
X0777025Y0628504D01*
X0777000Y0628355D01*
X0776985Y0628186D01*
X0776980Y0627996D01*
X0775996D01*
X0775991Y0628186D01*
X0775976Y0628355D01*
X0775952Y0628504D01*
X0775917Y0628634D01*
X0775873Y0628744D01*
X0775819Y0628833D01*
X0775755Y0628903D01*
X0775681Y0628953D01*
X0775597Y0628982D01*
X0775504Y0628993D01*
X0777472D01*
X0777379Y0628982D01*
D02*
G37*
G36*
X0773245D02*
X0773161Y0628953D01*
X0773088Y0628903D01*
X0773024Y0628833D01*
X0772969Y0628744D01*
X0772925Y0628634D01*
X0772891Y0628504D01*
X0772866Y0628355D01*
X0772851Y0628186D01*
X0772847Y0627996D01*
X0771862D01*
X0771857Y0628186D01*
X0771842Y0628355D01*
X0771818Y0628504D01*
X0771783Y0628634D01*
X0771739Y0628744D01*
X0771685Y0628833D01*
X0771621Y0628903D01*
X0771547Y0628953D01*
X0771464Y0628982D01*
X0771370Y0628993D01*
X0773339D01*
X0773245Y0628982D01*
D02*
G37*
G36*
X0743324Y0627018D02*
X0743332Y0626925D01*
X0743347Y0626835D01*
X0743368Y0626750D01*
X0743395Y0626669D01*
X0743427Y0626592D01*
X0743465Y0626519D01*
X0743510Y0626451D01*
X0743560Y0626387D01*
X0743616Y0626327D01*
X0742238D01*
X0742294Y0626387D01*
X0742344Y0626451D01*
X0742389Y0626519D01*
X0742427Y0626592D01*
X0742459Y0626669D01*
X0742486Y0626750D01*
X0742507Y0626835D01*
X0742521Y0626925D01*
X0742530Y0627018D01*
X0742533Y0627116D01*
X0743321D01*
X0743324Y0627018D01*
D02*
G37*
G36*
X0784037Y0624780D02*
X0784430Y0624442D01*
X0784615Y0624305D01*
X0784792Y0624189D01*
X0784963Y0624094D01*
X0785125Y0624020D01*
X0785281Y0623967D01*
X0785429Y0623935D01*
X0785569Y0623925D01*
X0782785D01*
X0782913Y0623932D01*
X0783012Y0623953D01*
X0783083Y0623988D01*
X0783125Y0624038D01*
X0783139Y0624102D01*
X0783125Y0624180D01*
X0783083Y0624272D01*
X0783012Y0624378D01*
X0782913Y0624498D01*
X0782785Y0624633D01*
X0783829Y0624981D01*
X0784037Y0624780D01*
D02*
G37*
G36*
X0772856Y0627010D02*
X0772886Y0626842D01*
X0772935Y0626695D01*
X0773004Y0626567D01*
X0773093Y0626459D01*
X0773201Y0626370D01*
X0773329Y0626301D01*
X0773476Y0626252D01*
X0773644Y0626222D01*
X0773831Y0626213D01*
Y0625228D01*
X0773644Y0625218D01*
X0773476Y0625189D01*
X0773329Y0625140D01*
X0773201Y0625071D01*
X0773093Y0624982D01*
X0773004Y0624874D01*
X0772935Y0624746D01*
X0772886Y0624598D01*
X0772873Y0624523D01*
X0772891Y0624413D01*
X0772925Y0624284D01*
X0772969Y0624174D01*
X0773024Y0624084D01*
X0773088Y0624015D01*
X0773161Y0623965D01*
X0773245Y0623935D01*
X0773339Y0623925D01*
X0771370D01*
X0771464Y0623935D01*
X0771547Y0623965D01*
X0771621Y0624015D01*
X0771685Y0624084D01*
X0771739Y0624174D01*
X0771783Y0624284D01*
X0771818Y0624413D01*
X0771842Y0624562D01*
X0771857Y0624732D01*
X0771862Y0624921D01*
X0772395D01*
X0771862Y0625721D01*
X0772847Y0627197D01*
X0772856Y0627010D01*
D02*
G37*
G36*
X0760942Y0624732D02*
X0760957Y0624562D01*
X0760981Y0624413D01*
X0761016Y0624284D01*
X0761060Y0624174D01*
X0761114Y0624084D01*
X0761178Y0624015D01*
X0761252Y0623965D01*
X0761336Y0623935D01*
X0761429Y0623925D01*
X0759461D01*
X0759554Y0623935D01*
X0759638Y0623965D01*
X0759712Y0624015D01*
X0759776Y0624084D01*
X0759830Y0624174D01*
X0759874Y0624284D01*
X0759908Y0624413D01*
X0759933Y0624562D01*
X0759948Y0624732D01*
X0759953Y0624921D01*
X0760937D01*
X0760942Y0624732D01*
D02*
G37*
G36*
X0774167Y0647726D02*
X0774954Y0647201D01*
X0775882Y0647016D01*
X0775882Y0647016D01*
X0776110D01*
X0776301Y0646555D01*
X0768797Y0639051D01*
X0766121D01*
X0765578Y0638943D01*
X0765117Y0638635D01*
X0757767Y0631285D01*
X0757459Y0630824D01*
X0757351Y0630280D01*
Y0626299D01*
X0755265Y0624214D01*
X0755256Y0624207D01*
X0755230Y0624189D01*
X0755207Y0624174D01*
X0755187Y0624164D01*
X0755170Y0624156D01*
X0755156Y0624151D01*
X0755144Y0624147D01*
X0755099Y0624136D01*
X0755024Y0624102D01*
X0754752Y0624048D01*
X0754299Y0623745D01*
X0753799Y0623996D01*
Y0638874D01*
X0764697Y0649772D01*
X0772122D01*
X0774167Y0647726D01*
D02*
G37*
G36*
X0756761Y0623144D02*
X0756694Y0623071D01*
X0756635Y0622998D01*
X0756585Y0622925D01*
X0756544Y0622850D01*
X0756512Y0622775D01*
X0756489Y0622700D01*
X0756475Y0622623D01*
X0756470Y0622547D01*
X0756474Y0622469D01*
X0756487Y0622391D01*
X0755333Y0623144D01*
X0755411Y0623162D01*
X0755489Y0623186D01*
X0755565Y0623215D01*
X0755641Y0623250D01*
X0755715Y0623290D01*
X0755789Y0623336D01*
X0755862Y0623387D01*
X0755934Y0623443D01*
X0756076Y0623572D01*
X0756761Y0623144D01*
D02*
G37*
G36*
X0776611Y0621783D02*
X0776601Y0621877D01*
X0776571Y0621961D01*
X0776521Y0622035D01*
X0776451Y0622098D01*
X0776362Y0622153D01*
X0776252Y0622197D01*
X0776123Y0622231D01*
X0775973Y0622256D01*
X0775804Y0622271D01*
X0775614Y0622276D01*
Y0623260D01*
X0775804Y0623265D01*
X0775973Y0623279D01*
X0776123Y0623304D01*
X0776252Y0623339D01*
X0776362Y0623383D01*
X0776451Y0623437D01*
X0776521Y0623501D01*
X0776571Y0623575D01*
X0776601Y0623659D01*
X0776611Y0623752D01*
Y0621783D01*
D02*
G37*
G36*
X0774124Y0623659D02*
X0774153Y0623575D01*
X0774203Y0623501D01*
X0774271Y0623437D01*
X0774360Y0623383D01*
X0774468Y0623339D01*
X0774596Y0623304D01*
X0774744Y0623279D01*
X0774911Y0623265D01*
X0775098Y0623260D01*
Y0622276D01*
X0774911Y0622271D01*
X0774744Y0622256D01*
X0774596Y0622231D01*
X0774468Y0622197D01*
X0774360Y0622153D01*
X0774271Y0622098D01*
X0774203Y0622035D01*
X0774153Y0621961D01*
X0774124Y0621877D01*
X0774114Y0621783D01*
Y0623752D01*
X0774124Y0623659D01*
D02*
G37*
G36*
X0770607Y0621783D02*
X0770597Y0621877D01*
X0770567Y0621961D01*
X0770517Y0622035D01*
X0770447Y0622098D01*
X0770358Y0622153D01*
X0770248Y0622197D01*
X0770119Y0622231D01*
X0769969Y0622256D01*
X0769800Y0622271D01*
X0769610Y0622276D01*
Y0623260D01*
X0769800Y0623265D01*
X0769969Y0623279D01*
X0770119Y0623304D01*
X0770248Y0623339D01*
X0770358Y0623383D01*
X0770447Y0623437D01*
X0770517Y0623501D01*
X0770567Y0623575D01*
X0770597Y0623659D01*
X0770607Y0623752D01*
Y0621783D01*
D02*
G37*
G36*
X0768120Y0623659D02*
X0768149Y0623575D01*
X0768199Y0623501D01*
X0768267Y0623437D01*
X0768356Y0623383D01*
X0768464Y0623339D01*
X0768592Y0623304D01*
X0768740Y0623279D01*
X0768907Y0623265D01*
X0769094Y0623260D01*
Y0622276D01*
X0768907Y0622271D01*
X0768740Y0622256D01*
X0768592Y0622231D01*
X0768464Y0622197D01*
X0768356Y0622153D01*
X0768267Y0622098D01*
X0768199Y0622035D01*
X0768149Y0621961D01*
X0768120Y0621877D01*
X0768110Y0621783D01*
Y0623752D01*
X0768120Y0623659D01*
D02*
G37*
G36*
X0752090Y0620202D02*
X0752123Y0620186D01*
X0752166Y0620172D01*
X0752219Y0620160D01*
X0752282Y0620149D01*
X0752436Y0620134D01*
X0752629Y0620127D01*
X0752740Y0620126D01*
X0752764Y0618945D01*
X0752653Y0618944D01*
X0752306Y0618919D01*
X0752243Y0618908D01*
X0752190Y0618894D01*
X0752146Y0618879D01*
X0752112Y0618862D01*
X0752088Y0618842D01*
X0752066Y0620220D01*
X0752090Y0620202D01*
D02*
G37*
G36*
X0785053Y0618677D02*
X0785085Y0618311D01*
X0785103Y0618222D01*
X0785126Y0618149D01*
X0785153Y0618092D01*
X0785185Y0618052D01*
X0785220Y0618027D01*
X0785260Y0618019D01*
X0783661D01*
X0783701Y0618027D01*
X0783736Y0618052D01*
X0783768Y0618092D01*
X0783795Y0618149D01*
X0783818Y0618222D01*
X0783837Y0618311D01*
X0783851Y0618417D01*
X0783868Y0618677D01*
X0783870Y0618831D01*
X0785051D01*
X0785053Y0618677D01*
D02*
G37*
G36*
X0766947Y0618986D02*
X0766965Y0618783D01*
X0766994Y0618604D01*
X0767035Y0618449D01*
X0767089Y0618318D01*
X0767154Y0618210D01*
X0767230Y0618127D01*
X0767319Y0618067D01*
X0767419Y0618031D01*
X0767531Y0618019D01*
X0765169D01*
X0765281Y0618031D01*
X0765382Y0618067D01*
X0765471Y0618127D01*
X0765547Y0618210D01*
X0765612Y0618318D01*
X0765665Y0618449D01*
X0765707Y0618604D01*
X0765736Y0618783D01*
X0765754Y0618986D01*
X0765760Y0619212D01*
X0766941D01*
X0766947Y0618986D01*
D02*
G37*
G36*
X0792587Y0621413D02*
X0787694Y0616520D01*
X0787232Y0616712D01*
Y0619043D01*
X0786040D01*
X0785959Y0619451D01*
X0785607Y0619977D01*
X0785460Y0620125D01*
X0785651Y0620587D01*
X0787232D01*
Y0624949D01*
X0785565D01*
X0785553Y0624952D01*
X0785501Y0624969D01*
X0785423Y0625005D01*
X0785320Y0625062D01*
X0785198Y0625142D01*
X0785067Y0625239D01*
X0784780Y0625486D01*
X0782797Y0627468D01*
X0783004Y0627969D01*
X0792587D01*
Y0621413D01*
D02*
G37*
G36*
X0754712Y0617593D02*
X0754776Y0617543D01*
X0754844Y0617499D01*
X0754917Y0617461D01*
X0754994Y0617428D01*
X0755075Y0617402D01*
X0755160Y0617381D01*
X0755250Y0617366D01*
X0755343Y0617357D01*
X0755441Y0617354D01*
Y0616567D01*
X0755343Y0616564D01*
X0755250Y0616555D01*
X0755160Y0616540D01*
X0755075Y0616520D01*
X0754994Y0616493D01*
X0754917Y0616461D01*
X0754844Y0616422D01*
X0754776Y0616378D01*
X0754712Y0616328D01*
X0754652Y0616272D01*
Y0617650D01*
X0754712Y0617593D01*
D02*
G37*
G36*
X0758685Y0616173D02*
X0758677Y0616248D01*
X0758654Y0616315D01*
X0758614Y0616374D01*
X0758559Y0616425D01*
X0758488Y0616468D01*
X0758402Y0616504D01*
X0758299Y0616532D01*
X0758181Y0616551D01*
X0758047Y0616563D01*
X0757898Y0616567D01*
Y0617354D01*
X0758047Y0617358D01*
X0758181Y0617370D01*
X0758299Y0617390D01*
X0758402Y0617417D01*
X0758488Y0617453D01*
X0758559Y0617496D01*
X0758614Y0617547D01*
X0758654Y0617606D01*
X0758677Y0617673D01*
X0758685Y0617748D01*
Y0616173D01*
D02*
G37*
G36*
X0787074Y0613334D02*
X0787007Y0613262D01*
X0786947Y0613190D01*
X0786894Y0613116D01*
X0786848Y0613041D01*
X0786810Y0612965D01*
X0786778Y0612888D01*
X0786754Y0612809D01*
X0786737Y0612729D01*
X0786727Y0612648D01*
X0786724Y0612566D01*
X0785750Y0613541D01*
X0785832Y0613544D01*
X0785913Y0613553D01*
X0785993Y0613570D01*
X0786071Y0613595D01*
X0786149Y0613626D01*
X0786225Y0613665D01*
X0786300Y0613710D01*
X0786373Y0613763D01*
X0786446Y0613823D01*
X0786517Y0613890D01*
X0787074Y0613334D01*
D02*
G37*
G36*
X0783680Y0612149D02*
X0783689Y0612068D01*
X0783707Y0611989D01*
X0783731Y0611910D01*
X0783762Y0611833D01*
X0783801Y0611757D01*
X0783847Y0611682D01*
X0783899Y0611608D01*
X0783959Y0611535D01*
X0784026Y0611464D01*
X0783470Y0610907D01*
X0783398Y0610975D01*
X0783326Y0611034D01*
X0783252Y0611087D01*
X0783177Y0611133D01*
X0783101Y0611172D01*
X0783024Y0611203D01*
X0782945Y0611227D01*
X0782865Y0611244D01*
X0782785Y0611254D01*
X0782702Y0611257D01*
X0783677Y0612231D01*
X0783680Y0612149D01*
D02*
G37*
G36*
X0711011Y0607062D02*
X0711075Y0607012D01*
X0711144Y0606967D01*
X0711216Y0606929D01*
X0711293Y0606897D01*
X0711374Y0606870D01*
X0711459Y0606849D01*
X0711549Y0606835D01*
X0711643Y0606826D01*
X0711741Y0606823D01*
Y0606035D01*
X0711643Y0606033D01*
X0711549Y0606024D01*
X0711459Y0606009D01*
X0711374Y0605988D01*
X0711293Y0605962D01*
X0711216Y0605929D01*
X0711144Y0605891D01*
X0711075Y0605847D01*
X0711011Y0605796D01*
X0710951Y0605740D01*
Y0607118D01*
X0711011Y0607062D01*
D02*
G37*
G36*
X0754431Y0603083D02*
X0754375Y0603079D01*
X0754316Y0603068D01*
X0754256Y0603049D01*
X0754193Y0603023D01*
X0754128Y0602988D01*
X0754060Y0602946D01*
X0753991Y0602896D01*
X0753919Y0602838D01*
X0753769Y0602699D01*
X0753073Y0603395D01*
X0753146Y0603471D01*
X0753270Y0603617D01*
X0753320Y0603686D01*
X0753362Y0603754D01*
X0753397Y0603819D01*
X0753423Y0603882D01*
X0753442Y0603942D01*
X0753453Y0604001D01*
X0753457Y0604057D01*
X0754431Y0603083D01*
D02*
G37*
G36*
X0739438Y0597041D02*
X0739487Y0597008D01*
X0739543Y0596978D01*
X0739607Y0596953D01*
X0739677Y0596931D01*
X0739755Y0596913D01*
X0739840Y0596900D01*
X0739931Y0596890D01*
X0740136Y0596882D01*
Y0595898D01*
X0740030Y0595896D01*
X0739840Y0595880D01*
X0739755Y0595866D01*
X0739677Y0595848D01*
X0739607Y0595827D01*
X0739543Y0595801D01*
X0739487Y0595772D01*
X0739438Y0595738D01*
X0739396Y0595701D01*
Y0597079D01*
X0739438Y0597041D01*
D02*
G37*
%LPC*%
G36*
X0787528Y0691386D02*
X0783165D01*
Y0690465D01*
X0783046Y0690445D01*
X0782946Y0690437D01*
X0780562D01*
X0780465Y0690445D01*
X0780342Y0690465D01*
Y0691189D01*
X0779372D01*
X0779334Y0691197D01*
X0779295Y0691189D01*
X0779242D01*
X0779222Y0691191D01*
X0779216Y0691189D01*
X0775980D01*
Y0685646D01*
X0780342D01*
Y0686763D01*
X0780463Y0686783D01*
X0780563Y0686792D01*
X0782677D01*
X0783165Y0686383D01*
Y0685843D01*
X0782833Y0685480D01*
X0782575D01*
Y0681118D01*
X0788118D01*
Y0685480D01*
X0787860D01*
X0787528Y0685843D01*
Y0686816D01*
X0787535Y0686855D01*
X0787528Y0686893D01*
Y0691386D01*
D02*
G37*
G36*
X0742236Y0701877D02*
X0741462Y0701723D01*
X0740806Y0701285D01*
X0740367Y0700629D01*
X0740213Y0699854D01*
X0740268Y0699577D01*
X0739952Y0699260D01*
X0739644Y0698799D01*
X0739536Y0698255D01*
Y0688575D01*
X0739526Y0688568D01*
X0739088Y0687912D01*
X0738934Y0687138D01*
X0739088Y0686364D01*
X0739526Y0685707D01*
X0740182Y0685269D01*
X0740957Y0685115D01*
X0741731Y0685269D01*
X0742387Y0685707D01*
X0742826Y0686364D01*
X0742980Y0687138D01*
X0742826Y0687912D01*
X0742387Y0688568D01*
X0742378Y0688575D01*
Y0697667D01*
X0742521Y0697810D01*
X0742551Y0697835D01*
X0742569Y0697848D01*
X0742594Y0697864D01*
X0742616Y0697876D01*
X0742635Y0697885D01*
X0742651Y0697891D01*
X0742665Y0697896D01*
X0742709Y0697907D01*
X0742772Y0697938D01*
X0743010Y0697985D01*
X0743667Y0698424D01*
X0744105Y0699080D01*
X0744259Y0699854D01*
X0744105Y0700629D01*
X0743667Y0701285D01*
X0743010Y0701723D01*
X0742236Y0701877D01*
D02*
G37*
G36*
X0775224Y0697685D02*
X0769287D01*
Y0692889D01*
X0769230Y0692453D01*
Y0691665D01*
X0769333Y0690882D01*
X0769635Y0690152D01*
X0770075Y0689580D01*
Y0687127D01*
X0769734Y0686682D01*
X0769431Y0685953D01*
X0769328Y0685169D01*
Y0674638D01*
X0769431Y0673855D01*
X0769734Y0673125D01*
X0769779Y0673065D01*
Y0665370D01*
X0774929D01*
Y0673065D01*
X0774975Y0673125D01*
X0775277Y0673855D01*
X0775380Y0674638D01*
Y0685169D01*
X0775277Y0685953D01*
X0774975Y0686682D01*
X0774494Y0687309D01*
X0774437Y0687353D01*
Y0689580D01*
X0774876Y0690152D01*
X0775179Y0690882D01*
X0775282Y0691665D01*
Y0692453D01*
X0775224Y0692889D01*
Y0697685D01*
D02*
G37*
G36*
X0726660Y0660716D02*
X0722460D01*
Y0658638D01*
X0721173D01*
X0720629Y0658529D01*
X0720168Y0658221D01*
X0718813Y0656866D01*
X0718811D01*
X0718674Y0656839D01*
X0715842D01*
Y0651295D01*
X0719455D01*
X0719647Y0650833D01*
X0715155Y0646342D01*
X0714693Y0646533D01*
Y0648768D01*
X0713539D01*
Y0651295D01*
X0714299D01*
Y0656839D01*
X0709937D01*
Y0651295D01*
X0710697D01*
Y0648768D01*
X0709543D01*
Y0643618D01*
X0713847D01*
Y0642469D01*
X0709543D01*
Y0637319D01*
X0714693D01*
Y0638528D01*
X0714957Y0638581D01*
X0715418Y0638889D01*
X0716272Y0639744D01*
X0716581Y0640205D01*
X0716689Y0640749D01*
Y0643856D01*
X0721960Y0649127D01*
X0722460Y0648920D01*
Y0643516D01*
X0723139D01*
Y0642665D01*
X0722929D01*
Y0641691D01*
X0722922Y0641653D01*
X0722929Y0641615D01*
Y0637122D01*
X0727291D01*
Y0642665D01*
X0725981D01*
Y0643516D01*
X0726660D01*
Y0649489D01*
X0729860D01*
Y0643516D01*
X0734060D01*
Y0645596D01*
X0737496D01*
Y0644245D01*
X0741858D01*
Y0649788D01*
X0741098D01*
Y0650508D01*
X0741858D01*
Y0656051D01*
X0737496D01*
Y0650508D01*
X0738256D01*
Y0649788D01*
X0737496D01*
Y0648438D01*
X0734060D01*
Y0650517D01*
X0733211D01*
X0733116Y0650993D01*
X0732808Y0651454D01*
X0732347Y0651915D01*
X0731886Y0652223D01*
X0731342Y0652331D01*
X0721733D01*
X0721189Y0652223D01*
X0720728Y0651915D01*
X0720667Y0651853D01*
X0720205Y0652045D01*
Y0654305D01*
X0720406Y0654440D01*
X0721762Y0655795D01*
X0722460D01*
Y0653717D01*
X0726660D01*
Y0660716D01*
D02*
G37*
G36*
X0719228Y0616354D02*
X0718458Y0616253D01*
X0717740Y0615955D01*
X0717124Y0615483D01*
X0716651Y0614866D01*
X0716354Y0614148D01*
X0716252Y0613378D01*
X0716354Y0612608D01*
X0716651Y0611890D01*
X0717124Y0611273D01*
X0717740Y0610801D01*
X0718458Y0610503D01*
X0719228Y0610402D01*
X0719999Y0610503D01*
X0720716Y0610801D01*
X0721333Y0611273D01*
X0721806Y0611890D01*
X0722103Y0612608D01*
X0722205Y0613378D01*
X0722103Y0614148D01*
X0721806Y0614866D01*
X0721333Y0615483D01*
X0720716Y0615955D01*
X0719999Y0616253D01*
X0719228Y0616354D01*
D02*
G37*
%LPD*%
G36*
X0784189Y0687039D02*
X0784173Y0687189D01*
X0784126Y0687323D01*
X0784047Y0687441D01*
X0783935Y0687543D01*
X0783793Y0687630D01*
X0783618Y0687701D01*
X0783412Y0687756D01*
X0783174Y0687795D01*
X0782904Y0687819D01*
X0782603Y0687827D01*
Y0689402D01*
X0782904Y0689409D01*
X0783174Y0689433D01*
X0783412Y0689472D01*
X0783618Y0689528D01*
X0783793Y0689598D01*
X0783935Y0689685D01*
X0784047Y0689787D01*
X0784126Y0689906D01*
X0784173Y0690039D01*
X0784189Y0690189D01*
Y0687039D01*
D02*
G37*
G36*
X0779346Y0690030D02*
X0779393Y0689898D01*
X0779472Y0689782D01*
X0779583Y0689681D01*
X0779724Y0689595D01*
X0779897Y0689526D01*
X0780102Y0689471D01*
X0780338Y0689433D01*
X0780606Y0689409D01*
X0780905Y0689402D01*
Y0687827D01*
X0780604Y0687819D01*
X0780335Y0687795D01*
X0780097Y0687756D01*
X0779891Y0687701D01*
X0779717Y0687630D01*
X0779574Y0687543D01*
X0779463Y0687441D01*
X0779383Y0687323D01*
X0779335Y0687189D01*
X0779319Y0687039D01*
X0779330Y0690177D01*
X0779346Y0690030D01*
D02*
G37*
G36*
X0786443Y0686839D02*
X0786378Y0686792D01*
X0786321Y0686713D01*
X0786271Y0686603D01*
X0786229Y0686461D01*
X0786195Y0686288D01*
X0786168Y0686083D01*
X0786145Y0685702D01*
X0786165Y0685472D01*
X0786205Y0685234D01*
X0786260Y0685028D01*
X0786331Y0684853D01*
X0786417Y0684710D01*
X0786520Y0684599D01*
X0786638Y0684520D01*
X0786772Y0684472D01*
X0786921Y0684456D01*
X0783772D01*
X0783921Y0684472D01*
X0784055Y0684520D01*
X0784173Y0684599D01*
X0784276Y0684710D01*
X0784362Y0684853D01*
X0784433Y0685028D01*
X0784488Y0685234D01*
X0784528Y0685472D01*
X0784547Y0685688D01*
X0784498Y0686288D01*
X0784464Y0686461D01*
X0784422Y0686603D01*
X0784372Y0686713D01*
X0784315Y0686792D01*
X0784250Y0686839D01*
X0784177Y0686855D01*
X0786516D01*
X0786443Y0686839D01*
D02*
G37*
G36*
X0742453Y0698894D02*
X0742376Y0698874D01*
X0742299Y0698849D01*
X0742224Y0698818D01*
X0742149Y0698782D01*
X0742075Y0698741D01*
X0742001Y0698695D01*
X0741929Y0698644D01*
X0741786Y0698525D01*
X0741716Y0698458D01*
X0741014Y0698870D01*
X0741082Y0698942D01*
X0741141Y0699015D01*
X0741190Y0699089D01*
X0741230Y0699163D01*
X0741262Y0699238D01*
X0741284Y0699313D01*
X0741297Y0699389D01*
X0741300Y0699465D01*
X0741295Y0699542D01*
X0741281Y0699619D01*
X0742453Y0698894D01*
D02*
G37*
G36*
X0741353Y0688532D02*
X0741362Y0688439D01*
X0741377Y0688349D01*
X0741398Y0688264D01*
X0741424Y0688183D01*
X0741457Y0688106D01*
X0741495Y0688033D01*
X0741539Y0687965D01*
X0741590Y0687901D01*
X0741646Y0687841D01*
X0740268D01*
X0740324Y0687901D01*
X0740374Y0687965D01*
X0740418Y0688033D01*
X0740457Y0688106D01*
X0740489Y0688183D01*
X0740516Y0688264D01*
X0740536Y0688349D01*
X0740551Y0688439D01*
X0740560Y0688532D01*
X0740563Y0688630D01*
X0741350D01*
X0741353Y0688532D01*
D02*
G37*
G36*
X0723472Y0656429D02*
X0723464Y0656504D01*
X0723440Y0656571D01*
X0723401Y0656630D01*
X0723346Y0656681D01*
X0723275Y0656724D01*
X0723188Y0656760D01*
X0723086Y0656787D01*
X0722968Y0656807D01*
X0722834Y0656819D01*
X0722684Y0656823D01*
Y0657610D01*
X0722834Y0657614D01*
X0722968Y0657626D01*
X0723086Y0657646D01*
X0723188Y0657673D01*
X0723275Y0657709D01*
X0723346Y0657752D01*
X0723401Y0657803D01*
X0723440Y0657862D01*
X0723464Y0657929D01*
X0723472Y0658004D01*
Y0656429D01*
D02*
G37*
G36*
X0712831Y0652299D02*
X0712764Y0652276D01*
X0712705Y0652236D01*
X0712653Y0652181D01*
X0712610Y0652110D01*
X0712575Y0652024D01*
X0712547Y0651922D01*
X0712528Y0651803D01*
X0712516Y0651670D01*
X0712512Y0651520D01*
X0711724D01*
X0711721Y0651670D01*
X0711709Y0651803D01*
X0711689Y0651922D01*
X0711661Y0652024D01*
X0711626Y0652110D01*
X0711583Y0652181D01*
X0711531Y0652236D01*
X0711472Y0652276D01*
X0711406Y0652299D01*
X0711331Y0652307D01*
X0712906D01*
X0712831Y0652299D01*
D02*
G37*
G36*
X0740390Y0651512D02*
X0740323Y0651488D01*
X0740264Y0651449D01*
X0740213Y0651394D01*
X0740169Y0651323D01*
X0740134Y0651236D01*
X0740106Y0651134D01*
X0740087Y0651016D01*
X0740075Y0650882D01*
X0740071Y0650733D01*
X0739284D01*
X0739280Y0650882D01*
X0739268Y0651016D01*
X0739248Y0651134D01*
X0739221Y0651236D01*
X0739185Y0651323D01*
X0739142Y0651394D01*
X0739091Y0651449D01*
X0739032Y0651488D01*
X0738965Y0651512D01*
X0738890Y0651520D01*
X0740465D01*
X0740390Y0651512D01*
D02*
G37*
G36*
X0732201Y0650140D02*
X0732213Y0650004D01*
X0732232Y0649884D01*
X0732260Y0649780D01*
X0732295Y0649692D01*
X0732339Y0649620D01*
X0732390Y0649565D01*
X0732449Y0649524D01*
X0732516Y0649501D01*
X0732590Y0649493D01*
X0731016D01*
X0731090Y0649501D01*
X0731157Y0649524D01*
X0731216Y0649565D01*
X0731268Y0649620D01*
X0731311Y0649692D01*
X0731347Y0649780D01*
X0731374Y0649884D01*
X0731394Y0650004D01*
X0731405Y0650140D01*
X0731410Y0650292D01*
X0732197D01*
X0732201Y0650140D01*
D02*
G37*
G36*
X0740075Y0649414D02*
X0740087Y0649280D01*
X0740106Y0649162D01*
X0740134Y0649060D01*
X0740169Y0648973D01*
X0740213Y0648902D01*
X0740264Y0648847D01*
X0740323Y0648808D01*
X0740390Y0648784D01*
X0740465Y0648776D01*
X0738890D01*
X0738965Y0648784D01*
X0739032Y0648808D01*
X0739091Y0648847D01*
X0739142Y0648902D01*
X0739185Y0648973D01*
X0739221Y0649060D01*
X0739248Y0649162D01*
X0739268Y0649280D01*
X0739280Y0649414D01*
X0739284Y0649564D01*
X0740071D01*
X0740075Y0649414D01*
D02*
G37*
G36*
X0712516Y0648391D02*
X0712528Y0648255D01*
X0712547Y0648135D01*
X0712575Y0648032D01*
X0712610Y0647944D01*
X0712653Y0647872D01*
X0712705Y0647816D01*
X0712764Y0647776D01*
X0712831Y0647752D01*
X0712906Y0647744D01*
X0711331D01*
X0711406Y0647752D01*
X0711472Y0647776D01*
X0711531Y0647816D01*
X0711583Y0647872D01*
X0711626Y0647944D01*
X0711661Y0648032D01*
X0711689Y0648135D01*
X0711709Y0648255D01*
X0711721Y0648391D01*
X0711724Y0648543D01*
X0712512D01*
X0712516Y0648391D01*
D02*
G37*
G36*
X0738520Y0646229D02*
X0738512Y0646304D01*
X0738488Y0646371D01*
X0738448Y0646430D01*
X0738392Y0646481D01*
X0738320Y0646524D01*
X0738232Y0646560D01*
X0738128Y0646587D01*
X0738008Y0646607D01*
X0737873Y0646619D01*
X0737721Y0646623D01*
Y0647410D01*
X0737873Y0647414D01*
X0738008Y0647426D01*
X0738128Y0647446D01*
X0738232Y0647473D01*
X0738320Y0647509D01*
X0738392Y0647552D01*
X0738448Y0647603D01*
X0738488Y0647662D01*
X0738512Y0647729D01*
X0738520Y0647804D01*
Y0646229D01*
D02*
G37*
G36*
X0733044Y0647729D02*
X0733068Y0647662D01*
X0733108Y0647603D01*
X0733164Y0647552D01*
X0733236Y0647509D01*
X0733324Y0647473D01*
X0733427Y0647446D01*
X0733547Y0647426D01*
X0733683Y0647414D01*
X0733835Y0647410D01*
Y0646623D01*
X0733683Y0646619D01*
X0733547Y0646607D01*
X0733427Y0646587D01*
X0733324Y0646560D01*
X0733236Y0646524D01*
X0733164Y0646481D01*
X0733108Y0646430D01*
X0733068Y0646371D01*
X0733044Y0646304D01*
X0733036Y0646229D01*
Y0647804D01*
X0733044Y0647729D01*
D02*
G37*
G36*
X0725272Y0644532D02*
X0725206Y0644509D01*
X0725146Y0644469D01*
X0725095Y0644413D01*
X0725052Y0644341D01*
X0725016Y0644253D01*
X0724989Y0644149D01*
X0724969Y0644029D01*
X0724958Y0643893D01*
X0724954Y0643741D01*
X0724166D01*
X0724162Y0643893D01*
X0724150Y0644029D01*
X0724131Y0644149D01*
X0724103Y0644253D01*
X0724068Y0644341D01*
X0724024Y0644413D01*
X0723973Y0644469D01*
X0723914Y0644509D01*
X0723847Y0644532D01*
X0723772Y0644541D01*
X0725347D01*
X0725272Y0644532D01*
D02*
G37*
G36*
X0724958Y0642291D02*
X0724969Y0642157D01*
X0724989Y0642039D01*
X0725016Y0641937D01*
X0725052Y0641850D01*
X0725095Y0641779D01*
X0725146Y0641724D01*
X0725206Y0641685D01*
X0725272Y0641661D01*
X0725347Y0641653D01*
X0723941D01*
X0723984Y0641661D01*
X0724022Y0641685D01*
X0724056Y0641724D01*
X0724085Y0641779D01*
X0724110Y0641850D01*
X0724130Y0641937D01*
X0724146Y0642039D01*
X0724157Y0642157D01*
X0724166Y0642441D01*
X0724954D01*
X0724958Y0642291D01*
D02*
G37*
G36*
X0713676Y0640561D02*
X0713699Y0640504D01*
X0713736Y0640453D01*
X0713788Y0640409D01*
X0713855Y0640372D01*
X0713937Y0640342D01*
X0714033Y0640318D01*
X0714145Y0640301D01*
X0714271Y0640291D01*
X0714413Y0640287D01*
Y0639500D01*
X0714271Y0639497D01*
X0714145Y0639487D01*
X0714033Y0639470D01*
X0713937Y0639446D01*
X0713855Y0639416D01*
X0713788Y0639378D01*
X0713736Y0639334D01*
X0713699Y0639284D01*
X0713676Y0639226D01*
X0713669Y0639162D01*
Y0640626D01*
X0713676Y0640561D01*
D02*
G37*
D11*
X0798625Y0594012D02*
X0801583Y0596969D01*
X0737708Y0594012D02*
X0798625D01*
X0801583Y0596969D02*
Y0612433D01*
X0742927Y0632174D02*
X0746272Y0635519D01*
Y0639635D01*
X0749332Y0642696D01*
Y0675927D01*
X0739465Y0630939D02*
X0744697Y0636171D01*
Y0640287D01*
X0747757Y0643348D01*
Y0676579D01*
X0742927Y0625624D02*
Y0632174D01*
X0758772Y0630280D02*
X0766121Y0637630D01*
X0758772Y0625711D02*
Y0630280D01*
X0755526Y0622465D02*
X0758772Y0625711D01*
X0755526Y0622179D02*
Y0622465D01*
X0753949Y0616961D02*
X0760347D01*
X0760445Y0616862D01*
X0766121Y0637630D02*
X0769386D01*
X0725291Y0606429D02*
X0737708Y0594012D01*
X0808696Y0642551D02*
X0812194D01*
X0804741Y0646507D02*
X0808696Y0642551D01*
X0778263Y0646507D02*
X0804741D01*
X0769386Y0637630D02*
X0778263Y0646507D01*
X0758772Y0680937D02*
X0764102Y0675606D01*
Y0665665D02*
Y0675606D01*
Y0665665D02*
X0770878Y0658890D01*
X0758119Y0679362D02*
X0762528Y0674954D01*
Y0665013D02*
Y0674954D01*
Y0665013D02*
X0770226Y0657315D01*
X0783952D01*
X0770878Y0658890D02*
X0785740D01*
X0710248Y0606429D02*
X0725291D01*
X0783952Y0657315D02*
X0784755Y0656512D01*
X0747757Y0676579D02*
X0752115Y0680937D01*
X0749332Y0675927D02*
X0752768Y0679362D01*
X0752115Y0680937D02*
X0758772D01*
X0752768Y0679362D02*
X0758119D01*
X0786725Y0656512D02*
X0788988Y0658775D01*
X0784755Y0656512D02*
X0786725D01*
X0788988Y0658775D02*
Y0658890D01*
X0715268Y0644445D02*
X0721733Y0650910D01*
X0715268Y0640749D02*
Y0644445D01*
X0714413Y0639894D02*
X0715268Y0640749D01*
X0712118Y0639894D02*
X0714413D01*
X0719894Y0682905D02*
X0732984Y0669815D01*
Y0663516D02*
Y0669815D01*
X0740957Y0687138D02*
Y0698255D01*
X0742236Y0699535D01*
X0812194Y0642551D02*
X0814283Y0644641D01*
X0805139Y0665759D02*
Y0679058D01*
X0807049Y0663900D02*
Y0679116D01*
X0800652Y0657503D02*
X0807049Y0663900D01*
X0803953Y0664573D02*
X0805139Y0665759D01*
X0803953Y0664307D02*
Y0664573D01*
X0805081Y0679116D02*
X0805139Y0679058D01*
X0798331Y0657315D02*
X0798519Y0657503D01*
X0800652D01*
X0814283Y0644641D02*
Y0648949D01*
X0798339Y0621792D02*
Y0632512D01*
X0786725Y0610179D02*
X0798339Y0621792D01*
X0784755Y0610179D02*
X0786725D01*
X0782693Y0612241D02*
X0784755Y0610179D01*
X0785740Y0612557D02*
X0794008Y0620824D01*
Y0632512D01*
X0745583Y0653279D02*
Y0661154D01*
X0734165Y0672571D02*
X0745583Y0661154D01*
X0720780Y0685957D02*
X0734165Y0672571D01*
X0714087Y0685957D02*
X0720780D01*
X0731803Y0647173D02*
X0731960Y0647016D01*
X0731803Y0647173D02*
Y0650449D01*
X0731342Y0650910D02*
X0731803Y0650449D01*
X0721733Y0650910D02*
X0731342D01*
X0742236Y0699535D02*
Y0699854D01*
X0739677Y0647017D02*
Y0653279D01*
X0739677Y0647016D02*
X0739677Y0647017D01*
X0731960Y0647016D02*
X0739677D01*
X0724560Y0640444D02*
X0725110Y0639894D01*
X0724560Y0640444D02*
Y0647016D01*
X0731960Y0657217D02*
Y0660129D01*
X0732984Y0661154D01*
Y0663516D01*
X0719402Y0655445D02*
X0721173Y0657217D01*
X0718811Y0655445D02*
X0719402D01*
X0718024Y0654658D02*
X0718811Y0655445D01*
X0718024Y0654067D02*
Y0654658D01*
X0721173Y0657217D02*
X0724560D01*
X0712118Y0646193D02*
Y0654067D01*
D13*
X0751390Y0619535D02*
X0766138D01*
X0751374Y0619520D02*
X0751390Y0619535D01*
X0819697Y0685957D02*
X0822354D01*
X0820189Y0692846D02*
X0822551Y0690484D01*
X0800012Y0692846D02*
X0820189D01*
X0806803Y0649441D02*
X0822551Y0665189D01*
Y0690484D01*
X0784461Y0616862D02*
Y0618831D01*
X0783756Y0619535D02*
X0784461Y0618831D01*
X0766138Y0619535D02*
X0783756D01*
X0766350Y0616862D02*
Y0619323D01*
X0766138Y0619535D02*
X0766350Y0619323D01*
D27*
X0785347Y0688614D02*
D03*
X0791252D02*
D03*
X0819697Y0679894D02*
D03*
X0813791D02*
D03*
Y0685957D02*
D03*
X0819697D02*
D03*
Y0673752D02*
D03*
X0813791D02*
D03*
X0732984Y0663516D02*
D03*
X0727079D02*
D03*
X0739677Y0653279D02*
D03*
X0745583D02*
D03*
X0739677Y0647016D02*
D03*
X0745583D02*
D03*
X0731016Y0639894D02*
D03*
X0725110D02*
D03*
X0712118Y0654067D02*
D03*
X0718024D02*
D03*
X0778161Y0688417D02*
D03*
X0772256D02*
D03*
D28*
X0785347Y0683299D02*
D03*
Y0677394D02*
D03*
X0760445Y0622768D02*
D03*
Y0616862D02*
D03*
X0766350D02*
D03*
Y0622768D02*
D03*
X0772354D02*
D03*
Y0616862D02*
D03*
X0778358Y0622768D02*
D03*
Y0616862D02*
D03*
X0784461D02*
D03*
Y0622768D02*
D03*
D35*
X0722917Y0702098D02*
D03*
D36*
X0772256Y0694717D02*
D03*
D37*
X0778063Y0700622D02*
D03*
X0766449D02*
D03*
D70*
X0785347Y0669913D02*
Y0677394D01*
X0778358Y0688614D02*
X0785347D01*
Y0683299D02*
Y0688614D01*
D71*
X0751374Y0639878D02*
X0763693Y0652197D01*
X0751374Y0619520D02*
Y0639878D01*
X0751980Y0646051D02*
X0753839Y0644193D01*
X0763693Y0652197D02*
X0773126D01*
X0751980Y0646051D02*
Y0674342D01*
X0775882Y0649441D02*
X0806803D01*
X0773126Y0652197D02*
X0775882Y0649441D01*
X0751980Y0674342D02*
X0754441Y0676803D01*
X0806803Y0649441D02*
X0811134Y0645110D01*
D73*
X0776685Y0641300D02*
X0779248Y0643862D01*
Y0644129D01*
X0776685Y0632512D02*
Y0641300D01*
X0798339Y0669913D02*
Y0674253D01*
X0788439Y0654839D02*
X0791465Y0657864D01*
X0779720Y0654839D02*
X0788439D01*
X0779539Y0654658D02*
X0779720Y0654839D01*
X0789677Y0663798D02*
Y0669913D01*
Y0663798D02*
X0791465Y0662011D01*
Y0657864D02*
Y0662011D01*
X0746764Y0596390D02*
X0754441Y0604067D01*
X0738693Y0596390D02*
X0746764D01*
X0819234Y0669028D02*
X0819500D01*
X0818840Y0669421D02*
X0819234Y0669028D01*
X0813595Y0669421D02*
X0818840D01*
X0798339Y0674253D02*
X0798343Y0674248D01*
X0798339Y0676213D02*
X0801291Y0679165D01*
X0798339Y0674253D02*
Y0676213D01*
X0801291Y0679165D02*
X0803063D01*
X0795091Y0675573D02*
Y0680150D01*
Y0670996D02*
Y0675573D01*
X0800012Y0685071D02*
X0803063D01*
X0795091Y0680150D02*
X0800012Y0685071D01*
X0813791Y0680445D02*
Y0685957D01*
Y0679894D02*
Y0680445D01*
X0813102Y0681134D02*
X0813791Y0680445D01*
X0809067Y0681134D02*
X0813102D01*
X0808969Y0679067D02*
X0809067Y0679165D01*
Y0681134D01*
X0803063D02*
X0809067D01*
X0794008Y0669913D02*
X0795091Y0670996D01*
X0813791Y0673752D02*
Y0679894D01*
X0781016Y0627098D02*
X0784461Y0623654D01*
Y0622768D02*
Y0623654D01*
X0781016Y0627098D02*
Y0632512D01*
X0772354Y0625721D02*
Y0632512D01*
Y0622768D02*
Y0625721D01*
X0774323D01*
X0776488Y0627886D01*
Y0632315D01*
X0776685Y0632512D01*
X0772354Y0622768D02*
X0778358D01*
X0766350D02*
X0772354D01*
X0768024Y0628575D02*
Y0632512D01*
X0766449Y0627000D02*
X0768024Y0628575D01*
X0761823Y0627000D02*
X0766449D01*
X0760445Y0625622D02*
X0761823Y0627000D01*
X0760445Y0622768D02*
Y0625622D01*
D74*
X0772256Y0691665D02*
Y0692453D01*
X0772354Y0674638D02*
Y0685169D01*
D75*
X0712917Y0702098D02*
D03*
D76*
X0719228Y0613378D02*
D03*
X0711228D02*
D03*
X0715228Y0593378D02*
D03*
D77*
X0762217Y0612335D02*
D03*
X0756606Y0612532D02*
D03*
X0716252Y0689106D02*
D03*
X0740646Y0675524D02*
D03*
X0744500Y0669520D02*
D03*
X0755524Y0651454D02*
D03*
X0755440Y0638516D02*
D03*
X0755370Y0635366D02*
D03*
Y0632020D02*
D03*
X0755379Y0628870D02*
D03*
X0755429Y0625819D02*
D03*
X0755526Y0622179D02*
D03*
X0753949Y0616961D02*
D03*
X0751374Y0619520D02*
D03*
X0779248Y0644129D02*
D03*
X0781180Y0639598D02*
D03*
X0767728Y0656035D02*
D03*
X0733181Y0693043D02*
D03*
X0810136Y0676409D02*
D03*
X0742927Y0625624D02*
D03*
X0723437Y0614500D02*
D03*
X0710248Y0606429D02*
D03*
X0720583Y0593732D02*
D03*
X0739777Y0631333D02*
D03*
X0743910Y0618929D02*
D03*
X0741547Y0621788D02*
D03*
X0747157Y0629362D02*
D03*
Y0622669D02*
D03*
X0821961Y0695209D02*
D03*
X0809898Y0699854D02*
D03*
X0809953Y0696291D02*
D03*
X0810051Y0689894D02*
D03*
X0795976Y0686476D02*
D03*
X0790858Y0686842D02*
D03*
X0790760Y0681724D02*
D03*
X0790563Y0676705D02*
D03*
X0807984Y0660760D02*
D03*
X0810543Y0662532D02*
D03*
X0793417Y0654165D02*
D03*
X0767925Y0641567D02*
D03*
X0789579Y0625819D02*
D03*
X0790858Y0639801D02*
D03*
X0768910Y0645799D02*
D03*
X0760150Y0667354D02*
D03*
X0757000Y0671291D02*
D03*
X0741350Y0671095D02*
D03*
X0754723Y0692945D02*
D03*
X0732492Y0689943D02*
D03*
X0732000Y0679658D02*
D03*
X0728457Y0683988D02*
D03*
X0716252Y0697571D02*
D03*
X0709756Y0697669D02*
D03*
X0715169Y0679264D02*
D03*
X0718221Y0672582D02*
D03*
X0710347Y0678673D02*
D03*
X0800898Y0654362D02*
D03*
Y0638614D02*
D03*
X0793024Y0701606D02*
D03*
X0789087Y0693732D02*
D03*
X0785150Y0701606D02*
D03*
X0777276Y0607118D02*
D03*
X0765465Y0677984D02*
D03*
Y0599244D02*
D03*
X0757591Y0662236D02*
D03*
X0761528Y0607118D02*
D03*
X0753653Y0701606D02*
D03*
X0745780D02*
D03*
X0741843Y0614992D02*
D03*
X0745780Y0607118D02*
D03*
X0737906Y0701606D02*
D03*
Y0638614D02*
D03*
X0733968Y0630740D02*
D03*
Y0614992D02*
D03*
X0737906Y0607118D02*
D03*
X0730031Y0701606D02*
D03*
Y0607118D02*
D03*
X0741941Y0641272D02*
D03*
X0735817Y0641468D02*
D03*
X0730524Y0625524D02*
D03*
X0730409Y0630445D02*
D03*
X0730721Y0636154D02*
D03*
Y0641173D02*
D03*
X0726784Y0620012D02*
D03*
X0722847Y0619913D02*
D03*
X0732197Y0593142D02*
D03*
X0762315Y0597374D02*
D03*
X0772157Y0597079D02*
D03*
X0791843Y0611449D02*
D03*
X0776094Y0612039D02*
D03*
X0800012Y0692846D02*
D03*
X0801583Y0612433D02*
D03*
X0785740Y0658890D02*
D03*
X0788988D02*
D03*
X0719894Y0682905D02*
D03*
X0754441Y0604067D02*
D03*
X0738693Y0596390D02*
D03*
X0779539Y0654658D02*
D03*
X0819500Y0669028D02*
D03*
X0798343Y0674248D02*
D03*
X0813595Y0669421D02*
D03*
X0795091Y0675573D02*
D03*
X0814283Y0648949D02*
D03*
X0811134Y0645110D02*
D03*
X0782693Y0612241D02*
D03*
X0785740Y0612557D02*
D03*
X0803953Y0664307D02*
D03*
X0798331Y0657315D02*
D03*
X0782787Y0702689D02*
D03*
Y0699854D02*
D03*
Y0696783D02*
D03*
Y0693831D02*
D03*
X0779835D02*
D03*
X0776882D02*
D03*
Y0682020D02*
D03*
X0762118Y0702689D02*
D03*
Y0699736D02*
D03*
Y0696783D02*
D03*
Y0693831D02*
D03*
X0765071D02*
D03*
X0768024D02*
D03*
Y0690878D02*
D03*
Y0687925D02*
D03*
Y0684972D02*
D03*
Y0682020D02*
D03*
Y0679067D02*
D03*
Y0676114D02*
D03*
X0776882Y0679067D02*
D03*
Y0676114D02*
D03*
X0754441Y0676803D02*
D03*
X0819598Y0631823D02*
D03*
X0734165Y0672571D02*
D03*
X0819598Y0628476D02*
D03*
Y0625327D02*
D03*
Y0622177D02*
D03*
Y0619421D02*
D03*
Y0616272D02*
D03*
Y0613122D02*
D03*
Y0609972D02*
D03*
Y0607217D02*
D03*
Y0604461D02*
D03*
X0822354D02*
D03*
X0807787Y0612728D02*
D03*
X0805425D02*
D03*
Y0609972D02*
D03*
Y0606429D02*
D03*
X0810937Y0604067D02*
D03*
X0808181D02*
D03*
X0805425D02*
D03*
Y0601311D02*
D03*
Y0598555D02*
D03*
Y0595405D02*
D03*
Y0592256D02*
D03*
X0810543Y0612728D02*
D03*
X0810150Y0616272D02*
D03*
Y0619815D02*
D03*
X0742236Y0699854D02*
D03*
X0740957Y0687138D02*
D03*
X0714087Y0685957D02*
D03*
D78*
X0807049Y0685120D02*
D03*
X0805081D02*
D03*
X0807049Y0679116D02*
D03*
X0805081D02*
D03*
D79*
X0809067Y0681134D02*
D03*
Y0683102D02*
D03*
X0803063Y0681134D02*
D03*
Y0683102D02*
D03*
X0809067Y0679165D02*
D03*
Y0685071D02*
D03*
X0803063D02*
D03*
Y0679165D02*
D03*
D80*
X0724560Y0647016D02*
D03*
X0731960D02*
D03*
Y0657217D02*
D03*
X0728260D02*
D03*
X0724560D02*
D03*
D81*
X0712118Y0646193D02*
D03*
Y0639894D02*
D03*
D82*
X0802669Y0632512D02*
D03*
X0768024D02*
D03*
Y0669913D02*
D03*
X0802669D02*
D03*
D83*
X0798339Y0632512D02*
D03*
X0794008D02*
D03*
X0789677D02*
D03*
X0785347D02*
D03*
X0781016D02*
D03*
X0776685D02*
D03*
X0772354D02*
D03*
Y0669913D02*
D03*
X0776685D02*
D03*
X0781016D02*
D03*
X0785347D02*
D03*
X0789677D02*
D03*
X0794008D02*
D03*
X0798339D02*
D03*
M02*
