G04*
G04 #@! TF.GenerationSoftware,Altium Limited,Altium Designer,19.0.14 (431)*
G04*
G04 Layer_Color=16711935*
%FSAX25Y25*%
%MOIN*%
G70*
G01*
G75*
%ADD49R,0.03162X0.04343*%
%ADD50R,0.04343X0.03162*%
%ADD58R,0.06706X0.06706*%
%ADD59R,0.04737X0.04737*%
%ADD60R,0.04934X0.09461*%
%ADD63C,0.06706*%
%ADD64C,0.04702*%
%ADD65C,0.02769*%
%ADD84R,0.02178X0.02276*%
%ADD85R,0.02276X0.02178*%
%ADD86R,0.03000X0.05800*%
%ADD87R,0.03950X0.03950*%
%ADD88R,0.03556X0.07887*%
%ADD89R,0.03950X0.07887*%
G36*
X0769402Y0628968D02*
Y0636055D01*
X0766646D01*
Y0628968D01*
X0769402D01*
D02*
G37*
G36*
X0773929D02*
Y0636055D01*
X0770780D01*
Y0628968D01*
X0773929D01*
D02*
G37*
G36*
X0778260D02*
Y0636055D01*
X0775110D01*
Y0628968D01*
X0778260D01*
D02*
G37*
G36*
X0782590D02*
Y0636055D01*
X0779441D01*
Y0628968D01*
X0782590D01*
D02*
G37*
G36*
X0786921D02*
Y0636055D01*
X0783772D01*
Y0628968D01*
X0786921D01*
D02*
G37*
G36*
X0791252D02*
Y0636055D01*
X0788102D01*
Y0628968D01*
X0791252D01*
D02*
G37*
G36*
X0795583D02*
Y0636055D01*
X0792433D01*
Y0628968D01*
X0795583D01*
D02*
G37*
G36*
X0799913D02*
Y0636055D01*
X0796764D01*
Y0628968D01*
X0799913D01*
D02*
G37*
G36*
X0804047D02*
Y0636055D01*
X0801291D01*
Y0628968D01*
X0804047D01*
D02*
G37*
G36*
X0766646Y0673457D02*
Y0666370D01*
X0769402D01*
Y0673457D01*
X0766646D01*
D02*
G37*
G36*
X0770780D02*
Y0666370D01*
X0773929D01*
Y0673457D01*
X0770780D01*
D02*
G37*
G36*
X0775110D02*
Y0666370D01*
X0778260D01*
Y0673457D01*
X0775110D01*
D02*
G37*
G36*
X0779441D02*
Y0666370D01*
X0782590D01*
Y0673457D01*
X0779441D01*
D02*
G37*
G36*
X0783772D02*
Y0666370D01*
X0786921D01*
Y0673457D01*
X0783772D01*
D02*
G37*
G36*
X0788102D02*
Y0666370D01*
X0791252D01*
Y0673457D01*
X0788102D01*
D02*
G37*
G36*
X0792433D02*
Y0666370D01*
X0795583D01*
Y0673457D01*
X0792433D01*
D02*
G37*
G36*
X0796764D02*
Y0666370D01*
X0799913D01*
Y0673457D01*
X0796764D01*
D02*
G37*
G36*
X0801291D02*
Y0666370D01*
X0804047D01*
Y0673457D01*
X0801291D01*
D02*
G37*
D49*
X0785347Y0688614D02*
D03*
X0791252D02*
D03*
X0819697Y0679894D02*
D03*
X0813791D02*
D03*
Y0685957D02*
D03*
X0819697D02*
D03*
Y0673752D02*
D03*
X0813791D02*
D03*
X0732984Y0663516D02*
D03*
X0727079D02*
D03*
X0739677Y0653279D02*
D03*
X0745583D02*
D03*
X0739677Y0647016D02*
D03*
X0745583D02*
D03*
X0731016Y0639894D02*
D03*
X0725110D02*
D03*
X0712118Y0654067D02*
D03*
X0718024D02*
D03*
X0778161Y0688417D02*
D03*
X0772256D02*
D03*
D50*
X0785347Y0683299D02*
D03*
Y0677394D02*
D03*
X0760445Y0622768D02*
D03*
Y0616862D02*
D03*
X0766350D02*
D03*
Y0622768D02*
D03*
X0772354D02*
D03*
Y0616862D02*
D03*
X0778358Y0622768D02*
D03*
Y0616862D02*
D03*
X0784461D02*
D03*
Y0622768D02*
D03*
D58*
X0722917Y0702098D02*
D03*
D59*
X0772256Y0694717D02*
D03*
D60*
X0778063Y0700622D02*
D03*
X0766449D02*
D03*
D63*
X0712917Y0702098D02*
D03*
D64*
X0719228Y0613378D02*
D03*
X0711228D02*
D03*
X0715228Y0593378D02*
D03*
D65*
X0762217Y0612335D02*
D03*
X0756606Y0612532D02*
D03*
X0716252Y0689106D02*
D03*
X0740646Y0675524D02*
D03*
X0744500Y0669520D02*
D03*
X0755524Y0651454D02*
D03*
X0755440Y0638516D02*
D03*
X0755370Y0635366D02*
D03*
Y0632020D02*
D03*
X0755379Y0628870D02*
D03*
X0755429Y0625819D02*
D03*
X0755526Y0622179D02*
D03*
X0767728Y0656035D02*
D03*
X0810136Y0676409D02*
D03*
D84*
X0807049Y0685120D02*
D03*
X0805081D02*
D03*
X0807049Y0679116D02*
D03*
X0805081D02*
D03*
D85*
X0809067Y0681134D02*
D03*
Y0683102D02*
D03*
X0803063Y0681134D02*
D03*
Y0683102D02*
D03*
X0809067Y0679165D02*
D03*
Y0685071D02*
D03*
X0803063D02*
D03*
Y0679165D02*
D03*
D86*
X0724560Y0647016D02*
D03*
X0731960D02*
D03*
Y0657217D02*
D03*
X0728260D02*
D03*
X0724560D02*
D03*
D87*
X0712118Y0646193D02*
D03*
Y0639894D02*
D03*
D88*
X0802669Y0632512D02*
D03*
X0768024D02*
D03*
Y0669913D02*
D03*
X0802669D02*
D03*
D89*
X0798339Y0632512D02*
D03*
X0794008D02*
D03*
X0789677D02*
D03*
X0785347D02*
D03*
X0781016D02*
D03*
X0776685D02*
D03*
X0772354D02*
D03*
Y0669913D02*
D03*
X0776685D02*
D03*
X0781016D02*
D03*
X0785347D02*
D03*
X0789677D02*
D03*
X0794008D02*
D03*
X0798339D02*
D03*
M02*
